<?xml version="1.0" encoding="UTF-8"?>
<svg version="1.1" xmlns="http://www.w3.org/2000/svg" width="152" height="105">
<path d="M0 0 C2.64 0 5.28 0 8 0 C8.02696365 1.79158489 8.04637917 3.58328473 8.0625 5.375 C8.07410156 6.37273438 8.08570312 7.37046875 8.09765625 8.3984375 C8 11 8 11 7 13 C7.556875 13.02578125 8.11375 13.0515625 8.6875 13.078125 C18.35736714 13.79683134 25.44017494 17.88448728 32 25 C38.40433918 33.68553079 41.10126113 42.23031392 40 53 C39.20562263 56.41485395 38.16967352 59.69703591 37 63 C36.67 63.99 36.34 64.98 36 66 C36.66 66.61875 37.32 67.2375 38 67.875 C40 70 40 70 40 72 C40.66 72 41.32 72 42 72 C42.4021875 72.9590625 42.4021875 72.9590625 42.8125 73.9375 C43.88667752 76.33131686 43.88667752 76.33131686 47 77 C47.66 76.67 48.32 76.34 49 76 C49 75.01 49 74.02 49 73 C49.66 73 50.32 73 51 73 C50.67 70.69 50.34 68.38 50 66 C50.66 65.67 51.32 65.34 52 65 C51.67 64.01 51.34 63.02 51 62 C51.66 62 52.32 62 53 62 C52.67 59.69 52.34 57.38 52 55 C55 56 55 56 57 58 C57.66 58 58.32 58 59 58 C59 64.66666667 59 71.33333333 59 78 C59.2475 78.99 59.495 79.98 59.75 81 C59.8325 81.99 59.915 82.98 60 84 C58.70766393 85.37310707 57.37562854 86.71034824 56 88 C56.13641377 90.21858253 56.13641377 90.21858253 57 92 C53.06711636 92.93087909 49.42345837 93.11608885 45.38671875 93.09765625 C43.5159668 93.09282227 43.5159668 93.09282227 41.60742188 93.08789062 C40.31384766 93.07951172 39.02027344 93.07113281 37.6875 93.0625 C35.71813477 93.05573242 35.71813477 93.05573242 33.70898438 93.04882812 C30.4726099 93.03705949 27.23632822 93.0206176 24 93 C26.31 93.33 28.62 93.66 31 94 C31 94.66 31 95.32 31 96 C25.03325384 97.32594359 19.07416385 97.0884587 13 97 C13 97.66 13 98.32 13 99 C5.39793337 100.62843808 -1.82470667 101.29708482 -9.58984375 101.265625 C-10.65562149 101.26753845 -11.72139923 101.2694519 -12.81947327 101.27142334 C-15.05730426 101.27277494 -17.29514338 101.26915077 -19.53295898 101.26074219 C-22.92514981 101.25003897 -26.31680985 101.26066742 -29.70898438 101.2734375 C-31.89843865 101.27211552 -34.0878926 101.26955232 -36.27734375 101.265625 C-37.27458969 101.26967346 -38.27183563 101.27372192 -39.29930115 101.27789307 C-46.36180812 101.23173602 -53.06965092 100.34092934 -60 99 C-60 98.34 -60 97.68 -60 97 C-57.91727106 96.66291092 -55.83378963 96.33046884 -53.75 96 C-52.58984375 95.814375 -51.4296875 95.62875 -50.234375 95.4375 C-47 95 -47 95 -43 95 C-43 94.01 -43 93.02 -43 92 C-57.19 92 -71.38 92 -86 92 C-86 90 -86 90 -84 88 C-84.19782865 85.99306994 -84.19782865 85.99306994 -84.875 83.875 C-85.07867187 83.15054688 -85.28234375 82.42609375 -85.4921875 81.6796875 C-85.65976563 81.12539062 -85.82734375 80.57109375 -86 80 C-86.66 80 -87.32 80 -88 80 C-88.28875 79.030625 -88.5775 78.06125 -88.875 77.0625 C-89.64214682 73.89335797 -89.64214682 73.89335797 -92 73 C-92 72.34 -92 71.68 -92 71 C-89.03 70.505 -89.03 70.505 -86 70 C-85.608125 70.7425 -85.21625 71.485 -84.8125 72.25 C-83.11634928 75.13631177 -83.11634928 75.13631177 -80.3125 77.125 C-79.549375 77.74375 -78.78625 78.3625 -78 79 C-78 79.99 -78 80.98 -78 82 C-77.34 82 -76.68 82 -76 82 C-76 81.34 -76 80.68 -76 80 C-75.34 80 -74.68 80 -74 80 C-74 79.01 -74 78.02 -74 77 C-73.34 77 -72.68 77 -72 77 C-71.87625 76.360625 -71.7525 75.72125 -71.625 75.0625 C-71.41875 74.381875 -71.2125 73.70125 -71 73 C-70.01 72.505 -70.01 72.505 -69 72 C-69 71.34 -69 70.68 -69 70 C-68.34 70 -67.68 70 -67 70 C-66.67 68.68 -66.34 67.36 -66 66 C-65.34 66 -64.68 66 -64 66 C-62 69 -62 69 -62 72 C-63 74.1875 -63 74.1875 -64 76 C-63.505 76.495 -63.505 76.495 -63 77 C-62.71125 76.360625 -62.4225 75.72125 -62.125 75.0625 C-61 73 -61 73 -59 72 C-59 71.34 -59 70.68 -59 70 C-58.01 70 -57.02 70 -56 70 C-56 68.68 -56 67.36 -56 66 C-54.68 66 -53.36 66 -52 66 C-50.1242613 65.20187991 -50.1242613 65.20187991 -48.328125 64.03125 C-47.66425781 63.62519531 -47.00039063 63.21914062 -46.31640625 62.80078125 C-45.63449219 62.37152344 -44.95257813 61.94226563 -44.25 61.5 C-43.55261719 61.07074219 -42.85523438 60.64148438 -42.13671875 60.19921875 C-40.41958477 59.1407115 -38.70912459 58.07139153 -37 57 C-37.33 56.34 -37.66 55.68 -38 55 C-40.97 57.31 -43.94 59.62 -47 62 C-47.99 61.34 -48.98 60.68 -50 60 C-50 59.01 -50 58.02 -50 57 C-51.98 57.495 -51.98 57.495 -54 58 C-54.08710289 54.89601022 -54.14042309 51.79233452 -54.1875 48.6875 C-54.21263672 47.80642578 -54.23777344 46.92535156 -54.26367188 46.01757812 C-54.27333984 45.17001953 -54.28300781 44.32246094 -54.29296875 43.44921875 C-54.3086792 42.66893311 -54.32438965 41.88864746 -54.34057617 41.0847168 C-53.91847304 38.50096147 -52.98510058 37.63707833 -51 36 C-51.33 35.01 -51.66 34.02 -52 33 C-53.65 33 -55.3 33 -57 33 C-57.66 30.03 -58.32 27.06 -59 24 C-61.31 23.67 -63.62 23.34 -66 23 C-66 22.34 -66 21.68 -66 21 C-63.36 21 -60.72 21 -58 21 C-58.04125 20.21625 -58.0825 19.4325 -58.125 18.625 C-58 16 -58 16 -56 14 C-51.04994912 13.53301407 -47.93798491 13.87277669 -44 17 C-42.768606 20.69418201 -43.35567236 23.2056261 -44 27 C-41.46743926 25.87441745 -39.82266478 24.83021096 -37.796875 22.890625 C-34.12308717 20.40722652 -32.26169027 20.87102687 -27.9375 21.5 C-24.35314966 22.11558999 -24.35314966 22.11558999 -21 22 C-18.55262583 20.1754994 -18.55262583 20.1754994 -17 18 C-17.515625 17.401875 -18.03125 16.80375 -18.5625 16.1875 C-19.036875 15.465625 -19.51125 14.74375 -20 14 C-19.67 13.01 -19.34 12.02 -19 11 C-16.525 10.505 -16.525 10.505 -14 10 C-12 13 -12 13 -12 16 C-10.96875 15.505 -9.9375 15.01 -8.875 14.5 C-5.15420862 12.71402014 -3.66443965 13 1 13 C0.67 8.71 0.34 4.42 0 0 Z M3 6 C3 7.65 3 9.3 3 11 C3.99 10.67 4.98 10.34 6 10 C6 8.68 6 7.36 6 6 C5.01 6 4.02 6 3 6 Z M-17 12 C-16.67 13.32 -16.34 14.64 -16 16 C-15.34 15.67 -14.68 15.34 -14 15 C-14.33 14.01 -14.66 13.02 -15 12 C-15.66 12 -16.32 12 -17 12 Z M-55 16 C-56.29633621 17.06645115 -56.29633621 17.06645115 -56.0625 19.5625 C-56.041875 20.366875 -56.02125 21.17125 -56 22 C-55.01 21.67 -54.02 21.34 -53 21 C-53 19.35 -53 17.7 -53 16 C-53.66 16 -54.32 16 -55 16 Z M-56 24 C-56.33 24.66 -56.66 25.32 -57 26 C-55.68 26 -54.36 26 -53 26 C-53 26.66 -53 27.32 -53 28 C-53.99 28.33 -54.98 28.66 -56 29 C-54.00449854 30.99550146 -52.52075165 31.81376393 -50 33 C-48.66666667 33.66666667 -47.33333333 34.33333333 -46 35 C-45.74969023 32.58380177 -45.74969023 32.58380177 -46 30 C-46.99 29.34 -47.98 28.68 -49 28 C-49.99 28.495 -49.99 28.495 -51 29 C-50.01 28.01 -49.02 27.02 -48 26 C-48.33 25.34 -48.66 24.68 -49 24 C-51.31 24 -53.62 24 -56 24 Z M-42 29 C-41.34 31.64 -40.68 34.28 -40 37 C-41.32 37.33 -42.64 37.66 -44 38 C-42.62514468 39.54166642 -42.62514468 39.54166642 -41 41 C-40.34 41 -39.68 41 -39 41 C-39 41.66 -39 42.32 -39 43 C-41.46800047 41.84826645 -43.04783565 40.95216435 -45 39 C-45.33 39.99 -45.66 40.98 -46 42 C-46.66 42 -47.32 42 -48 42 C-48.33 41.01 -48.66 40.02 -49 39 C-49.99 39.66 -50.98 40.32 -52 41 C-52 41.99 -52 42.98 -52 44 C-51.29875 43.896875 -50.5975 43.79375 -49.875 43.6875 C-47 44 -47 44 -44 46.5625 C-41.27019155 49.34472715 -41.27019155 49.34472715 -38.125 48.8125 C-37.42375 48.544375 -36.7225 48.27625 -36 48 C-35.87625 47.21625 -35.7525 46.4325 -35.625 45.625 C-35 43 -35 43 -33 41 C-33.66 41 -34.32 41 -35 41 C-35.33 39.02 -35.66 37.04 -36 35 C-34.68 35 -33.36 35 -32 35 C-31.67 36.65 -31.34 38.3 -31 40 C-30.01 39.01 -29.02 38.02 -28 37 C-28.66 35.02 -29.32 33.04 -30 31 C-31.32 31 -32.64 31 -34 31 C-33.67 30.01 -33.34 29.02 -33 28 C-32.40832031 28.20496094 -31.81664063 28.40992188 -31.20703125 28.62109375 C-27.16339184 29.9997571 -23.23144751 31.31750847 -19 32 C-18.34 31.01 -17.68 30.02 -17 29 C-19.03814233 28.32263519 -21.08070555 27.65856466 -23.125 27 C-24.26195313 26.62875 -25.39890625 26.2575 -26.5703125 25.875 C-33.25695084 24.16906949 -36.49483834 24.80559112 -42 29 Z M-44 30 C-44 31.65 -44 33.3 -44 35 C-43.34 35 -42.68 35 -42 35 C-42.33 33.35 -42.66 31.7 -43 30 C-43.33 30 -43.66 30 -44 30 Z M-28 31 C-27.67 32.98 -27.34 34.96 -27 37 C-22.545 36.505 -22.545 36.505 -18 36 C-18 35.34 -18 34.68 -18 34 C-21.3 33.01 -24.6 32.02 -28 31 Z M-52 46 C-52 48.64 -52 51.28 -52 54 C-50.35 53.67 -48.7 53.34 -47 53 C-47 50.69 -47 48.38 -47 46 C-48.65 46 -50.3 46 -52 46 Z M-45 48 C-44.67 49.32 -44.34 50.64 -44 52 C-43.34 51.34 -42.68 50.68 -42 50 C-42.99 49.34 -43.98 48.68 -45 48 Z M-36 52 C-35 54 -35 54 -35 54 Z M31 71 C32 73 32 73 32 73 Z M32 73 C32.34444881 75.47266765 32.34444881 75.47266765 33 78 C33.66 78.33 34.32 78.66 35 79 C35.99 78.34 36.98 77.68 38 77 C36.68 77 35.36 77 34 77 C34 76.34 34 75.68 34 75 C34.99 74.67 35.98 74.34 37 74 C35.35 73.67 33.7 73.34 32 73 Z M55 75 C56 77 56 77 56 77 Z M-72 77 C-71 79 -71 79 -71 79 Z M-65 78 C-65.33 78.66 -65.66 79.32 -66 80 C-65.34 80 -64.68 80 -64 80 C-64.33 79.34 -64.66 78.68 -65 78 Z M51 79 C52 81 52 81 52 81 Z M-64 80 C-63 82 -63 82 -63 82 Z M36 80 C36 80.33 36 80.66 36 81 C37.65 81 39.3 81 41 81 C41 80.67 41 80.34 41 80 C39.35 80 37.7 80 36 80 Z M52 81 C53 84 53 84 53 84 Z M-38 92 C-37.67 92.99 -37.34 93.98 -37 95 C-32.62501407 95.02913072 -28.25005326 95.04684286 -23.875 95.0625 C-22.01875 95.07506836 -22.01875 95.07506836 -20.125 95.08789062 C-18.92617187 95.09111328 -17.72734375 95.09433594 -16.4921875 95.09765625 C-14.84259033 95.10551147 -14.84259033 95.10551147 -13.15966797 95.11352539 C-10.02381895 95.0008558 -7.07940617 94.58626376 -4 94 C-4 93.34 -4 92.68 -4 92 C-15.22 92 -26.44 92 -38 92 Z " fill="#271D16" transform="translate(92,4)"/>
<path d="M0 0 C1.8871875 0.0309375 1.8871875 0.0309375 3.8125 0.0625 C3.8125 2.0425 3.8125 4.0225 3.8125 6.0625 C4.4725 6.0625 5.1325 6.0625 5.8125 6.0625 C5.8125 4.0825 5.8125 2.1025 5.8125 0.0625 C12.95259543 -0.59861995 17.87976983 1.01959355 23.8125 5.0625 C30.37902332 10.90681686 34.30045436 16.59203769 35.12109375 25.359375 C35.50192025 36.11483856 33.18407876 43.35192433 25.8828125 51.26953125 C18.94695722 57.27624365 10.98284017 59.4509774 2.0078125 59.33203125 C-7.03005039 58.56966873 -14.35210604 53.92684024 -20.1875 47.0625 C-20.1875 46.0725 -20.1875 45.0825 -20.1875 44.0625 C-18.5375 43.4025 -16.8875 42.7425 -15.1875 42.0625 C-16.5075 42.0625 -17.8275 42.0625 -19.1875 42.0625 C-19 40.1875 -19 40.1875 -18.1875 38.0625 C-16.53311387 37.36591637 -14.86495682 36.70153117 -13.1875 36.0625 C-11.19062026 34.24929552 -10.27544021 32.83105471 -9.96630859 30.12939453 C-9.92766976 27.78788136 -9.9760346 25.46520473 -10.0625 23.125 C-10.32911046 13.40940135 -10.32911046 13.40940135 -9.1875 9.0625 C-8.1975 9.0625 -7.2075 9.0625 -6.1875 9.0625 C-6.8475 8.0725 -7.5075 7.0825 -8.1875 6.0625 C-7.8125 3.375 -7.8125 3.375 -7.1875 1.0625 C-4.43671116 0.14557039 -2.82801087 -0.04636083 0 0 Z " fill="#F7F7F6" transform="translate(91.1875,22.9375)"/>
<path d="M0 0 C2.64 0 5.28 0 8 0 C8.02696365 1.79158489 8.04637917 3.58328473 8.0625 5.375 C8.07410156 6.37273438 8.08570312 7.37046875 8.09765625 8.3984375 C8 11 8 11 7 13 C7.556875 13.02578125 8.11375 13.0515625 8.6875 13.078125 C18.35736714 13.79683134 25.44017494 17.88448728 32 25 C38.4174759 33.70334674 41.07354719 42.21573055 40 53 C38.86579043 58.3369998 37.36091836 63.61619344 34 68 C33.34 68 32.68 68 32 68 C31.91492188 68.5878125 31.82984375 69.175625 31.7421875 69.78125 C30.01325677 74.94984292 24.02694998 77.94978271 19.4140625 80.33984375 C10.27434516 84.10562172 0.36378604 84.55325869 -8.9296875 81.00390625 C-11.92019608 79.55379171 -14.65458489 77.80041305 -17.37109375 75.890625 C-17.90863281 75.59671875 -18.44617188 75.3028125 -19 75 C-19.99 75.495 -19.99 75.495 -21 76 C-21 73.36 -21 70.72 -21 68 C-17.59534742 68.62392955 -15.42220672 69.93038149 -12.625 71.9375 C-4.56767948 77.38304725 2.94825673 77.97303124 12.51953125 76.65234375 C14.9130902 76.18924899 14.9130902 76.18924899 18 75 C18.495 73.515 18.495 73.515 19 72 C19.99 72 20.98 72 22 72 C28.5792791 66.26966014 32.49886849 60.35386071 33.30859375 51.703125 C33.6655773 41.62104402 31.72901645 34.06370474 24.828125 26.5703125 C19.03119594 21.59089907 12.52113706 19.41784095 5 19 C5 20.98 5 22.96 5 25 C4.34 25 3.68 25 3 25 C3 23.02 3 21.04 3 19 C-2.445 19.495 -2.445 19.495 -8 20 C-8.26352314 24.73647686 -8.26352314 24.73647686 -7 28 C-7.99 28 -8.98 28 -10 28 C-9.97381592 28.66531738 -9.94763184 29.33063477 -9.9206543 30.01611328 C-9.8162454 33.05216535 -9.75153652 36.08783911 -9.6875 39.125 C-9.64560547 40.17171875 -9.60371094 41.2184375 -9.56054688 42.296875 C-9.42232616 51.0324243 -9.42232616 51.0324243 -12.26953125 54.7421875 C-15 57 -15 57 -19 57 C-19.495 57.99 -19.495 57.99 -20 59 C-24.91644565 59 -29.77083105 58.6432306 -34 56 C-34 54.35 -34 52.7 -34 51 C-34.50789063 51.45890625 -35.01578125 51.9178125 -35.5390625 52.390625 C-39.52854915 55.94679662 -43.46733251 59.16708282 -48 62 C-48.66 61.34 -49.32 60.68 -50 60 C-50 59.01 -50 58.02 -50 57 C-51.98 57.495 -51.98 57.495 -54 58 C-54.08710289 54.89601022 -54.14042309 51.79233452 -54.1875 48.6875 C-54.21263672 47.80642578 -54.23777344 46.92535156 -54.26367188 46.01757812 C-54.27333984 45.17001953 -54.28300781 44.32246094 -54.29296875 43.44921875 C-54.31653442 42.27879028 -54.31653442 42.27879028 -54.34057617 41.0847168 C-53.91847304 38.50096147 -52.98510058 37.63707833 -51 36 C-51.495 34.515 -51.495 34.515 -52 33 C-53.65 33 -55.3 33 -57 33 C-57.66 30.03 -58.32 27.06 -59 24 C-61.31 23.67 -63.62 23.34 -66 23 C-66 22.34 -66 21.68 -66 21 C-63.36 21 -60.72 21 -58 21 C-58.04125 20.21625 -58.0825 19.4325 -58.125 18.625 C-58 16 -58 16 -56 14 C-51.04994912 13.53301407 -47.93798491 13.87277669 -44 17 C-42.768606 20.69418201 -43.35567236 23.2056261 -44 27 C-41.46743926 25.87441745 -39.82266478 24.83021096 -37.796875 22.890625 C-34.12308717 20.40722652 -32.26169027 20.87102687 -27.9375 21.5 C-24.35314966 22.11558999 -24.35314966 22.11558999 -21 22 C-18.55262583 20.1754994 -18.55262583 20.1754994 -17 18 C-17.515625 17.401875 -18.03125 16.80375 -18.5625 16.1875 C-19.036875 15.465625 -19.51125 14.74375 -20 14 C-19.67 13.01 -19.34 12.02 -19 11 C-17.35 10.67 -15.7 10.34 -14 10 C-12 13 -12 13 -12 16 C-10.96875 15.505 -9.9375 15.01 -8.875 14.5 C-5.15420862 12.71402014 -3.66443965 13 1 13 C0.67 8.71 0.34 4.42 0 0 Z M3 6 C3 7.65 3 9.3 3 11 C3.99 10.67 4.98 10.34 6 10 C6 8.68 6 7.36 6 6 C5.01 6 4.02 6 3 6 Z M-17 12 C-16.67 13.32 -16.34 14.64 -16 16 C-15.34 15.67 -14.68 15.34 -14 15 C-14.33 14.01 -14.66 13.02 -15 12 C-15.66 12 -16.32 12 -17 12 Z M-55 16 C-56.29633621 17.06645115 -56.29633621 17.06645115 -56.0625 19.5625 C-56.041875 20.366875 -56.02125 21.17125 -56 22 C-55.01 21.67 -54.02 21.34 -53 21 C-53 19.35 -53 17.7 -53 16 C-53.66 16 -54.32 16 -55 16 Z M-56 24 C-56.33 24.66 -56.66 25.32 -57 26 C-55.68 26 -54.36 26 -53 26 C-53 26.66 -53 27.32 -53 28 C-53.99 28.33 -54.98 28.66 -56 29 C-54.00449854 30.99550146 -52.52075165 31.81376393 -50 33 C-48.66666667 33.66666667 -47.33333333 34.33333333 -46 35 C-45.74969023 32.58380177 -45.74969023 32.58380177 -46 30 C-46.99 29.34 -47.98 28.68 -49 28 C-49.99 28.495 -49.99 28.495 -51 29 C-50.01 28.01 -49.02 27.02 -48 26 C-48.33 25.34 -48.66 24.68 -49 24 C-51.31 24 -53.62 24 -56 24 Z M-42 29 C-41.34 31.64 -40.68 34.28 -40 37 C-41.32 37.33 -42.64 37.66 -44 38 C-42.62514468 39.54166642 -42.62514468 39.54166642 -41 41 C-40.34 41 -39.68 41 -39 41 C-39 41.66 -39 42.32 -39 43 C-41.46800047 41.84826645 -43.04783565 40.95216435 -45 39 C-45.33 39.99 -45.66 40.98 -46 42 C-46.66 42 -47.32 42 -48 42 C-48.33 41.01 -48.66 40.02 -49 39 C-49.99 39.66 -50.98 40.32 -52 41 C-52 41.99 -52 42.98 -52 44 C-51.29875 43.896875 -50.5975 43.79375 -49.875 43.6875 C-47 44 -47 44 -44 46.5625 C-41.27019155 49.34472715 -41.27019155 49.34472715 -38.125 48.8125 C-37.42375 48.544375 -36.7225 48.27625 -36 48 C-35.87625 47.21625 -35.7525 46.4325 -35.625 45.625 C-35 43 -35 43 -33 41 C-33.66 41 -34.32 41 -35 41 C-35.33 39.02 -35.66 37.04 -36 35 C-34.68 35 -33.36 35 -32 35 C-31.67 36.65 -31.34 38.3 -31 40 C-30.01 39.01 -29.02 38.02 -28 37 C-28.66 35.02 -29.32 33.04 -30 31 C-31.32 31 -32.64 31 -34 31 C-33.67 30.01 -33.34 29.02 -33 28 C-32.40832031 28.20496094 -31.81664063 28.40992188 -31.20703125 28.62109375 C-27.16339184 29.9997571 -23.23144751 31.31750847 -19 32 C-18.34 31.01 -17.68 30.02 -17 29 C-19.03814233 28.32263519 -21.08070555 27.65856466 -23.125 27 C-24.26195313 26.62875 -25.39890625 26.2575 -26.5703125 25.875 C-33.25695084 24.16906949 -36.49483834 24.80559112 -42 29 Z M-44 30 C-44 31.65 -44 33.3 -44 35 C-43.34 35 -42.68 35 -42 35 C-42.33 33.35 -42.66 31.7 -43 30 C-43.33 30 -43.66 30 -44 30 Z M-28 31 C-27.67 32.98 -27.34 34.96 -27 37 C-22.545 36.505 -22.545 36.505 -18 36 C-18 35.34 -18 34.68 -18 34 C-21.3 33.01 -24.6 32.02 -28 31 Z M-52 46 C-52 48.64 -52 51.28 -52 54 C-50.35 53.67 -48.7 53.34 -47 53 C-47 50.69 -47 48.38 -47 46 C-48.65 46 -50.3 46 -52 46 Z M-45 48 C-44.67 49.32 -44.34 50.64 -44 52 C-43.34 51.34 -42.68 50.68 -42 50 C-42.99 49.34 -43.98 48.68 -45 48 Z " fill="#D18AB1" transform="translate(92,4)"/>
<path d="M0 0 C3 1 3 1 5 3 C5.66 3 6.32 3 7 3 C7 9.66666667 7 16.33333333 7 23 C7.2475 23.99 7.495 24.98 7.75 26 C7.8325 26.99 7.915 27.98 8 29 C6.70766393 30.37310707 5.37562854 31.71034824 4 33 C4.13641377 35.21858253 4.13641377 35.21858253 5 37 C1.49793399 37.79898779 -1.70471998 38.11456398 -5.29345703 38.08178711 C-6.3244754 38.0752562 -7.35549377 38.06872528 -8.41775513 38.06199646 C-10.07108353 38.04484337 -10.07108353 38.04484337 -11.7578125 38.02734375 C-14.09765481 38.01470394 -16.43749863 38.00234251 -18.77734375 37.99023438 C-22.46212494 37.96535385 -26.14682743 37.93730303 -29.83154297 37.90405273 C-33.39030475 37.87394196 -36.94896439 37.85610922 -40.5078125 37.83984375 C-41.6140799 37.82638412 -42.72034729 37.8129245 -43.86013794 37.79905701 C-44.88485199 37.79567825 -45.90956604 37.7922995 -46.96533203 37.78881836 C-47.86736359 37.78136093 -48.76939514 37.7739035 -49.69876099 37.76622009 C-52.27708122 37.84689 -52.27708122 37.84689 -55 40 C-54.67 38.35 -54.34 36.7 -54 35 C-54.7724707 34.43285278 -54.7724707 34.43285278 -55.56054688 33.85424805 C-57.88117337 32.1418672 -60.19058724 30.41497011 -62.5 28.6875 C-63.31082031 28.09259766 -64.12164062 27.49769531 -64.95703125 26.88476562 C-66.10751953 26.01948242 -66.10751953 26.01948242 -67.28125 25.13671875 C-67.99345703 24.60780029 -68.70566406 24.07888184 -69.43945312 23.53393555 C-69.95443359 23.02773682 -70.46941406 22.52153809 -71 22 C-71 21.01 -71 20.02 -71 19 C-70.35933594 19.40992187 -69.71867187 19.81984375 -69.05859375 20.2421875 C-59.81244237 26.00208508 -51.95847058 28.22594762 -41 27 C-33.93119879 24.97316363 -28.37174049 21.95852969 -23 17 C-22.01 16.67 -21.02 16.34 -20 16 C-20 15.01 -20 14.02 -20 13 C-19.34 13 -18.68 13 -18 13 C-18 12.34 -18 11.68 -18 11 C-16 11 -16 11 -13.875 12.875 C-12 15 -12 15 -12 17 C-11.34 17 -10.68 17 -10 17 C-9.731875 17.639375 -9.46375 18.27875 -9.1875 18.9375 C-8.11332248 21.33131686 -8.11332248 21.33131686 -5 22 C-4.01 21.505 -4.01 21.505 -3 21 C-3 20.01 -3 19.02 -3 18 C-2.34 18 -1.68 18 -1 18 C-1.495 14.535 -1.495 14.535 -2 11 C-1.34 10.67 -0.68 10.34 0 10 C-0.495 8.515 -0.495 8.515 -1 7 C-0.34 7 0.32 7 1 7 C0.505 3.535 0.505 3.535 0 0 Z M-20 18 C-19.65555119 20.47266765 -19.65555119 20.47266765 -19 23 C-18.34 23.33 -17.68 23.66 -17 24 C-16.01 23.34 -15.02 22.68 -14 22 C-15.32 22 -16.64 22 -18 22 C-18 21.34 -18 20.68 -18 20 C-17.01 19.67 -16.02 19.34 -15 19 C-16.65 18.67 -18.3 18.34 -20 18 Z M3 20 C4 22 4 22 4 22 Z M-1 24 C0 26 0 26 0 26 Z M-16 25 C-16 25.33 -16 25.66 -16 26 C-14.35 26 -12.7 26 -11 26 C-11 25.67 -11 25.34 -11 25 C-12.65 25 -14.3 25 -16 25 Z M0 26 C1 29 1 29 1 29 Z " fill="#F6E5EE" transform="translate(144,59)"/>
<path d="M0 0 C2.64 0 5.28 0 8 0 C8.02696365 1.79158489 8.04637917 3.58328473 8.0625 5.375 C8.07410156 6.37273438 8.08570313 7.37046875 8.09765625 8.3984375 C8 11 8 11 7 13 C7.556875 13.02578125 8.11375 13.0515625 8.6875 13.078125 C18.35736714 13.79683134 25.44017494 17.88448728 32 25 C38.4174759 33.70334674 41.07354719 42.21573055 40 53 C38.86579043 58.3369998 37.36091836 63.61619344 34 68 C33.34 68 32.68 68 32 68 C31.91492188 68.5878125 31.82984375 69.175625 31.7421875 69.78125 C30.01325677 74.94984292 24.02694998 77.94978271 19.4140625 80.33984375 C10.27434516 84.10562172 0.36378604 84.55325869 -8.9296875 81.00390625 C-11.92019608 79.55379171 -14.65458489 77.80041305 -17.37109375 75.890625 C-17.90863281 75.59671875 -18.44617188 75.3028125 -19 75 C-19.99 75.495 -19.99 75.495 -21 76 C-21 73.36 -21 70.72 -21 68 C-17.59534742 68.62392955 -15.42220672 69.93038149 -12.625 71.9375 C-4.56767948 77.38304725 2.94825673 77.97303124 12.51953125 76.65234375 C14.9130902 76.18924899 14.9130902 76.18924899 18 75 C18.495 73.515 18.495 73.515 19 72 C19.99 72 20.98 72 22 72 C28.5792791 66.26966014 32.49886849 60.35386071 33.30859375 51.703125 C33.6655773 41.62104402 31.72901645 34.06370474 24.828125 26.5703125 C19.03119594 21.59089907 12.52113706 19.41784095 5 19 C5 20.98 5 22.96 5 25 C4.34 25 3.68 25 3 25 C3 23.02 3 21.04 3 19 C-5.46524366 20.17820238 -5.46524366 20.17820238 -13 24 C-13.66 24 -14.32 24 -15 24 C-15 24.66 -15 25.32 -15 26 C-21.6 24.68 -28.2 23.36 -35 22 C-31.21313028 21.05328257 -29.68604368 21.07503238 -26 21.6875 C-21.88625268 22.25551875 -21.88625268 22.25551875 -18.375 20.0625 C-17.92125 19.381875 -17.4675 18.70125 -17 18 C-17.515625 17.401875 -18.03125 16.80375 -18.5625 16.1875 C-19.2740625 15.1046875 -19.2740625 15.1046875 -20 14 C-19.67 13.01 -19.34 12.02 -19 11 C-17.35 10.67 -15.7 10.34 -14 10 C-12 13 -12 13 -12 16 C-10.96875 15.505 -9.9375 15.01 -8.875 14.5 C-5.15420862 12.71402014 -3.66443965 13 1 13 C0.67 8.71 0.34 4.42 0 0 Z M3 6 C3 7.65 3 9.3 3 11 C3.99 10.67 4.98 10.34 6 10 C6 8.68 6 7.36 6 6 C5.01 6 4.02 6 3 6 Z M-17 12 C-16.67 13.32 -16.34 14.64 -16 16 C-15.34 15.67 -14.68 15.34 -14 15 C-14.33 14.01 -14.66 13.02 -15 12 C-15.66 12 -16.32 12 -17 12 Z " fill="#2B211A" transform="translate(92,4)"/>
<path d="M0 0 C0.66 0 1.32 0 2 0 C4 3 4 3 4 6 C3 8.1875 3 8.1875 2 10 C2.33 10.33 2.66 10.66 3 11 C3.28875 10.360625 3.5775 9.72125 3.875 9.0625 C5 7 5 7 7 6 C7 5.34 7 4.68 7 4 C7.66 4 8.32 4 9 4 C9.37769531 5.00289063 9.75539062 6.00578125 10.14453125 7.0390625 C12.00214378 11.3745838 14.70096748 14.76033225 17.6875 18.375 C23 24.90006305 23 24.90006305 23 26 C8.81 26 -5.38 26 -20 26 C-20 24 -20 24 -18 22 C-18.19782865 19.99306994 -18.19782865 19.99306994 -18.875 17.875 C-19.07867188 17.15054688 -19.28234375 16.42609375 -19.4921875 15.6796875 C-19.65976562 15.12539062 -19.82734375 14.57109375 -20 14 C-20.66 14 -21.32 14 -22 14 C-22.28875 13.030625 -22.5775 12.06125 -22.875 11.0625 C-23.64214682 7.89335797 -23.64214682 7.89335797 -26 7 C-26 6.34 -26 5.68 -26 5 C-24.02 4.67 -22.04 4.34 -20 4 C-19.608125 4.7425 -19.21625 5.485 -18.8125 6.25 C-17.11634928 9.13631177 -17.11634928 9.13631177 -14.3125 11.125 C-13.549375 11.74375 -12.78625 12.3625 -12 13 C-12 13.99 -12 14.98 -12 16 C-11.34 16 -10.68 16 -10 16 C-10 15.34 -10 14.68 -10 14 C-9.34 14 -8.68 14 -8 14 C-8 13.01 -8 12.02 -8 11 C-7.34 11 -6.68 11 -6 11 C-5.87625 10.360625 -5.7525 9.72125 -5.625 9.0625 C-5.41875 8.381875 -5.2125 7.70125 -5 7 C-4.34 6.67 -3.68 6.34 -3 6 C-3 5.34 -3 4.68 -3 4 C-2.34 4 -1.68 4 -1 4 C-0.67 2.68 -0.34 1.36 0 0 Z M-6 11 C-5 13 -5 13 -5 13 Z M1 12 C0.67 12.66 0.34 13.32 0 14 C0.66 14 1.32 14 2 14 C1.67 13.34 1.34 12.68 1 12 Z M2 14 C3 16 3 16 3 16 Z " fill="#F6E3ED" transform="translate(26,70)"/>
<path d="M0 0 C1.36282104 0.00616333 1.36282104 0.00616333 2.75317383 0.01245117 C3.7528418 0.01438477 4.75250977 0.01631836 5.7824707 0.01831055 C7.35544922 0.03667969 7.35544922 0.03667969 8.96020508 0.05541992 C9.98952148 0.05606445 11.01883789 0.05670898 12.0793457 0.05737305 C17.41089474 0.08811228 22.52057154 0.31432488 27.77270508 1.24291992 C27.77270508 1.90291992 27.77270508 2.56291992 27.77270508 3.24291992 C21.80595892 4.56886351 15.84686893 4.33137862 9.77270508 4.24291992 C9.77270508 4.90291992 9.77270508 5.56291992 9.77270508 6.24291992 C2.17063845 7.871358 -5.05200159 8.54000474 -12.81713867 8.50854492 C-13.88291641 8.51045837 -14.94869415 8.51237183 -16.04676819 8.51434326 C-18.28459919 8.51569486 -20.5224383 8.51207069 -22.76025391 8.50366211 C-26.15244473 8.49295889 -29.54410477 8.50358734 -32.9362793 8.51635742 C-35.12573357 8.51503544 -37.31518752 8.51247224 -39.50463867 8.50854492 C-40.50188461 8.51259338 -41.49913055 8.51664185 -42.52659607 8.52081299 C-49.58910304 8.47465594 -56.29694584 7.58384926 -63.22729492 6.24291992 C-63.22729492 5.58291992 -63.22729492 4.92291992 -63.22729492 4.24291992 C-55.54378678 2.80597327 -48.96383156 2.08243943 -41.22729492 3.24291992 C-40.89729492 2.91291992 -40.56729492 2.58291992 -40.22729492 2.24291992 C-37.78120495 2.08311555 -35.35998434 1.98362545 -32.91088867 1.92651367 C-32.17983414 1.90573257 -31.4487796 1.88495148 -30.6955719 1.86354065 C-28.35207836 1.79796968 -26.00846954 1.7391256 -23.66479492 1.68041992 C-22.07949637 1.63724184 -20.49420963 1.59362779 -18.90893555 1.54956055 C-15.01517455 1.44228073 -11.1212972 1.34103502 -7.22729492 1.24291992 C-7.55729492 1.90291992 -7.88729492 2.56291992 -8.22729492 3.24291992 C-4.88305894 2.57407272 -3.15482777 0.34408129 0 0 Z " fill="#F3CEE2" transform="translate(95.227294921875,96.757080078125)"/>
<path d="M0 0 C0.12375 0.73605469 0.2475 1.47210938 0.375 2.23046875 C1.46869343 7.83855071 1.46869343 7.83855071 4.453125 12.5625 C6.57283813 13.88962474 8.73566567 14.93404144 11 16 C12.98106715 17.04948137 14.95033693 18.11966074 16.92089844 19.1887207 C19.9342681 20.8174831 22.9668656 22.40839432 26 24 C26 24.33 26 24.66 26 25 C15.11 25 4.22 25 -7 25 C-8.32 22.421875 -9.64 19.84375 -11 17.1875 C-11.41765625 16.37949951 -11.8353125 15.57149902 -12.265625 14.73901367 C-12.59046875 14.09681885 -12.9153125 13.45462402 -13.25 12.79296875 C-13.58515625 12.1383667 -13.9203125 11.48376465 -14.265625 10.80932617 C-15 9 -15 9 -15 6 C-12.87717331 4.99539469 -10.75166979 3.99644398 -8.625 3 C-7.44164062 2.443125 -6.25828125 1.88625 -5.0390625 1.3125 C-2 0 -2 0 0 0 Z " fill="#F5E7EF" transform="translate(61,71)"/>
<path d="M0 0 C2.64 0 5.28 0 8 0 C8.02696365 1.79158489 8.04637917 3.58328473 8.0625 5.375 C8.07410156 6.37273438 8.08570313 7.37046875 8.09765625 8.3984375 C8 11 8 11 7 13 C7.61488281 13.06058594 8.22976562 13.12117188 8.86328125 13.18359375 C9.67152344 13.26738281 10.47976562 13.35117187 11.3125 13.4375 C12.11300781 13.51871094 12.91351563 13.59992187 13.73828125 13.68359375 C16 14 16 14 19 15 C19.495 16.485 19.495 16.485 20 18 C19.01 18.33 18.02 18.66 17 19 C16.443125 19.20625 15.88625 19.4125 15.3125 19.625 C11.7640564 20.20042329 8.54750675 19.53212601 5 19 C5 20.98 5 22.96 5 25 C4.34 25 3.68 25 3 25 C3 23.02 3 21.04 3 19 C-5.46524366 20.17820238 -5.46524366 20.17820238 -13 24 C-13.66 24 -14.32 24 -15 24 C-15 24.66 -15 25.32 -15 26 C-21.6 24.68 -28.2 23.36 -35 22 C-31.21313028 21.05328257 -29.68604368 21.07503238 -26 21.6875 C-21.88625268 22.25551875 -21.88625268 22.25551875 -18.375 20.0625 C-17.92125 19.381875 -17.4675 18.70125 -17 18 C-17.515625 17.401875 -18.03125 16.80375 -18.5625 16.1875 C-19.2740625 15.1046875 -19.2740625 15.1046875 -20 14 C-19.67 13.01 -19.34 12.02 -19 11 C-17.35 10.67 -15.7 10.34 -14 10 C-12 13 -12 13 -12 16 C-10.96875 15.505 -9.9375 15.01 -8.875 14.5 C-5.15420862 12.71402014 -3.66443965 13 1 13 C0.67 8.71 0.34 4.42 0 0 Z M3 6 C3 7.65 3 9.3 3 11 C3.99 10.67 4.98 10.34 6 10 C6 8.68 6 7.36 6 6 C5.01 6 4.02 6 3 6 Z M-17 12 C-16.67 13.32 -16.34 14.64 -16 16 C-15.34 15.67 -14.68 15.34 -14 15 C-14.33 14.01 -14.66 13.02 -15 12 C-15.66 12 -16.32 12 -17 12 Z " fill="#251B13" transform="translate(92,4)"/>
<path d="M0 0 C3 1 3 1 5 3 C5.66 3 6.32 3 7 3 C7 9.66666667 7 16.33333333 7 23 C7.30830925 25.00401011 7.63729412 27.00511766 8 29 C6.02 30.32 4.04 31.64 2 33 C1.67 32.01 1.34 31.02 1 30 C0.34 30 -0.32 30 -1 30 C-1.33 30.66 -1.66 31.32 -2 32 C-2 31.34 -2 30.68 -2 30 C-2.66 30 -3.32 30 -4 30 C-4.33 30.66 -4.66 31.32 -5 32 C-5.66 31.34 -6.32 30.68 -7 30 C-7 29.01 -7 28.02 -7 27 C-9.31 27.33 -11.62 27.66 -14 28 C-17.41485415 23.21920419 -20 18.99197954 -20 13 C-19.34 13 -18.68 13 -18 13 C-18 12.34 -18 11.68 -18 11 C-16 11 -16 11 -13.875 12.875 C-12 15 -12 15 -12 17 C-11.34 17 -10.68 17 -10 17 C-9.731875 17.639375 -9.46375 18.27875 -9.1875 18.9375 C-8.11332248 21.33131686 -8.11332248 21.33131686 -5 22 C-4.34 21.67 -3.68 21.34 -3 21 C-3 20.01 -3 19.02 -3 18 C-2.34 18 -1.68 18 -1 18 C-1.33 15.69 -1.66 13.38 -2 11 C-1.34 10.67 -0.68 10.34 0 10 C-0.33 9.01 -0.66 8.02 -1 7 C-0.34 7 0.32 7 1 7 C0.67 4.69 0.34 2.38 0 0 Z M3 20 C4 22 4 22 4 22 Z M-1 24 C0 26 0 26 0 26 Z M0 26 C1 29 1 29 1 29 Z " fill="#F0C4DC" transform="translate(144,59)"/>
<path d="M0 0 C3.86325427 0.32739443 5.67914656 0.92351345 8.6875 3.3125 C9.918894 7.00668201 9.33182764 9.5181261 8.6875 13.3125 C11.57187779 12.01950306 13.55969421 10.65308637 15.6875 8.3125 C16.3475 8.6425 17.0075 8.9725 17.6875 9.3125 C16.8625 10.075625 16.0375 10.83875 15.1875 11.625 C12.34694803 14.06684142 12.34694803 14.06684142 12.6875 17.3125 C12.6875 19.3125 12.6875 21.3125 12.6875 23.3125 C11.6975 23.6425 10.7075 23.9725 9.6875 24.3125 C10.3475 24.76625 11.0075 25.22 11.6875 25.6875 C12.3475 26.22375 13.0075 26.76 13.6875 27.3125 C13.6875 27.9725 13.6875 28.6325 13.6875 29.3125 C10.82025314 28.73905063 9.8260485 28.4510485 7.6875 26.3125 C7.3575 26.9725 7.0275 27.6325 6.6875 28.3125 C6.0275 28.3125 5.3675 28.3125 4.6875 28.3125 C4.0275 26.9925 3.3675 25.6725 2.6875 24.3125 C0.5209403 26.06759765 0.5209403 26.06759765 0.46044922 28.19189453 C0.47092285 28.93552246 0.48139648 29.67915039 0.4921875 30.4453125 C0.49863281 31.25097656 0.50507812 32.05664062 0.51171875 32.88671875 C0.52847656 33.72847656 0.54523437 34.57023437 0.5625 35.4375 C0.57603516 36.71173828 0.57603516 36.71173828 0.58984375 38.01171875 C0.61344353 40.11209884 0.64931517 42.21233444 0.6875 44.3125 C0.0275 44.3125 -0.6325 44.3125 -1.3125 44.3125 C-1.39960289 41.20851022 -1.45292309 38.10483452 -1.5 35 C-1.52513672 34.11892578 -1.55027344 33.23785156 -1.57617188 32.33007812 C-1.58583984 31.48251953 -1.59550781 30.63496094 -1.60546875 29.76171875 C-1.62903442 28.59129028 -1.62903442 28.59129028 -1.65307617 27.3972168 C-1.23097304 24.81346147 -0.29760058 23.94957833 1.6875 22.3125 C1.3575 21.3225 1.0275 20.3325 0.6875 19.3125 C-0.9625 19.3125 -2.6125 19.3125 -4.3125 19.3125 C-4.9725 16.3425 -5.6325 13.3725 -6.3125 10.3125 C-8.6225 9.9825 -10.9325 9.6525 -13.3125 9.3125 C-13.3125 8.6525 -13.3125 7.9925 -13.3125 7.3125 C-10.6725 7.3125 -8.0325 7.3125 -5.3125 7.3125 C-5.35375 6.52875 -5.395 5.745 -5.4375 4.9375 C-5.24047842 0.80004684 -3.99961031 0.37732173 0 0 Z M-2.3125 2.3125 C-3.60883621 3.37895115 -3.60883621 3.37895115 -3.375 5.875 C-3.354375 6.679375 -3.33375 7.48375 -3.3125 8.3125 C-2.3225 7.9825 -1.3325 7.6525 -0.3125 7.3125 C-0.3125 5.6625 -0.3125 4.0125 -0.3125 2.3125 C-0.9725 2.3125 -1.6325 2.3125 -2.3125 2.3125 Z M-3.3125 10.3125 C-3.6425 10.9725 -3.9725 11.6325 -4.3125 12.3125 C-2.9925 12.3125 -1.6725 12.3125 -0.3125 12.3125 C-0.3125 12.9725 -0.3125 13.6325 -0.3125 14.3125 C-1.3025 14.6425 -2.2925 14.9725 -3.3125 15.3125 C-1.31699854 17.30800146 0.16674835 18.12626393 2.6875 19.3125 C4.02083333 19.97916667 5.35416667 20.64583333 6.6875 21.3125 C6.93780977 18.89630177 6.93780977 18.89630177 6.6875 16.3125 C5.6975 15.6525 4.7075 14.9925 3.6875 14.3125 C2.6975 14.8075 2.6975 14.8075 1.6875 15.3125 C2.6775 14.3225 3.6675 13.3325 4.6875 12.3125 C4.3575 11.6525 4.0275 10.9925 3.6875 10.3125 C1.3775 10.3125 -0.9325 10.3125 -3.3125 10.3125 Z M8.6875 16.3125 C8.6875 17.9625 8.6875 19.6125 8.6875 21.3125 C9.3475 21.3125 10.0075 21.3125 10.6875 21.3125 C10.3575 19.6625 10.0275 18.0125 9.6875 16.3125 C9.3575 16.3125 9.0275 16.3125 8.6875 16.3125 Z " fill="#2F211B" transform="translate(39.3125,17.6875)"/>
<path d="M0 0 C0.66 0 1.32 0 2 0 C4 3 4 3 4 6 C3 8.1875 3 8.1875 2 10 C2.33 10.33 2.66 10.66 3 11 C3.28875 10.360625 3.5775 9.72125 3.875 9.0625 C5 7 5 7 7 6 C7 5.34 7 4.68 7 4 C7.66 4 8.32 4 9 4 C9.66 5.98 10.32 7.96 11 10 C7.88983545 13.28788824 4.98381075 15.83735988 1 18 C1 17.34 1 16.68 1 16 C-1.97 16 -4.94 16 -8 16 C-8.33 17.65 -8.66 19.3 -9 21 C-9.99 21.33 -10.98 21.66 -12 22 C-12 21.34 -12 20.68 -12 20 C-13.97536745 20.34786708 -13.97536745 20.34786708 -16 21 C-16.33 21.66 -16.66 22.32 -17 23 C-17.99 20.03 -18.98 17.06 -20 14 C-20.66 14 -21.32 14 -22 14 C-22.28875 13.030625 -22.5775 12.06125 -22.875 11.0625 C-23.64214682 7.89335797 -23.64214682 7.89335797 -26 7 C-26 6.34 -26 5.68 -26 5 C-24.02 4.67 -22.04 4.34 -20 4 C-19.608125 4.7425 -19.21625 5.485 -18.8125 6.25 C-17.11634928 9.13631177 -17.11634928 9.13631177 -14.3125 11.125 C-13.549375 11.74375 -12.78625 12.3625 -12 13 C-12 13.99 -12 14.98 -12 16 C-11.34 16 -10.68 16 -10 16 C-10 15.34 -10 14.68 -10 14 C-9.34 14 -8.68 14 -8 14 C-8 13.01 -8 12.02 -8 11 C-7.34 11 -6.68 11 -6 11 C-5.87625 10.360625 -5.7525 9.72125 -5.625 9.0625 C-5.41875 8.381875 -5.2125 7.70125 -5 7 C-4.34 6.67 -3.68 6.34 -3 6 C-3 5.34 -3 4.68 -3 4 C-2.34 4 -1.68 4 -1 4 C-0.67 2.68 -0.34 1.36 0 0 Z M-6 11 C-5 13 -5 13 -5 13 Z M1 12 C0.67 12.66 0.34 13.32 0 14 C0.66 14 1.32 14 2 14 C1.67 13.34 1.34 12.68 1 12 Z M2 14 C3 16 3 16 3 16 Z " fill="#F0C4DD" transform="translate(26,70)"/>
<path d="M0 0 C2.9375 -0.375 2.9375 -0.375 6 0 C7.5625 1.375 7.5625 1.375 9 3 C9.86625 3.28875 10.7325 3.5775 11.625 3.875 C12.40875 4.24625 13.1925 4.6175 14 5 C14.875 7.5625 14.875 7.5625 15 10 C14 11 14 11 10.12280273 11.11352539 C8.39305833 11.11336621 6.66330919 11.10766849 4.93359375 11.09765625 C4.02497086 11.0962413 3.11634796 11.09482635 2.18019104 11.09336853 C-0.73407221 11.08775193 -3.64825981 11.07519665 -6.5625 11.0625 C-8.53320202 11.05748714 -10.50390524 11.05292386 -12.47460938 11.04882812 C-17.31643559 11.03777711 -22.15820495 11.02050138 -27 11 C-27 10.34 -27 9.68 -27 9 C-26.43152344 8.87882813 -25.86304687 8.75765625 -25.27734375 8.6328125 C-18.06974023 7.07342154 -18.06974023 7.07342154 -11 5 C-10.67 4.34 -10.34 3.68 -10 3 C-7.98177083 3.09765625 -5.96354167 3.1953125 -3.9453125 3.29296875 C-3.30335938 3.19628906 -2.66140625 3.09960938 -2 3 C-1.34 2.01 -0.68 1.02 0 0 Z " fill="#F5D9E9" transform="translate(137,6)"/>
<path d="M0 0 C7.42876104 5.99960892 12.95970889 14.02483633 14.11328125 23.65625 C14.90078633 32.33312414 13.55019899 41.56461816 8.11328125 48.65625 C7.45328125 48.65625 6.79328125 48.65625 6.11328125 48.65625 C6.11328125 49.64625 6.11328125 50.63625 6.11328125 51.65625 C5.45328125 51.65625 4.79328125 51.65625 4.11328125 51.65625 C4.49228246 47.86623786 5.36309776 44.93558587 7.11328125 41.59375 C10.96815433 34.20524326 10.97938408 27.04697974 8.61328125 19.15625 C8.12416366 17.65266629 7.6279624 16.15127619 7.11328125 14.65625 C6.45328125 14.98625 5.79328125 15.31625 5.11328125 15.65625 C4.79617187 15.15996094 4.4790625 14.66367187 4.15234375 14.15234375 C0.49650025 8.83016274 -3.43380987 5.59972292 -8.91015625 2.19921875 C-9.56242187 1.69003906 -10.2146875 1.18085938 -10.88671875 0.65625 C-10.88671875 -0.33375 -10.88671875 -1.32375 -10.88671875 -2.34375 C-6.4080902 -4.00250132 -3.77503255 -2.68863602 0 0 Z " fill="#261D15" transform="translate(117.88671875,23.34375)"/>
<path d="M0 0 C0.88751953 0.30744141 0.88751953 0.30744141 1.79296875 0.62109375 C7.78921376 2.73839365 7.78921376 2.73839365 14 4 C14.66 3.67 15.32 3.34 16 3 C16 5.31 16 7.62 16 10 C14.35 10 12.7 10 11 10 C11.99 10.66 12.98 11.32 14 12 C11.36 13.98 8.72 15.96 6 18 C7.32 18 8.64 18 10 18 C10.66 18.33 11.32 18.66 12 19 C10.625 21 10.625 21 9 23 C8.34 23 7.68 23 7 23 C7 22.34 7 21.68 7 21 C5.35 20.67 3.7 20.34 2 20 C2 19.34 2 18.68 2 18 C0.02 18.66 -1.96 19.32 -4 20 C-3.49396008 17.83125748 -3.00016187 16.00032373 -2 14 C-2.60578253 11.98072489 -3.26919734 9.97746603 -4 8 C-3.01 7.67 -2.02 7.34 -1 7 C1.51083114 8.25541557 1.87125446 9.50063488 3 12 C4.43088528 9.13822943 3.59991697 7.06624227 3 4 C1.68 4.33 0.36 4.66 -1 5 C-1 1 -1 1 0 0 Z M5 4 C5.33 5.98 5.66 7.96 6 10 C10.455 9.505 10.455 9.505 15 9 C15 8.34 15 7.68 15 7 C11.7 6.01 8.4 5.02 5 4 Z " fill="#BB759A" transform="translate(59,31)"/>
<path d="M0 0 C0 3.10551666 -0.5393715 4.35261084 -2 7 C-1.29875 6.731875 -0.5975 6.46375 0.125 6.1875 C4.36152853 5.91120466 5.86548723 8.32260368 9 11 C11.75401951 11.42130907 11.75401951 11.42130907 14 11 C14.33 10.01 14.66 9.02 15 8 C16.32 8 17.64 8 19 8 C18.67587628 11.02515469 18.10171348 11.91241339 15.75 13.9375 C14.8425 14.618125 13.935 15.29875 13 16 C11.7934375 17.2375 11.7934375 17.2375 10.5625 18.5 C7.84851881 21.14778653 5.19929052 22.99114316 2 25 C1.34 24.34 0.68 23.68 0 23 C0 22.01 0 21.02 0 20 C-0.99 20 -1.98 20 -3 20 C-3.08089542 17.22858283 -3.14044062 14.45952181 -3.1875 11.6875 C-3.22520508 10.50897461 -3.22520508 10.50897461 -3.26367188 9.30664062 C-3.27333984 8.54931641 -3.28300781 7.79199219 -3.29296875 7.01171875 C-3.3086792 6.31522217 -3.32438965 5.61872559 -3.34057617 4.90112305 C-2.90238443 2.45510217 -1.86562642 1.57297914 0 0 Z M-2 9 C-2 11.64 -2 14.28 -2 17 C-0.35 16.67 1.3 16.34 3 16 C3 13.69 3 11.38 3 9 C1.35 9 -0.3 9 -2 9 Z M5 11 C5.33 12.32 5.66 13.64 6 15 C6.66 14.34 7.32 13.68 8 13 C7.01 12.34 6.02 11.68 5 11 Z " fill="#D5CED0" transform="translate(42,41)"/>
<path d="M0 0 C0.66 0.33 1.32 0.66 2 1 C2.625 4.0625 2.625 4.0625 3 7 C2.01 7 1.02 7 0 7 C0.02094727 7.6705542 0.04189453 8.3411084 0.06347656 9.03198242 C0.14686027 12.0836678 0.19873016 15.13511317 0.25 18.1875 C0.28351563 19.24259766 0.31703125 20.29769531 0.3515625 21.38476562 C0.45112665 29.27522481 0.45112665 29.27522481 -2.015625 33.23828125 C-2.67046875 33.81964844 -3.3253125 34.40101562 -4 35 C-4.66 34.67 -5.32 34.34 -6 34 C-5.67 33.67 -5.34 33.34 -5 33 C-4.70071191 31.0053097 -4.46064363 29.00166876 -4.24609375 26.99609375 C-4.11396484 25.78115234 -3.98183594 24.56621094 -3.84570312 23.31445312 C-3.71099609 22.03505859 -3.57628906 20.75566406 -3.4375 19.4375 C-3.29892578 18.15423828 -3.16035156 16.87097656 -3.01757812 15.54882812 C-2.67447856 12.36628384 -2.33547212 9.18335586 -2 6 C-2.76207764 6.50700439 -3.52415527 7.01400879 -4.30932617 7.53637695 C-7 9 -7 9 -10.05078125 8.41796875 C-11.12714844 8.01191406 -12.20351562 7.60585938 -13.3125 7.1875 C-18.55537541 5.37036705 -22.49103114 4.56792401 -28 5 C-27.01 3.68 -26.02 2.36 -25 1 C-22.79072956 1.2844814 -20.58261021 1.5779096 -18.375 1.875 C-16.53035156 2.11863281 -16.53035156 2.11863281 -14.6484375 2.3671875 C-11.26038483 2.95483689 -8.22301349 3.81988122 -5 5 C-5 4.34 -5 3.68 -5 3 C-2.625 1.3125 -2.625 1.3125 0 0 Z " fill="#B591A2" transform="translate(82,25)"/>
<path d="M0 0 C4.75 0.75 4.75 0.75 7 3 C8.64991582 3.70710678 10.31562256 4.37943989 12 5 C12 6.32 12 7.64 12 9 C0.78 9.33 -10.44 9.66 -22 10 C-22 9.34 -22 8.68 -22 8 C-20.58603098 7.49242138 -19.16868271 6.99425075 -17.75 6.5 C-16.96109375 6.2215625 -16.1721875 5.943125 -15.359375 5.65625 C-13 5 -13 5 -9 5 C-9 4.34 -9 3.68 -9 3 C-7.88625 3.061875 -6.7725 3.12375 -5.625 3.1875 C-4.42875 3.125625 -3.2325 3.06375 -2 3 C-1.34 2.01 -0.68 1.02 0 0 Z " fill="#F4D7E8" transform="translate(23,40)"/>
<path d="M0 0 C1.36282104 0.00616333 1.36282104 0.00616333 2.75317383 0.01245117 C3.7528418 0.01438477 4.75250977 0.01631836 5.7824707 0.01831055 C7.35544922 0.03667969 7.35544922 0.03667969 8.96020508 0.05541992 C9.98952148 0.05606445 11.01883789 0.05670898 12.0793457 0.05737305 C17.41089474 0.08811228 22.52057154 0.31432488 27.77270508 1.24291992 C27.77270508 1.90291992 27.77270508 2.56291992 27.77270508 3.24291992 C21.80595892 4.56886351 15.84686893 4.33137862 9.77270508 4.24291992 C9.77270508 4.90291992 9.77270508 5.56291992 9.77270508 6.24291992 C2.34629666 7.85173567 -4.63230531 8.50734896 -12.22729492 8.24291992 C-12.22729492 7.91291992 -12.22729492 7.58291992 -12.22729492 7.24291992 C-10.24729492 6.91291992 -8.26729492 6.58291992 -6.22729492 6.24291992 C-7.21729492 5.58291992 -8.20729492 4.92291992 -9.22729492 4.24291992 C-8.05166992 3.80979492 -8.05166992 3.80979492 -6.85229492 3.36791992 C-4.08400646 2.18151058 -2.9552356 0.32231277 0 0 Z " fill="#F0C9DF" transform="translate(95.227294921875,96.757080078125)"/>
<path d="M0 0 C3.26023324 0.22484367 4.93132641 0.5260489 7.625 2.25 C7.625 4.56 7.625 6.87 7.625 9.25 C3.995 9.25 0.365 9.25 -3.375 9.25 C-3.375 9.91 -3.375 10.57 -3.375 11.25 C-2.385 11.58 -1.395 11.91 -0.375 12.25 C-0.375 12.91 -0.375 13.57 -0.375 14.25 C-1.035 14.91 -1.695 15.57 -2.375 16.25 C-1.385 16.58 -0.395 16.91 0.625 17.25 C0.295 17.91 -0.035 18.57 -0.375 19.25 C-1.695 19.25 -3.015 19.25 -4.375 19.25 C-5.035 16.28 -5.695 13.31 -6.375 10.25 C-8.685 9.92 -10.995 9.59 -13.375 9.25 C-13.375 8.59 -13.375 7.93 -13.375 7.25 C-10.735 7.25 -8.095 7.25 -5.375 7.25 C-5.41625 6.46625 -5.4575 5.6825 -5.5 4.875 C-5.30084863 0.69282128 -4.04606319 0.29970838 0 0 Z M-2.375 2.25 C-3.67133621 3.31645115 -3.67133621 3.31645115 -3.4375 5.8125 C-3.416875 6.616875 -3.39625 7.42125 -3.375 8.25 C-2.385 7.92 -1.395 7.59 -0.375 7.25 C-0.375 5.6 -0.375 3.95 -0.375 2.25 C-1.035 2.25 -1.695 2.25 -2.375 2.25 Z " fill="#965D77" transform="translate(39.375,17.75)"/>
<path d="M0 0 C2 1 2 1 2.8515625 3.00390625 C5.76058479 12.62718706 5.63124396 19.54568015 2 29 C1 30.66666667 0 32.33333333 -1 34 C-1.25196129 36.70953551 -1.25196129 36.70953551 -1 39 C-3.475 39.495 -3.475 39.495 -6 40 C-6.66 39.01 -7.32 38.02 -8 37 C-7.60167969 36.5875 -7.20335938 36.175 -6.79296875 35.75 C0.3030319 28.01518664 1.33563083 21.79882912 1.30078125 11.3671875 C0.9966839 7.96287696 0.09609294 5.21831543 -1 2 C-0.67 1.34 -0.34 0.68 0 0 Z " fill="#423932" transform="translate(124,37)"/>
<path d="M0 0 C3.48282377 0.49754625 6.16634666 1.95347258 9 4 C9 4.99 9 5.98 9 7 C0.42 7.33 -8.16 7.66 -17 8 C-17 7.34 -17 6.68 -17 6 C-16.34773438 5.80664062 -15.69546875 5.61328125 -15.0234375 5.4140625 C-6.93425862 3.69446476 -6.93425862 3.69446476 0 0 Z " fill="#F6DFEC" transform="translate(66,1)"/>
<path d="M0 0 C2.97 0.495 2.97 0.495 6 1 C6 1.66 6 2.32 6 3 C6.66 3 7.32 3 8 3 C8.66 5.97 9.32 8.94 10 12 C0.43243243 11.04324324 0.43243243 11.04324324 -2 9 C-2.75 5.875 -2.75 5.875 -3 3 C-2.01 2.67 -1.02 2.34 0 2 C0 1.34 0 0.68 0 0 Z " fill="#D985B5" transform="translate(60,51)"/>
<path d="M0 0 C0.99 0 1.98 0 3 0 C5.58270253 7.74810759 3.89296165 15.57034849 1 23 C-0.5625 26.125 -0.5625 26.125 -2 28 C-2.66 28 -3.32 28 -4 28 C-4 28.99 -4 29.98 -4 31 C-4.66 31 -5.32 31 -6 31 C-5.53702564 26.37025643 -4.16270587 23.02780577 -1.9375 19.02734375 C0.07462959 14.67611351 0.11449958 10.4194616 0.0625 5.6875 C0.05347656 4.61886719 0.04445312 3.55023438 0.03515625 2.44921875 C0.02355469 1.64097656 0.01195312 0.83273438 0 0 Z " fill="#22170F" transform="translate(128,44)"/>
<path d="M0 0 C-0.27750794 4.32203863 -0.56544264 8.64319488 -0.86328125 12.96386719 C-0.99012769 14.85297306 -1.10494737 16.742876 -1.21875 18.6328125 C-1.32703125 20.23769531 -1.32703125 20.23769531 -1.4375 21.875 C-1.49808594 22.84179688 -1.55867188 23.80859375 -1.62109375 24.8046875 C-1.74613281 25.52914062 -1.87117188 26.25359375 -2 27 C-2.66 27.33 -3.32 27.66 -4 28 C-4.71204468 25.78474988 -5.10759767 24.40349126 -4.5 22.125 C-3.83953294 19.93690303 -3.83953294 19.93690303 -4.4375 17.4375 C-4.94502506 14.33595797 -5.17138869 11.44867769 -5.25 8.3125 C-5.27578125 7.38050781 -5.3015625 6.44851562 -5.328125 5.48828125 C-5 3 -5 3 -3.609375 1.16796875 C-2 0 -2 0 0 0 Z " fill="#FBF9F9" transform="translate(80,31)"/>
<path d="M0 0 C0.88751953 0.30744141 0.88751953 0.30744141 1.79296875 0.62109375 C7.78921376 2.73839365 7.78921376 2.73839365 14 4 C14.66 3.67 15.32 3.34 16 3 C16 5.31 16 7.62 16 10 C13.69 9.67 11.38 9.34 9 9 C12.75 7.875 12.75 7.875 15 9 C15 8.34 15 7.68 15 7 C11.94152152 6.45627049 9.11227195 6 6 6 C6.33 7.65 6.66 9.3 7 11 C5.02 11.99 5.02 11.99 3 13 C3.33 12.01 3.66 11.02 4 10 C3.72428861 7.99124558 3.39764263 5.98821313 3 4 C1.68 4.33 0.36 4.66 -1 5 C-1 1 -1 1 0 0 Z " fill="#342822" transform="translate(59,31)"/>
<path d="M0 0 C2.76276177 0.52268466 5.3260876 1.10869587 8 2 C8 1.34 8 0.68 8 0 C10.25 -0.3125 10.25 -0.3125 13 0 C17 4.10810811 17 4.10810811 17 7 C14.6875 7.625 14.6875 7.625 12 8 C11.01 7.34 10.02 6.68 9 6 C6.94290404 5.75944532 6.94290404 5.75944532 4.8125 5.875 C3.554375 5.91625 2.29625 5.9575 1 6 C1 5.34 1 4.68 1 4 C1.66 3.67 2.32 3.34 3 3 C2.01 2.67 1.02 2.34 0 2 C0 1.34 0 0.68 0 0 Z " fill="#F3D4E5" transform="translate(132,89)"/>
<path d="M0 0 C4 0 4 0 5.75 1.5 C6.36875 2.2425 6.36875 2.2425 7 3 C7 2.34 7 1.68 7 1 C8.65 1 10.3 1 12 1 C12.33 1.99 12.66 2.98 13 4 C12.01 4.33 11.02 4.66 10 5 C9.443125 5.20625 8.88625 5.4125 8.3125 5.625 C4.7640564 6.20042329 1.54750675 5.53212601 -2 5 C-2 6.98 -2 8.96 -2 11 C-2.66 11 -3.32 11 -4 11 C-4 9.02 -4 7.04 -4 5 C-4.639375 4.87625 -5.27875 4.7525 -5.9375 4.625 C-6.618125 4.41875 -7.29875 4.2125 -8 4 C-8.33 3.34 -8.66 2.68 -9 2 C-4.545 1.505 -4.545 1.505 0 1 C0 0.67 0 0.34 0 0 Z " fill="#6E6761" transform="translate(99,18)"/>
<path d="M0 0 C0.66 0 1.32 0 2 0 C2.16811728 2.74991832 2.3345481 5.49992112 2.5 8.25 C2.54769531 9.02730469 2.59539062 9.80460937 2.64453125 10.60546875 C2.68964844 11.35957031 2.73476562 12.11367188 2.78125 12.890625 C2.82314453 13.58188477 2.86503906 14.27314453 2.90820312 14.98535156 C3.1118198 19.45408772 2.67822694 23.59152491 2 28 C1.34 28 0.68 28 0 28 C-1.32368341 18.57130123 -0.71960516 9.44343382 0 0 Z " fill="#817474" transform="translate(95,33)"/>
<path d="M0 0 C2.20927044 0.2844814 4.41738979 0.5779096 6.625 0.875 C8.46964844 1.11863281 8.46964844 1.11863281 10.3515625 1.3671875 C13.73961517 1.95483689 16.77698651 2.81988122 20 4 C19.01 5.485 19.01 5.485 18 7 C17.154375 6.7834375 16.30875 6.566875 15.4375 6.34375 C9.13485921 4.79673817 3.49034301 3.61821512 -3 4 C-2.01 2.68 -1.02 1.36 0 0 Z " fill="#E18CBC" transform="translate(57,26)"/>
<path d="M0 0 C2.33294775 -0.04241723 4.66702567 -0.04092937 7 0 C8 1 8 1 8.0625 4.5625 C8.041875 5.696875 8.02125 6.83125 8 8 C7.34 8 6.68 8 6 8 C6 7.34 6 6.68 6 6 C3.69 6.33 1.38 6.66 -1 7 C-0.67 4.69 -0.34 2.38 0 0 Z " fill="#DB86B7" transform="translate(39,19)"/>
<path d="M0 0 C2.64 0 5.28 0 8 0 C8 1.98 8 3.96 8 6 C5.50907189 7.24546405 4.58919267 6.7767578 2 6 C2 7.98 2 9.96 2 12 C1.67 12 1.34 12 1 12 C0.67 8.04 0.34 4.08 0 0 Z " fill="#3A2422" transform="translate(92,4)"/>
<path d="M0 0 C0.66 0.33 1.32 0.66 2 1 C1.34 2.98 0.68 4.96 0 7 C-1.98 7.33 -3.96 7.66 -6 8 C-6 7.34 -6 6.68 -6 6 C-6.66 6 -7.32 6 -8 6 C-8.33 4.35 -8.66 2.7 -9 1 C-8.443125 1.20625 -7.88625 1.4125 -7.3125 1.625 C-4.34503413 2.10621068 -2.72662502 1.14805264 0 0 Z " fill="#F4D8E8" transform="translate(33,85)"/>
<path d="M0 0 C0.88042969 0.49371094 1.76085937 0.98742187 2.66796875 1.49609375 C3.84095197 2.14358049 5.01413997 2.79069636 6.1875 3.4375 C7.33605469 4.07558594 8.48460938 4.71367188 9.66796875 5.37109375 C12.56550257 6.78759035 14.83194128 7.57639893 18 8 C17.01 8.495 17.01 8.495 16 9 C14.86649466 11.01669827 14.86649466 11.01669827 14 13 C11.84741212 11.40427074 9.70312666 9.7991341 7.5625 8.1875 C6.95083984 7.73568359 6.33917969 7.28386719 5.70898438 6.81835938 C1.11328125 3.33984375 1.11328125 3.33984375 0 0 Z " fill="#ECE5E7" transform="translate(72,78)"/>
<path d="M0 0 C0.61875 0.185625 1.2375 0.37125 1.875 0.5625 C4.04160178 1.23686176 4.04160178 1.23686176 6 0 C4.1582484 4.68809498 0.88451823 7.08072281 -3.5625 9.25 C-6 10 -6 10 -10 10 C-10 9.34 -10 8.68 -10 8 C-6.7 6.35 -3.4 4.7 0 3 C0 2.01 0 1.02 0 0 Z " fill="#201611" transform="translate(115,75)"/>
<path d="M0 0 C2.51054905 0.1529647 4.99888525 0.25695178 7.51171875 0.31640625 C8.23994339 0.33718735 8.96816803 0.35796844 9.71846008 0.37937927 C12.04137875 0.44468746 14.36440906 0.50367237 16.6875 0.5625 C18.26368335 0.60570305 19.83985548 0.64931792 21.41601562 0.69335938 C25.27722975 0.8003496 29.13855603 0.90166961 33 1 C33 1.33 33 1.66 33 2 C19.47 2 5.94 2 -8 2 C-8 1.34 -8 0.68 -8 0 C-4.71303767 -0.79953138 -3.28976808 -1.09658936 0 0 Z " fill="#F1CCE1" transform="translate(118,15)"/>
<path d="M0 0 C1.375 2 1.375 2 2 4 C1.67 4.66 1.34 5.32 1 6 C-2.93619738 5.43768609 -5.79192446 4.38314183 -9 2 C-9 1.01 -9 0.02 -9 -1 C-5.39482618 -2.33524956 -3.34159621 -1.84667159 0 0 Z " fill="#453F3B" transform="translate(116,22)"/>
<path d="M0 0 C2.97 0.495 2.97 0.495 6 1 C6.375 3.1875 6.375 3.1875 6 6 C3.3125 8.875 3.3125 8.875 0 11 C-2.875 10.8125 -2.875 10.8125 -5 10 C-2.03716687 7.61327331 0.94270509 5.2646629 4 3 C2.35 2.67 0.7 2.34 -1 2 C-0.67 1.34 -0.34 0.68 0 0 Z " fill="#E98DC3" transform="translate(68,40)"/>
<path d="M0 0 C0.66 0 1.32 0 2 0 C2 0.99 2 1.98 2 3 C2.66 3 3.32 3 4 3 C4.33 3.66 4.66 4.32 5 5 C5.66 4.67 6.32 4.34 7 4 C6.67 4.99 6.34 5.98 6 7 C5.01 7 4.02 7 3 7 C2.67 7.66 2.34 8.32 2 9 C2 8.34 2 7.68 2 7 C1.34 7 0.68 7 0 7 C-0.33 7.66 -0.66 8.32 -1 9 C-1.66 8.34 -2.32 7.68 -3 7 C-3 6.01 -3 5.02 -3 4 C-2.34 4 -1.68 4 -1 4 C-0.67 2.68 -0.34 1.36 0 0 Z " fill="#F2CDE2" transform="translate(140,82)"/>
<path d="M0 0 C2.88437779 1.29299694 4.87219421 2.65941363 7 5 C6.01773438 5.46921875 5.03546875 5.9384375 4.0234375 6.421875 C0.89436926 8.58150622 0.89436926 8.58150622 0.50488281 11.01757812 C0.40920924 13.45159604 0.47684346 15.81871322 0.625 18.25 C0.65207031 19.09046875 0.67914063 19.9309375 0.70703125 20.796875 C0.77755891 22.86568634 0.88517633 24.93317393 1 27 C0.34 27 -0.32 27 -1 27 C-1.08710289 23.89601022 -1.14042309 20.79233452 -1.1875 17.6875 C-1.21263672 16.80642578 -1.23777344 15.92535156 -1.26367188 15.01757812 C-1.27333984 14.17001953 -1.28300781 13.32246094 -1.29296875 12.44921875 C-1.3086792 11.66893311 -1.32438965 10.88864746 -1.34057617 10.0847168 C-0.91847304 7.50096147 0.01489942 6.63707833 2 5 C1.34 3.35 0.68 1.7 0 0 Z " fill="#3F2729" transform="translate(39,35)"/>
<path d="M0 0 C0.93972656 0.12568359 0.93972656 0.12568359 1.8984375 0.25390625 C3.12433594 0.40666016 3.12433594 0.40666016 4.375 0.5625 C5.59316406 0.71912109 5.59316406 0.71912109 6.8359375 0.87890625 C9.04899186 1.18237328 9.04899186 1.18237328 11 0 C10.67 1.32 10.34 2.64 10 4 C6.04 4 2.08 4 -2 4 C-2 3.34 -2 2.68 -2 2 C-1.34 2 -0.68 2 0 2 C0 1.34 0 0.68 0 0 Z " fill="#B37C97" transform="translate(45,99)"/>
<path d="M0 0 C0.66 0 1.32 0 2 0 C2 0.99 2 1.98 2 3 C2.99 3.33 3.98 3.66 5 4 C5 4.99 5 5.98 5 7 C5.3062434 8.33981486 5.63451555 9.67511887 6 11 C5.01 11 4.02 11 3 11 C2.67 11.66 2.34 12.32 2 13 C1.47212358 11.02270019 0.95287097 9.04309608 0.4375 7.0625 C0.00244141 5.40927734 0.00244141 5.40927734 -0.44140625 3.72265625 C-0.62574219 2.82417969 -0.81007812 1.92570312 -1 1 C-0.67 0.67 -0.34 0.34 0 0 Z " fill="#49403B" transform="translate(61,69)"/>
<path d="M0 0 C1.6875 0.6875 1.6875 0.6875 4 2 C4.59941406 2.33902344 5.19882812 2.67804687 5.81640625 3.02734375 C7.54858787 4.01066301 9.27470922 5.00463994 11 6 C9.02 6.99 9.02 6.99 7 8 C6.34 7.34 5.68 6.68 5 6 C5 7.32 5 8.64 5 10 C4.01 9.67 3.02 9.34 2 9 C2 7.02 2 5.04 2 3 C0.68 3 -0.64 3 -2 3 C-2 2.34 -2 1.68 -2 1 C-1.34 0.67 -0.68 0.34 0 0 Z " fill="#241B14" transform="translate(43,47)"/>
<path d="M0 0 C1.875 0.3125 1.875 0.3125 4 1 C6 4 6 4 6 6 C6.99 6 7.98 6 9 6 C7.25 8.0625 7.25 8.0625 5 10 C2.75 9.75 2.75 9.75 1 9 C1.33 7.68 1.66 6.36 2 5 C0.68 4.01 -0.64 3.02 -2 2 C-1.34 2 -0.68 2 0 2 C0 1.34 0 0.68 0 0 Z " fill="#2D2420" transform="translate(85,91)"/>
<path d="M0 0 C1.3303125 0.433125 1.3303125 0.433125 2.6875 0.875 C8.33637725 2.50897276 14.18948553 3.17866412 20 4 C20 4.33 20 4.66 20 5 C17.60385874 5.05425226 15.20896147 5.09379027 12.8125 5.125 C11.80219727 5.15013672 11.80219727 5.15013672 10.77148438 5.17578125 C6.71192193 5.21538674 3.65001185 4.80020002 0 3 C0 2.01 0 1.02 0 0 Z " fill="#463D36" transform="translate(83,79)"/>
<path d="M0 0 C3.15330554 0.60694155 5.18888867 1.6416665 7.75 3.5625 C8.67039062 4.24505859 8.67039062 4.24505859 9.609375 4.94140625 C10.29773438 5.46541016 10.29773438 5.46541016 11 6 C10.67 6.99 10.34 7.98 10 9 C7.69 7.35 5.38 5.7 3 4 C2.01 5.32 1.02 6.64 0 8 C0 5.36 0 2.72 0 0 Z " fill="#48403B" transform="translate(71,72)"/>
<path d="M0 0 C0.66 0 1.32 0 2 0 C2.66 1.98 3.32 3.96 4 6 C1.03 8.475 1.03 8.475 -2 11 C-3.10102197 7.69693408 -2.95067299 6.28414305 -2 3 C-1.34 2.67 -0.68 2.34 0 2 C0 1.34 0 0.68 0 0 Z " fill="#E9C0D6" transform="translate(33,74)"/>
<path d="M0 0 C0 2.68011193 -0.3612831 4.44513241 -1 7 C-1.2143934 8.74690919 -1.40107653 10.4974023 -1.5625 12.25 C-1.64628906 13.14203125 -1.73007812 14.0340625 -1.81640625 14.953125 C-1.87699219 15.62859375 -1.93757813 16.3040625 -2 17 C-0.68 17.33 0.64 17.66 2 18 C1.34 18.66 0.68 19.32 0 20 C-0.99 20 -1.98 20 -3 20 C-3.08089542 17.22858283 -3.14044062 14.45952181 -3.1875 11.6875 C-3.22520508 10.50897461 -3.22520508 10.50897461 -3.26367188 9.30664062 C-3.27333984 8.54931641 -3.28300781 7.79199219 -3.29296875 7.01171875 C-3.3086792 6.31522217 -3.32438965 5.61872559 -3.34057617 4.90112305 C-2.90238443 2.45510217 -1.86562642 1.57297914 0 0 Z " fill="#D182AD" transform="translate(42,41)"/>
<path d="M0 0 C0.55429688 0.37253906 1.10859375 0.74507813 1.6796875 1.12890625 C2.76636719 1.83853516 2.76636719 1.83853516 3.875 2.5625 C4.59429687 3.03816406 5.31359375 3.51382813 6.0546875 4.00390625 C6.69664063 4.33261719 7.33859375 4.66132812 8 5 C8.66 4.67 9.32 4.34 10 4 C9.67 5.32 9.34 6.64 9 8 C5.23293356 7.47679633 2.72611199 6.72611199 0 4 C0 2.68 0 1.36 0 0 Z " fill="#1F1711" transform="translate(73,75)"/>
<path d="M0 0 C1.9375 0.0625 1.9375 0.0625 4 1 C5.25 4.0625 5.25 4.0625 6 7 C5.01 7.33 4.02 7.66 3 8 C0.52557871 5.84832931 -0.56238367 4.28212246 -1 1 C-0.67 0.67 -0.34 0.34 0 0 Z " fill="#443A35" transform="translate(56,38)"/>
<path d="M0 0 C3 0 3 0 5.6875 2.375 C8 5 8 5 8 7 C5.13275314 6.42655063 4.1385485 6.1385485 2 4 C1.67 4.66 1.34 5.32 1 6 C0.34 6 -0.32 6 -1 6 C-1.33 4.68 -1.66 3.36 -2 2 C-1.34 2 -0.68 2 0 2 C0 1.34 0 0.68 0 0 Z " fill="#20180E" transform="translate(45,40)"/>
<path d="M0 0 C6.6 0.66 13.2 1.32 20 2 C20 2.99 20 3.98 20 5 C13.4 3.68 6.8 2.36 0 1 C0 0.67 0 0.34 0 0 Z " fill="#392926" transform="translate(57,25)"/>
<path d="M0 0 C0.66 0 1.32 0 2 0 C6 4.47058824 6 4.47058824 6 7 C2.31245243 6.50168276 0.39509338 5.89932357 -2 3 C-1 1 -1 1 0 0 Z " fill="#F7E2ED" transform="translate(143,89)"/>
<path d="M0 0 C2.97 0.495 2.97 0.495 6 1 C3.44977144 3.97526665 0.59706474 5.50122302 -3 7 C-3.99 6.67 -4.98 6.34 -6 6 C-5.67 5.34 -5.34 4.68 -5 4 C-2.4375 3.375 -2.4375 3.375 0 3 C0 2.01 0 1.02 0 0 Z " fill="#524A44" transform="translate(110,76)"/>
<path d="M0 0 C5.08938811 1.59043379 8.87456643 4.7446951 13 8 C12.67 8.99 12.34 9.98 12 11 C11.34 11 10.68 11 10 11 C9.608125 10.278125 9.21625 9.55625 8.8125 8.8125 C6.73504044 5.58885585 4.58927198 4.0853208 1.42578125 2.015625 C0.95527344 1.68046875 0.48476562 1.3453125 0 1 C0 0.67 0 0.34 0 0 Z " fill="#1B130F" transform="translate(73,82)"/>
<path d="M0 0 C2.97 0 5.94 0 9 0 C9 0.99 9 1.98 9 3 C6.03 3 3.06 3 0 3 C0 2.01 0 1.02 0 0 Z " fill="#E392C0" transform="translate(92,63)"/>
<path d="M0 0 C0 0.66 0 1.32 0 2 C-0.66 2.66 -1.32 3.32 -2 4 C-1.01 4.33 -0.02 4.66 1 5 C0.67 5.66 0.34 6.32 0 7 C-1.32 7 -2.64 7 -4 7 C-4.33 5.02 -4.66 3.04 -5 1 C-3 0 -3 0 0 0 Z " fill="#65414C" transform="translate(39,30)"/>
<path d="M0 0 C-8.02058824 4.15882353 -8.02058824 4.15882353 -11.3125 3.625 C-11.869375 3.41875 -12.42625 3.2125 -13 3 C-8.1942374 -0.17180332 -5.81427302 -1.70173845 0 0 Z " fill="#473F38" transform="translate(91,22)"/>
<path d="M0 0 C0.66 0.99 1.32 1.98 2 3 C2.99 2.67 3.98 2.34 5 2 C5 2.66 5 3.32 5 4 C4.195625 4.268125 3.39125 4.53625 2.5625 4.8125 C1.716875 5.204375 0.87125 5.59625 0 6 C-0.33 6.99 -0.66 7.98 -1 9 C-1 7.35 -1 5.7 -1 4 C-1.99 3.67 -2.98 3.34 -4 3 C-2.68 2.01 -1.36 1.02 0 0 Z " fill="#2C241F" transform="translate(71,61)"/>
<path d="M0 0 C0.66 0.33 1.32 0.66 2 1 C2.625 4.0625 2.625 4.0625 3 7 C-0.26954202 6.43628586 -1.82575883 5.50037734 -4 3 C-2.68 2.01 -1.36 1.02 0 0 Z " fill="#B2AFAD" transform="translate(82,25)"/>
<path d="M0 0 C2.1385485 2.1385485 2.42655063 3.13275314 3 6 C1.35 6.33 -0.3 6.66 -2 7 C-2.66 6.01 -3.32 5.02 -4 4 C-2.68 2.68 -1.36 1.36 0 0 Z " fill="#332A22" transform="translate(120,70)"/>
<path d="M0 0 C1.98 0 3.96 0 6 0 C6 1.32 6 2.64 6 4 C4.02 4 2.04 4 0 4 C0 2.68 0 1.36 0 0 Z " fill="#C1779E" transform="translate(93,5)"/>
<path d="M0 0 C2.31 0.66 4.62 1.32 7 2 C5.35 3.65 3.7 5.3 2 7 C1.34 6.67 0.68 6.34 0 6 C0 4 0 2 0 0 Z " fill="#C578A2" transform="translate(66,40)"/>
<path d="M0 0 C2 1 2 1 3.125 3.25 C4.00513321 6.01613295 4.1645438 8.12048351 4 11 C3.67 10.01 3.34 9.02 3 8 C2.34 8 1.68 8 1 8 C0.26919734 6.02253397 -0.39421747 4.01927511 -1 2 C-0.67 1.34 -0.34 0.68 0 0 Z " fill="#4A413A" transform="translate(124,37)"/>
<path d="M0 0 C3.375 -0.125 3.375 -0.125 7 0 C7.66 0.66 8.32 1.32 9 2 C7.3125 3.1875 7.3125 3.1875 5 4 C2.25 2.6875 2.25 2.6875 0 1 C0 0.67 0 0.34 0 0 Z " fill="#EE96C9" transform="translate(68,29)"/>
<path d="M0 0 C1.670625 0.061875 1.670625 0.061875 3.375 0.125 C0.375 1.625 0.375 1.625 -2.625 3.125 C-3.75850534 5.14169827 -3.75850534 5.14169827 -4.625 7.125 C-4.955 7.125 -5.285 7.125 -5.625 7.125 C-5.75 4.75 -5.75 4.75 -5.625 2.125 C-3.625 0.125 -3.625 0.125 0 0 Z " fill="#382722" transform="translate(39.625,17.875)"/>
<path d="M0 0 C0.66 0 1.32 0 2 0 C2 2.31 2 4.62 2 7 C1.34 7 0.68 7 0 7 C-0.33 6.01 -0.66 5.02 -1 4 C-1.99 4.495 -1.99 4.495 -3 5 C-1.125 1.125 -1.125 1.125 0 0 Z " fill="#F7E9F0" transform="translate(78,31)"/>
<path d="M0 0 C0.33 0.66 0.66 1.32 1 2 C1.66 2 2.32 2 3 2 C3 1.34 3 0.68 3 0 C4.32 0.66 5.64 1.32 7 2 C4.525 3.485 4.525 3.485 2 5 C1.34 4.34 0.68 3.68 0 3 C0 2.01 0 1.02 0 0 Z " fill="#8D8182" transform="translate(42,61)"/>
<path d="M0 0 C1.65 0 3.3 0 5 0 C4.75 1.875 4.75 1.875 4 4 C1.9375 5.25 1.9375 5.25 0 6 C0 4.02 0 2.04 0 0 Z " fill="#ECDEE5" transform="translate(56,49)"/>
<path d="M0 0 C2.88437779 1.29299694 4.87219421 2.65941363 7 5 C6.01 5.66 5.02 6.32 4 7 C1.77810176 4.77810176 1.07401108 2.91517292 0 0 Z " fill="#33231E" transform="translate(39,35)"/>
<path d="M0 0 C0.66 0.66 1.32 1.32 2 2 C3.32 1.34 4.64 0.68 6 0 C4.68 1.65 3.36 3.3 2 5 C0.68 4.67 -0.64 4.34 -2 4 C-1.34 2.68 -0.68 1.36 0 0 Z " fill="#925973" transform="translate(88,96)"/>
<path d="M0 0 C-1.25 1.5 -1.25 1.5 -3 3 C-4.32 3 -5.64 3 -7 3 C-7 2.34 -7 1.68 -7 1 C-3.375 -1.125 -3.375 -1.125 0 0 Z " fill="#180F09" transform="translate(112,82)"/>
<path d="M0 0 C4.75 1.875 4.75 1.875 7 3 C6.01 3.99 5.02 4.98 4 6 C2.62437146 4.71034824 1.29233607 3.37310707 0 2 C0 1.34 0 0.68 0 0 Z " fill="#F1C6DE" transform="translate(142,70)"/>
<path d="M0 0 C0.99 0.33 1.98 0.66 3 1 C3 1.99 3 2.98 3 4 C1.68 4.33 0.36 4.66 -1 5 C-1 1 -1 1 0 0 Z " fill="#231910" transform="translate(59,31)"/>
</svg>
