<?xml version="1.0" encoding="UTF-8"?>
<svg version="1.1" xmlns="http://www.w3.org/2000/svg" width="152" height="105">
<path d="M0 0 C5.61 0 11.22 0 17 0 C15.66666667 2.66666667 14.33333333 5.33333333 13 8 C13.43570313 8.38929687 13.87140625 8.77859375 14.3203125 9.1796875 C26.12283114 20.26690198 29.29160979 33.85258479 32.140625 49.31640625 C32.98604747 52.94019439 34.19175228 56.03845531 35.6875 59.4375 C39.01777085 67.65689189 39.76621821 76.6140418 36.97265625 85.1328125 C35.43504754 88.33889025 33.97664696 91.07969806 31.375 93.53125 C29.11418653 95.94620984 29.30030254 98.81679307 29 102 C31.97 102 34.94 102 38 102 C38 102.33 38 102.66 38 103 C3.18898123 103.56681268 3.18898123 103.56681268 -7 99 C-7.33 99.66 -7.66 100.32 -8 101 C-5.03 101.33 -2.06 101.66 1 102 C1 102.33 1 102.66 1 103 C-18.14 103 -37.28 103 -57 103 C-57 102.67 -57 102.34 -57 102 C-50.4 102 -43.8 102 -37 102 C-40.66958637 93.74343068 -43.2600393 88.03235623 -50.9375 83.5625 C-58.67854767 79.03332106 -63.7503689 71.68850053 -66.58203125 63.26953125 C-68.64757329 52.053831 -67.7081745 40.28277119 -61.45703125 30.61328125 C-59.73854917 28.29706627 -57.92478788 26.14703143 -56 24 C-55.42636719 23.33355469 -54.85273437 22.66710937 -54.26171875 21.98046875 C-42.71537213 9.44514169 -26.61241173 1.83062059 -9.609375 0.98046875 C-6.29190511 1.00530011 -3.24838596 1.33555742 0 2 C0 1.34 0 0.68 0 0 Z M-19 100 C-18 102 -18 102 -18 102 Z " fill="#E9F4D8" transform="translate(91,2)"/>
<path d="M0 0 C0 3.56422956 -0.84269616 4.65332498 -2.8125 7.5625 C-3.33457031 8.34753906 -3.85664062 9.13257813 -4.39453125 9.94140625 C-6 12 -6 12 -9 14 C-9.268125 14.804375 -9.53625 15.60875 -9.8125 16.4375 C-11.4311957 19.93047494 -13.5314942 20.5673563 -17 22 C-17 22.66 -17 23.32 -17 24 C-17.125 26 -17.125 26 -18 28 C-20.9375 29.3125 -20.9375 29.3125 -24 30 C-24.66 29.67 -25.32 29.34 -26 29 C-26.33 31.64 -26.66 34.28 -27 37 C-26.43152344 37.17015625 -25.86304688 37.3403125 -25.27734375 37.515625 C-20.04554914 39.15765737 -15.7019458 41.19691693 -11 44 C-10.071875 44.268125 -9.14375 44.53625 -8.1875 44.8125 C-6 46 -6 46 -4.75 49.375 C-4.5025 50.57125 -4.255 51.7675 -4 53 C-3.82726562 53.639375 -3.65453125 54.27875 -3.4765625 54.9375 C-1.75303047 62.39672058 -2.9788211 68.24441402 -6.62890625 74.8828125 C-8.16288018 77.25151299 -9.97565521 79.0454602 -12 81 C-13.26784124 84.13350717 -13.26784124 84.13350717 -14 87 C-11.03 87.33 -8.06 87.66 -5 88 C-5 88.33 -5 88.66 -5 89 C-24.14 89 -43.28 89 -63 89 C-63 88.67 -63 88.34 -63 88 C-56.4 88 -49.8 88 -43 88 C-46.58172873 79.92250847 -46.58172873 79.92250847 -51.671875 73.609375 C-55.50418492 68.96551709 -55.27088625 63.68861135 -55 58 C-54.690625 56.6078125 -54.690625 56.6078125 -54.375 55.1875 C-53.69328085 52.71549154 -53.69328085 52.71549154 -56 50 C-56.60003647 47.31809785 -56.77789092 44.75415263 -57 42 C-56 41 -56 41 -52.8125 40.875 C-49 41 -49 41 -46.0625 41.75 C-41.63896559 42.11110485 -38.73659633 40.20971306 -35 38 C-35 37.34 -35 36.68 -35 36 C-35.99 36 -36.98 36 -38 36 C-36.68 30.72 -35.36 25.44 -34 20 C-30 19 -30 19 -28 20 C-28.20625 19.071875 -28.4125 18.14375 -28.625 17.1875 C-29 14 -29 14 -27 11 C-26.34 11 -25.68 11 -25 11 C-24.91995518 14.5219721 -24.95994298 17.61981469 -26 21 C-25.34 21 -24.68 21 -24 21 C-23.319375 19.906875 -22.63875 18.81375 -21.9375 17.6875 C-19.28540402 13.77250117 -16.67103784 12.76427147 -12.18359375 11.60546875 C-7.40345827 10.28002868 -5.40198201 8.59406229 -2.75 4.375 C-2.22921875 3.55773437 -1.7084375 2.74046875 -1.171875 1.8984375 C-0.78515625 1.27195312 -0.3984375 0.64546875 0 0 Z M-25 86 C-24 88 -24 88 -24 88 Z " fill="#B6DA7D" transform="translate(97,16)"/>
<path d="M0 0 C-0.28482368 1.41805831 -0.57818144 2.83440379 -0.875 4.25 C-1.03742188 5.03890625 -1.19984375 5.8278125 -1.3671875 6.640625 C-2.55144181 11.05599292 -2.55144181 11.05599292 -4 13 C-7.01171875 13.94921875 -7.01171875 13.94921875 -10.6875 14.6875 C-17.32655175 16.37285024 -20.24159534 18.4920914 -23.9609375 24.171875 C-24.30382812 24.77515625 -24.64671875 25.3784375 -25 26 C-23.77119784 27.2941742 -23.77119784 27.2941742 -21 29 C-21.495 30.485 -21.495 30.485 -22 32 C-23.65 32 -25.3 32 -27 32 C-28.65 37.28 -30.3 42.56 -32 48 C-31.01 48 -30.02 48 -29 48 C-29 48.66 -29 49.32 -29 50 C-27.68 50.33 -26.36 50.66 -25 51 C-26.72856459 51.4813341 -28.45788071 51.95996971 -30.1875 52.4375 C-31.15042969 52.70433594 -32.11335938 52.97117188 -33.10546875 53.24609375 C-40.60248447 55.19875776 -40.60248447 55.19875776 -43 54 C-45.3329866 53.95977609 -47.66706666 53.95679753 -50 54 C-49.68991116 55.60463449 -49.37683713 57.20869231 -49.0625 58.8125 C-48.80146484 60.15248047 -48.80146484 60.15248047 -48.53515625 61.51953125 C-48.02258847 64.11397171 -48.02258847 64.11397171 -47 67 C-47.33 67.99 -47.66 68.98 -48 70 C-48.14632404 74.53604515 -48.10636545 78.57453821 -47 83 C-52.9716375 81.68915274 -56.30553623 78.6719228 -60 74 C-67.04302673 62.81958986 -68.95336053 51.7785699 -66.3515625 38.75390625 C-64.16945066 32.17959494 -60.59264077 27.12292506 -56 22 C-55.42636719 21.33355469 -54.85273437 20.66710937 -54.26171875 19.98046875 C-43.88390405 8.713762 -29.79573162 1.64285713 -14.75 -0.875 C-9.77432963 -1.04085568 -4.93759618 -0.58997013 0 0 Z " fill="#E8F3D7" transform="translate(91,4)"/>
<path d="M0 0 C2.375 0.1875 2.375 0.1875 5 1 C5.309375 1.78375 5.61875 2.5675 5.9375 3.375 C7.407195 7.00601117 9.4980218 7.50979651 13 9 C14 10 14 10 14.25 13.125 C13.96525447 17.53855564 12.92474062 20.07032123 11 24 C11.99 23.67 12.98 23.34 14 23 C15 24 15 24 15.25 26.875 C15.21692253 30.14305403 14.51656458 32.88183773 13.5625 36 C11.51204955 42.93477816 11.2815133 49.80684971 11 57 C13.97 57 16.94 57 20 57 C20 57.33 20 57.66 20 58 C12.08 58 4.16 58 -4 58 C-4.33 54.596875 -4.66 51.19375 -5 47.6875 C-5.10441406 46.61846436 -5.20882812 45.54942871 -5.31640625 44.44799805 C-5.39761719 43.60277588 -5.47882813 42.75755371 -5.5625 41.88671875 C-5.64628906 41.02264404 -5.73007813 40.15856934 -5.81640625 39.26831055 C-6 37 -6 37 -6 34 C-6.165 33.2575 -6.33 32.515 -6.5 31.75 C-7.09744828 28.46403444 -7.06534741 25.33271778 -7 22 C-6.01 21.67 -5.02 21.34 -4 21 C-2.68 22.32 -1.36 23.64 0 25 C-0.144375 24.33355469 -0.28875 23.66710937 -0.4375 22.98046875 C-1.76953787 16.36653074 -2.77548287 9.7512626 -2 3 C-1.34 2.01 -0.68 1.02 0 0 Z " fill="#A1C070" transform="translate(109,47)"/>
<path d="M0 0 C0.495 0.99 0.495 0.99 1 2 C1.99 2.33 2.98 2.66 4 3 C6.90468113 8.91694305 8.06730005 14.43808116 7 21 C4.95245215 26.65513216 2.31359621 30.83514849 -2 35 C-3.26784124 38.13350717 -3.26784124 38.13350717 -4 41 C-1.03 41.33 1.94 41.66 5 42 C5 42.33 5 42.66 5 43 C-14.14 43 -33.28 43 -53 43 C-53 42.67 -53 42.34 -53 42 C-46.4 42 -39.8 42 -33 42 C-35.92325648 34.85101121 -35.92325648 34.85101121 -40 29 C-37.5048811 29.41585315 -35.40200181 29.77570714 -33.1796875 31.015625 C-27.17228329 33.72864626 -19.55951318 32.53328299 -13.5625 30.3125 C-9.55092313 28.47680243 -6.77049599 26.50386258 -4 23 C-3.236875 22.071875 -2.47375 21.14375 -1.6875 20.1875 C1.57177033 14.34961017 0.27872498 6.44938633 0 0 Z M-15 40 C-14 42 -14 42 -14 42 Z " fill="#788D4B" transform="translate(87,62)"/>
<path d="M0 0 C5.61 0 11.22 0 17 0 C15.35416747 3.29166506 14.28818312 4.94090348 11.875 7.5 C8.81643148 10.86885808 6.45410158 14.38192643 4.0625 18.25 C-0.18442187 24.77235197 -3.92198692 26.9020734 -11.25 28.875 C-14.94643741 30.38717894 -16.07399912 32.59245998 -18 36 C-18.99 35.67 -19.98 35.34 -21 35 C-20.34 31.7 -19.68 28.4 -19 25 C-19.66 25 -20.32 25 -21 25 C-21.28875 25.61875 -21.5775 26.2375 -21.875 26.875 C-23 29 -23 29 -25 31 C-25 25.86106701 -23.4196983 23.96955841 -20.27734375 20.0625 C-15.78945751 15.99799925 -9.92508739 15 -4 15 C-3.51787786 13.43840941 -3.03944127 11.87568072 -2.5625 10.3125 C-2.29566406 9.44238281 -2.02882813 8.57226562 -1.75390625 7.67578125 C-1.04214945 5.1495978 -0.51471428 2.5735714 0 0 Z " fill="#F8F8F8" transform="translate(91,2)"/>
<path d="M0 0 C0 3.56422956 -0.84269616 4.65332498 -2.8125 7.5625 C-3.33457031 8.34753906 -3.85664062 9.13257813 -4.39453125 9.94140625 C-6 12 -6 12 -9 14 C-9.268125 14.804375 -9.53625 15.60875 -9.8125 16.4375 C-11.4311957 19.93047494 -13.5314942 20.5673563 -17 22 C-17 22.66 -17 23.32 -17 24 C-17.125 26 -17.125 26 -18 28 C-20.9375 29.3125 -20.9375 29.3125 -24 30 C-24.66 29.67 -25.32 29.34 -26 29 C-26.185625 30.27875 -26.37125 31.5575 -26.5625 32.875 C-26.66691406 33.59429687 -26.77132812 34.31359375 -26.87890625 35.0546875 C-27.1684297 37.08140667 -27.1684297 37.08140667 -26 39 C-28.97 38.67 -31.94 38.34 -35 38 C-35 37.34 -35 36.68 -35 36 C-35.99 36 -36.98 36 -38 36 C-36.68 30.72 -35.36 25.44 -34 20 C-30 19 -30 19 -28 20 C-28.20625 19.071875 -28.4125 18.14375 -28.625 17.1875 C-29 14 -29 14 -27 11 C-26.34 11 -25.68 11 -25 11 C-24.91995518 14.5219721 -24.95994298 17.61981469 -26 21 C-25.34 21 -24.68 21 -24 21 C-23.319375 19.906875 -22.63875 18.81375 -21.9375 17.6875 C-19.28540402 13.77250117 -16.67103784 12.76427147 -12.18359375 11.60546875 C-7.40345827 10.28002868 -5.40198201 8.59406229 -2.75 4.375 C-2.22921875 3.55773437 -1.7084375 2.74046875 -1.171875 1.8984375 C-0.78515625 1.27195312 -0.3984375 0.64546875 0 0 Z " fill="#A8A7A2" transform="translate(97,16)"/>
<path d="M0 0 C5.28 0 10.56 0 16 0 C16 6.27 16 12.54 16 19 C18.97 19 21.94 19 25 19 C25 19.33 25 19.66 25 20 C17.08 20 9.16 20 1 20 C0.22857097 13.05713871 -0.08739683 6.90434993 0 0 Z " fill="#0D0E09" transform="translate(104,85)"/>
<path d="M0 0 C4.625 0.77083333 4.625 0.77083333 6.6875 2.03125 C10.00235228 3.41990433 13.22204128 3.21169842 16.75 3.125 C17.79607422 3.11146484 17.79607422 3.11146484 18.86328125 3.09765625 C20.57566958 3.07419888 22.28788004 3.03833104 24 3 C25.33332095 5.6666419 24.67102033 7.16680303 24 10 C24.66 10 25.32 10 26 10 C26 9.01 26 8.02 26 7 C32.0546875 6.8046875 32.0546875 6.8046875 34 7 C36 9 36 9 36 12 C38.97 12.33 41.94 12.66 45 13 C45 13.33 45 13.66 45 14 C25.86 14 6.72 14 -13 14 C-13 13.67 -13 13.34 -13 13 C-6.4 13 0.2 13 7 13 C4.07674352 5.85101121 4.07674352 5.85101121 0 0 Z M25 11 C26 13 26 13 26 13 Z " fill="#798E4D" transform="translate(47,91)"/>
<path d="M0 0 C0.66 0 1.32 0 2 0 C2 0.99 2 1.98 2 3 C2.66 3 3.32 3 4 3 C4 2.34 4 1.68 4 1 C4.66 1 5.32 1 6 1 C6.12375 1.598125 6.2475 2.19625 6.375 2.8125 C6.95475985 5.26231348 6.95475985 5.26231348 9 8 C9.20497101 10.80127043 9.26272884 12.47454232 8 15 C8.66 15.33 9.32 15.66 10 16 C6.1496895 18.56687367 4.41430237 17.83288724 0 17 C0 16.34 0 15.68 0 15 C-1.44754255 16.44754255 -1.55733561 18.03962913 -2 20 C-5.16727335 14.8531808 -5.35050464 10.841744 -5 5 C-3.35 4.34 -1.7 3.68 0 3 C0 2.01 0 1.02 0 0 Z " fill="#7B9354" transform="translate(48,71)"/>
<path d="M0 0 C1.67542976 0.28604898 3.34385343 0.61781233 5 1 C5 2.65 5 4.3 5 6 C5.66 6 6.32 6 7 6 C6.57674417 7.79508501 6.13589265 9.5860283 5.6875 11.375 C5.44386719 12.37273438 5.20023438 13.37046875 4.94921875 14.3984375 C4 17 4 17 1 19 C0.01 19 -0.98 19 -2 19 C-2 18.34 -2 17.68 -2 17 C-2.99 17 -3.98 17 -5 17 C-4.35841048 14.35307023 -3.71195217 11.70750071 -3.0625 9.0625 C-2.88009766 8.30775391 -2.69769531 7.55300781 -2.50976562 6.77539062 C-1.11328125 1.11328125 -1.11328125 1.11328125 0 0 Z " fill="#B3C695" transform="translate(64,35)"/>
<path d="M0 0 C0 0.33 0 0.66 0 1 C-1.34191406 1.11214844 -1.34191406 1.11214844 -2.7109375 1.2265625 C-11.50890422 2.18327103 -19.4513374 3.76429982 -25.5 10.7265625 C-26.74906483 12.48829158 -26.74906483 12.48829158 -28 15 C-31.17074863 12.54522686 -32.29522817 10.70601907 -32.8125 6.8125 C-32.874375 5.554375 -32.93625 4.29625 -33 3 C-32 2 -32 2 -28.8125 1.875 C-25 2 -25 2 -22 2.6875 C-18.62054904 3.03952614 -17.11634821 2.1789709 -14.14453125 0.703125 C-9.62781857 -0.7777644 -4.69674402 -0.20823003 0 0 Z " fill="#6B7C4F" transform="translate(73,55)"/>
<path d="M0 0 C1.65 0.33 3.3 0.66 5 1 C5.66 2.98 6.32 4.96 7 7 C6.360625 7.28875 5.72125 7.5775 5.0625 7.875 C2.84793921 8.82823451 2.84793921 8.82823451 2 11 C1.77141886 13.0374763 1.58975722 15.08040303 1.4375 17.125 C1.35371094 18.22070312 1.26992187 19.31640625 1.18359375 20.4453125 C1.12300781 21.28835937 1.06242187 22.13140625 1 23 C-1.64448544 18.23992621 -2.15037166 13.76603466 -2.1875 8.375 C-2.20167969 7.43398438 -2.21585937 6.49296875 -2.23046875 5.5234375 C-2 3 -2 3 0 0 Z " fill="#B8DD7E" transform="translate(109,47)"/>
<path d="M0 0 C2.4375 1.75 2.4375 1.75 4 4 C3.80984746 6.21844626 3.58477845 7.41522155 2 9 C-1.28249457 9.2917773 -3.40266819 9.29866591 -6.375 7.8125 C-8 6 -8 6 -8.25 3.3125 C-8.1675 2.549375 -8.085 1.78625 -8 1 C-5.15916359 -0.42041821 -3.14522722 -0.31452272 0 0 Z " fill="#BDE382" transform="translate(52,76)"/>
<path d="M0 0 C0.66 0.33 1.32 0.66 2 1 C2.42765417 7.41481258 0.85743168 12.88595404 -1 19 C-1.33 17.68 -1.66 16.36 -2 15 C-7.28 15 -12.56 15 -18 15 C-18.33 15.66 -18.66 16.32 -19 17 C-19 16.01 -19 15.02 -19 14 C-15.7 14 -12.4 14 -9 14 C-8.67 11.36 -8.34 8.72 -8 6 C-7.34 7.32 -6.68 8.64 -6 10 C-5.34 9.34 -4.68 8.68 -4 8 C-2.68 8 -1.36 8 0 8 C0.33 6.02 0.66 4.04 1 2 C0.34 1.67 -0.32 1.34 -1 1 C-0.67 0.67 -0.34 0.34 0 0 Z " fill="#91A76D" transform="translate(122,70)"/>
<path d="M0 0 C0.99 0.33 1.98 0.66 3 1 C3 7.33333333 3 13.66666667 3 20 C3.45375 19.505 3.9075 19.01 4.375 18.5 C6 17 6 17 8 17 C7.8125 19.875 7.8125 19.875 7 23 C4.5625 24.3125 4.5625 24.3125 2 25 C1.34 25.33 0.68 25.66 0 26 C0 17.42 0 8.84 0 0 Z " fill="#BBE07F" transform="translate(115,55)"/>
<path d="M0 0 C0.66 0 1.32 0 2 0 C2.12605042 5.54621849 2.12605042 5.54621849 1.375 8.25 C1.25125 8.8275 1.1275 9.405 1 10 C1.66 10.66 2.32 11.32 3 12 C2.67 12.66 2.34 13.32 2 14 C2.99 14.33 3.98 14.66 5 15 C5.33 15.99 5.66 16.98 6 18 C5.01 18.33 4.02 18.66 3 19 C2.34 18.67 1.68 18.34 1 18 C0.814375 19.27875 0.62875 20.5575 0.4375 21.875 C0.33308594 22.59429687 0.22867188 23.31359375 0.12109375 24.0546875 C-0.1684297 26.08140667 -0.1684297 26.08140667 1 28 C-0.65 28 -2.3 28 -4 28 C-4.33 27.34 -4.66 26.68 -5 26 C-4.34 25.67 -3.68 25.34 -3 25 C-2.12757089 22.95383439 -2.12757089 22.95383439 -1.4375 20.5625 C-0.06329114 16.12658228 -0.06329114 16.12658228 1 14 C0.34 14 -0.32 14 -1 14 C-1 2 -1 2 0 0 Z " fill="#BDBEB7" transform="translate(70,27)"/>
<path d="M0 0 C3.36900686 0.60160837 3.90787656 0.88996367 6.25 3.6875 C8.10260771 7.19422173 8.37076301 9.10698835 8 13 C5.125 13.125 5.125 13.125 2 13 C0 11 0 11 -0.1953125 8.3984375 C-0.17210937 7.40070313 -0.14890625 6.40296875 -0.125 5.375 C-0.10695312 4.37210938 -0.08890625 3.36921875 -0.0703125 2.3359375 C-0.04710937 1.56507812 -0.02390625 0.79421875 0 0 Z " fill="#768849" transform="translate(63,58)"/>
<path d="M0 0 C6.0546875 -0.1953125 6.0546875 -0.1953125 8 0 C10 2 10 2 10 5 C12.97 5.33 15.94 5.66 19 6 C19 6.33 19 6.66 19 7 C11.74 7 4.48 7 -3 7 C-2.67 5.68 -2.34 4.36 -2 3 C-1.34 3 -0.68 3 0 3 C0 2.01 0 1.02 0 0 Z M-1 4 C0 6 0 6 0 6 Z " fill="#5F703C" transform="translate(73,98)"/>
<path d="M0 0 C5.96416751 0.93190117 11.69971806 3.12901395 17 6 C15.8125 7.5625 15.8125 7.5625 14 9 C11.3125 8.6875 11.3125 8.6875 9 8 C9 9.65 9 11.3 9 13 C8.67 12.34 8.34 11.68 8 11 C7.34 11 6.68 11 6 11 C5.566875 9.9275 5.13375 8.855 4.6875 7.75 C3.44678487 4.83727354 2.04929621 2.43963834 0 0 Z " fill="#718548" transform="translate(47,91)"/>
<path d="M0 0 C0.33 0 0.66 0 1 0 C1.33 4.95 1.66 9.9 2 15 C1.34 15 0.68 15 0 15 C-0.33 17.97 -0.66 20.94 -1 24 C-1.33 24 -1.66 24 -2 24 C-2.79681402 19.61752288 -3.13998781 15.33049361 -3.25 10.875 C-3.27578125 9.88242188 -3.3015625 8.88984375 -3.328125 7.8671875 C-2.94927351 4.5567471 -1.94281015 2.67872308 0 0 Z " fill="#BADF7F" transform="translate(114,55)"/>
<path d="M0 0 C6.75 2.5 6.75 2.5 9 7 C-0.9 7 -10.8 7 -21 7 C-21 6.67 -21 6.34 -21 6 C-14.4 6 -7.8 6 -1 6 C-0.67 4.02 -0.34 2.04 0 0 Z " fill="#4D5830" transform="translate(55,98)"/>
<path d="M0 0 C3.625 0.1875 3.625 0.1875 6.625 2.1875 C6.625 2.8475 6.625 3.5075 6.625 4.1875 C4.315 4.8475 2.005 5.5075 -0.375 6.1875 C-0.375 7.1775 -0.375 8.1675 -0.375 9.1875 C-0.705 10.1775 -1.035 11.1675 -1.375 12.1875 C-3.9597236 8.31041459 -4.00282738 5.80244043 -4.375 1.1875 C-3.375 0.1875 -3.375 0.1875 0 0 Z " fill="#8A9E60" transform="translate(44.375,56.8125)"/>
<path d="M0 0 C2 0.25 2 0.25 4 1 C4.33 1.99 4.66 2.98 5 4 C5.66 4 6.32 4 7 4 C7 5.32 7 6.64 7 8 C4.36 8 1.72 8 -1 8 C-1.04241723 5.66705225 -1.04092937 3.33297433 -1 1 C-0.67 0.67 -0.34 0.34 0 0 Z " fill="#B9DE80" transform="translate(106,76)"/>
<path d="M0 0 C-0.33 0.94875 -0.66 1.8975 -1 2.875 C-2.10159191 5.77062452 -2.10159191 5.77062452 -2 8 C-2.31478446 9.33783393 -2.64587656 10.67203709 -3 12 C-5 12 -5 12 -6.75 10.3125 C-8 8 -8 8 -7.375 5.4375 C-4.30769231 0 -4.30769231 0 0 0 Z " fill="#BDBCB8" transform="translate(82,32)"/>
<path d="M0 0 C2.375 0.6875 2.375 0.6875 5 2 C6.3125 4.625 6.3125 4.625 7 7 C4.23735711 7.59732819 1.83967231 8 -1 8 C-1.04241723 5.66705225 -1.04092937 3.33297433 -1 1 C-0.67 0.67 -0.34 0.34 0 0 Z " fill="#B9DE7E" transform="translate(103,68)"/>
<path d="M0 0 C2.88844241 1.4442212 3.34835807 3.67152158 4.40234375 6.58984375 C5.42347002 10.70771896 5.23296207 14.78942624 5 19 C4.67 19 4.34 19 4 19 C4 17.35 4 15.7 4 14 C3.34 14 2.68 14 2 14 C1.66179834 12.4176994 1.32964061 10.83410625 1 9.25 C0.814375 8.36828125 0.62875 7.4865625 0.4375 6.578125 C0 4 0 4 0 0 Z " fill="#8BA45D" transform="translate(89,64)"/>
<path d="M0 0 C0.66 0.33 1.32 0.66 2 1 C2.02715383 2.74991334 2.04646551 4.49994945 2.0625 6.25 C2.07410156 7.22453125 2.08570312 8.1990625 2.09765625 9.203125 C2.01195577 11.65758678 1.70706066 13.66168914 1 16 C1.66 16.33 2.32 16.66 3 17 C1.35 18.32 -0.3 19.64 -2 21 C-1.84660156 20.34644531 -1.69320312 19.69289063 -1.53515625 19.01953125 C-0.86620406 15.24507841 -0.64592703 11.51094004 -0.4375 7.6875 C-0.39431641 6.94693359 -0.35113281 6.20636719 -0.30664062 5.44335938 C-0.20129568 3.62908536 -0.10021684 1.8145645 0 0 Z " fill="#98B56A" transform="translate(118,56)"/>
<path d="M0 0 C1.1484375 1.734375 1.1484375 1.734375 2 4 C1.1015625 6.140625 1.1015625 6.140625 -0.375 8.25 C-0.85710937 8.95640625 -1.33921875 9.6628125 -1.8359375 10.390625 C-2.22007813 10.92171875 -2.60421875 11.4528125 -3 12 C-3.99 11.34 -4.98 10.68 -6 10 C-5.38125 9.0925 -4.7625 8.185 -4.125 7.25 C-2.55610389 4.85051183 -1.19556179 2.59038388 0 0 Z " fill="#89A359" transform="translate(91,82)"/>
<path d="M0 0 C2.06154407 3.09231611 2.22394445 3.60758887 2.0625 7.0625 C1.70056433 10.78558927 1.70056433 10.78558927 3 13 C1.68 12.67 0.36 12.34 -1 12 C-1.92470553 7.28400182 -2.22923777 4.32734391 0 0 Z " fill="#95B264" transform="translate(62,58)"/>
<path d="M0 0 C2.625 0.375 2.625 0.375 5 1 C3.35 3.64 1.7 6.28 0 9 C-2 5 -2 5 -2 2 C-1.34 1.34 -0.68 0.68 0 0 Z " fill="#748748" transform="translate(45,61)"/>
<path d="M0 0 C0.66 0 1.32 0 2 0 C2 1.32 2 2.64 2 4 C2.99 4 3.98 4 5 4 C5.33 3.01 5.66 2.02 6 1 C6.66 2.32 7.32 3.64 8 5 C5.1875 6.125 5.1875 6.125 2 7 C1.01 6.34 0.02 5.68 -1 5 C-0.67 3.35 -0.34 1.7 0 0 Z " fill="#A8CA73" transform="translate(46,78)"/>
<path d="M0 0 C1.67542976 0.28604898 3.34385343 0.61781233 5 1 C5 1.33 5 1.66 5 2 C3.35 2 1.7 2 0 2 C0 2.66 0 3.32 0 4 C0.66 4 1.32 4 2 4 C1.34 5.98 0.68 7.96 0 10 C-0.99 10 -1.98 10 -3 10 C-2.69201674 8.51988629 -2.378482 7.04092675 -2.0625 5.5625 C-1.88847656 4.73878906 -1.71445312 3.91507813 -1.53515625 3.06640625 C-1 1 -1 1 0 0 Z " fill="#848A78" transform="translate(64,35)"/>
<path d="M0 0 C0.66 0 1.32 0 2 0 C1.39816251 2.02045442 0.72693904 4.02111039 0 6 C-0.99 6.495 -0.99 6.495 -2 7 C-1.34 8.98 -0.68 10.96 0 13 C-2 13 -2 13 -3.625 11.5 C-4.07875 11.005 -4.5325 10.51 -5 10 C-3.85569823 6.12697862 -2.76679902 2.99736561 0 0 Z " fill="#989694" transform="translate(77,31)"/>
<path d="M0 0 C3.46264391 1.15421464 4.28784522 1.83251366 6 5 C5.6875 8.25 5.6875 8.25 5 11 C0 3.5 0 3.5 0 0 Z " fill="#BFE583" transform="translate(68,59)"/>
<path d="M0 0 C1.65 0 3.3 0 5 0 C5 1.32 5 2.64 5 4 C5.66 4 6.32 4 7 4 C7 4.66 7 5.32 7 6 C5.68 5.67 4.36 5.34 3 5 C2.67 5.99 2.34 6.98 2 8 C2 6.02 2 4.04 2 2 C1.34 2 0.68 2 0 2 C0 1.34 0 0.68 0 0 Z " fill="#A3BD78" transform="translate(64,37)"/>
<path d="M0 0 C4.75 0.875 4.75 0.875 7 2 C6.67 2.66 6.34 3.32 6 4 C5.01 3.67 4.02 3.34 3 3 C3 4.65 3 6.3 3 8 C2.67 7.34 2.34 6.68 2 6 C1.34 6 0.68 6 0 6 C0 4.02 0 2.04 0 0 Z " fill="#8CA65D" transform="translate(53,96)"/>
<path d="M0 0 C0.66 0 1.32 0 2 0 C1.67 1.98 1.34 3.96 1 6 C-0.65 6 -2.3 6 -4 6 C-2.84826645 3.53199953 -1.95216435 1.95216435 0 0 Z " fill="#EEF8DE" transform="translate(121,72)"/>
<path d="M0 0 C6.625 -0.25 6.625 -0.25 10 2 C10 2.66 10 3.32 10 4 C5.78087253 3.5205537 3.20336822 2.83374881 0 0 Z " fill="#AECC80" transform="translate(41,57)"/>
<path d="M0 0 C0.99 0.33 1.98 0.66 3 1 C2.01 3.64 1.02 6.28 0 9 C-0.99 9 -1.98 9 -3 9 C-2.01 6.03 -1.02 3.06 0 0 Z " fill="#BAE17C" transform="translate(67,42)"/>
<path d="M0 0 C0.66 0 1.32 0 2 0 C2.21278058 4.46839215 1.59138085 7.82262526 0 12 C-0.33 12 -0.66 12 -1 12 C-1 2 -1 2 0 0 Z " fill="#ADAAAB" transform="translate(70,27)"/>
<path d="M0 0 C-0.66 1.32 -1.32 2.64 -2 4 C-2.66 4 -3.32 4 -4 4 C-4.33 4.66 -4.66 5.32 -5 6 C-5.33 5.01 -5.66 4.02 -6 3 C-6.99 2.67 -7.98 2.34 -9 2 C-3.375 -1.125 -3.375 -1.125 0 0 Z " fill="#99B46C" transform="translate(86,96)"/>
<path d="M0 0 C1.32 0.33 2.64 0.66 4 1 C2.1875 4 2.1875 4 0 7 C-0.99 7 -1.98 7 -3 7 C-2.67 5.68 -2.34 4.36 -2 3 C-1.34 3 -0.68 3 0 3 C0 2.01 0 1.02 0 0 Z M-1 4 C0 6 0 6 0 6 Z " fill="#4F5D33" transform="translate(73,98)"/>
<path d="M0 0 C6.875 1.875 6.875 1.875 8 3 C8.04063832 4.66617115 8.042721 6.33388095 8 8 C6.68 6.68 5.36 5.36 4 4 C3.01 4.495 3.01 4.495 2 5 C1.34 3.35 0.68 1.7 0 0 Z " fill="#A6C17D" transform="translate(84,60)"/>
<path d="M0 0 C0.66 0.33 1.32 0.66 2 1 C-1 4 -4 7 -7 10 C-6.52727227 5.74545047 -4.03562624 3.80795427 -1 1 C-0.67 0.67 -0.34 0.34 0 0 Z " fill="#BFE684" transform="translate(53,60)"/>
<path d="M0 0 C0.66 0.66 1.32 1.32 2 2 C2.66 1.67 3.32 1.34 4 1 C4.66 1.66 5.32 2.32 6 3 C5.67 3.99 5.34 4.98 5 6 C3.35 5.67 1.7 5.34 0 5 C0 3.35 0 1.7 0 0 Z " fill="#CCCDC5" transform="translate(64,30)"/>
<path d="M0 0 C0.99 0.33 1.98 0.66 3 1 C2.34 3.97 1.68 6.94 1 10 C0.67 10 0.34 10 0 10 C0 6.7 0 3.4 0 0 Z " fill="#D3EAAF" transform="translate(115,55)"/>
<path d="M0 0 C-0.66 1.98 -1.32 3.96 -2 6 C-2.99 6 -3.98 6 -5 6 C-5.33 5.01 -5.66 4.02 -6 3 C-3.375 0 -3.375 0 0 0 Z " fill="#CBC9C6" transform="translate(82,32)"/>
<path d="M0 0 C0.99 0.33 1.98 0.66 3 1 C3 1.66 3 2.32 3 3 C5.31 3.33 7.62 3.66 10 4 C10 4.33 10 4.66 10 5 C7.36 5.33 4.72 5.66 2 6 C2 4.68 2 3.36 2 2 C1.34 2 0.68 2 0 2 C0 1.34 0 0.68 0 0 Z " fill="#C5ED87" transform="translate(45,85)"/>
<path d="M0 0 C0.33 0.99 0.66 1.98 1 3 C0 4 0 4 -3.5625 4.0625 C-4.696875 4.041875 -5.83125 4.02125 -7 4 C-6.34 3.01 -5.68 2.02 -5 1 C-4.01 1.33 -3.02 1.66 -2 2 C-1.67 1.67 -1.34 1.34 -1 1 C-0.67 0.67 -0.34 0.34 0 0 Z " fill="#C4E98A" transform="translate(122,80)"/>
<path d="M0 0 C0.66666667 2.66666667 1.33333333 5.33333333 2 8 C1.01 8.66 0.02 9.32 -1 10 C-1.02689216 8.52093108 -1.04634621 7.04172517 -1.0625 5.5625 C-1.07410156 4.73878906 -1.08570312 3.91507812 -1.09765625 3.06640625 C-1 1 -1 1 0 0 Z " fill="#C6EA8E" transform="translate(116,71)"/>
<path d="M0 0 C1.65 0 3.3 0 5 0 C5 0.33 5 0.66 5 1 C3.35 1 1.7 1 0 1 C0 0.67 0 0.34 0 0 Z " fill="#0F0E0A" transform="translate(26,104)"/>
</svg>
