<?xml version="1.0" encoding="UTF-8"?>
<svg version="1.1" xmlns="http://www.w3.org/2000/svg" width="152" height="105">
<path d="M0 0 C9.33803121 9.08428036 12.39896101 20.66900512 13.34765625 33.3515625 C13.07018119 37.11938175 11.96934264 40.41684679 10.6875 43.9375 C8.86213589 49.01717237 8.86213589 49.01717237 7.59375 54.2578125 C7.4390625 54.95648438 7.284375 55.65515625 7.125 56.375 C5.0625 57.6875 5.0625 57.6875 3.125 58.375 C2.42813981 65.76515934 4.65981556 70.28855432 8.1875 76.6875 C9.14555163 78.4496534 10.09521892 80.21639938 11.03515625 81.98828125 C11.45933838 82.75954346 11.88352051 83.53080566 12.32055664 84.32543945 C13.125 86.375 13.125 86.375 12.125 89.375 C-18.235 89.375 -48.595 89.375 -79.875 89.375 C-80.875 86.375 -80.875 86.375 -80.03881836 84.26196289 C-79.38345093 83.0668811 -79.38345093 83.0668811 -78.71484375 81.84765625 C-78.25142578 80.97302734 -77.78800781 80.09839844 -77.31054688 79.19726562 C-76.31259453 77.35879541 -75.30999085 75.52284234 -74.30273438 73.68945312 C-73.84060547 72.81353516 -73.37847656 71.93761719 -72.90234375 71.03515625 C-72.24866821 69.83838257 -72.24866821 69.83838257 -71.58178711 68.61743164 C-70.63661871 66.39065204 -70.63661871 66.39065204 -71.59594727 64.25952148 C-72.97473672 62.14861308 -72.97473672 62.14861308 -75.3125 59.5625 C-78.6289231 55.67698655 -80.73297772 51.60001571 -81.0625 46.4375 C-81.000625 45.756875 -80.93875 45.07625 -80.875 44.375 C-81.535 44.045 -82.195 43.715 -82.875 43.375 C-83 41 -83 41 -82.875 38.375 C-82.215 37.715 -81.555 37.055 -80.875 36.375 C-80.25564842 34.78439254 -79.6771146 33.17767737 -79.125 31.5625 C-77.20617337 26.53010562 -75.10163004 24.56845381 -70.875 21.375 C-70.545 20.055 -70.215 18.735 -69.875 17.375 C-64.43 15.89 -64.43 15.89 -58.875 14.375 C-61.185 13.715 -63.495 13.055 -65.875 12.375 C-65.90185938 10.22923363 -65.92133088 8.08337355 -65.9375 5.9375 C-65.94910156 4.74253906 -65.96070312 3.54757813 -65.97265625 2.31640625 C-65.875 -0.625 -65.875 -0.625 -64.875 -1.625 C-63.54170404 -1.72116728 -62.20391907 -1.75696554 -60.8671875 -1.765625 C-60.04476562 -1.78496094 -59.22234375 -1.80429688 -58.375 -1.82421875 C-56.64866427 -1.85761513 -54.92196921 -1.8762661 -53.1953125 -1.87890625 C-47.67217098 -2.04185608 -44.67660501 -2.99788117 -40.38696289 -6.47314453 C-29.59334749 -14.69602156 -8.95883241 -7.23254577 0 0 Z " fill="#CD9D81" transform="translate(111.875,12.625)"/>
<path d="M0 0 C1.26457031 0.98033203 1.26457031 0.98033203 2.5546875 1.98046875 C7.30882836 4.76719304 11.3972647 4.63220488 16.8125 4.6875 C18.7149286 4.72938135 20.61728462 4.77475766 22.51953125 4.82421875 C23.35589111 4.83541748 24.19225098 4.84661621 25.05395508 4.8581543 C27 5 27 5 28 6 C28.07036611 7.39911541 28.0725421 8.80174847 28.04663086 10.20239258 C28.03429916 11.09875931 28.02196747 11.99512604 28.00926208 12.9186554 C27.99460403 13.90069443 27.97994598 14.88273346 27.96484375 15.89453125 C27.95879929 17.98762401 27.95564724 20.08072671 27.95507812 22.17382812 C27.95338009 25.46340489 27.93875668 28.74936495 27.87329102 32.03833008 C27.58417334 47.71426632 29.7808456 58.85393546 38.2124176 72.22319031 C39 74 39 74 38 77 C7.64 77 -22.72 77 -54 77 C-55 74 -55 74 -54.16381836 71.88696289 C-53.50845093 70.6918811 -53.50845093 70.6918811 -52.83984375 69.47265625 C-52.37642578 68.59802734 -51.91300781 67.72339844 -51.43554688 66.82226562 C-50.43759453 64.98379541 -49.43499085 63.14784234 -48.42773438 61.31445312 C-47.96560547 60.43853516 -47.50347656 59.56261719 -47.02734375 58.66015625 C-46.59156006 57.86230713 -46.15577637 57.06445801 -45.70678711 56.24243164 C-44.76161871 54.01565204 -44.76161871 54.01565204 -45.72094727 51.88452148 C-47.09973672 49.77361308 -47.09973672 49.77361308 -49.4375 47.1875 C-52.7539231 43.30198655 -54.85797772 39.22501571 -55.1875 34.0625 C-55.125625 33.381875 -55.06375 32.70125 -55 32 C-55.66 31.67 -56.32 31.34 -57 31 C-57.125 28.625 -57.125 28.625 -57 26 C-56.34 25.34 -55.68 24.68 -55 24 C-54.38064842 22.40939254 -53.8021146 20.80267737 -53.25 19.1875 C-51.33117337 14.15510562 -49.22663004 12.19345381 -45 9 C-44.05563651 6.83468832 -44.05563651 6.83468832 -44 5 C-37.32235335 3.6916077 -30.83093598 4.1027337 -24.0625 4.4375 C-22.90169922 4.48970703 -21.74089844 4.54191406 -20.54492188 4.59570312 C-17.69629383 4.72465337 -14.84808213 4.85958589 -12 5 C-12 6.32 -12 7.64 -12 9 C-20.91 9 -29.82 9 -39 9 C-39 22.53 -39 36.06 -39 50 C-18.54 50 1.92 50 23 50 C23 36.47 23 22.94 23 9 C17.39 9 11.78 9 6 9 C6 9.99 6 10.98 6 12 C5.34 12 4.68 12 4 12 C3.34 10.35 2.68 8.7 2 7 C0.53919067 7.61919078 -0.91857455 8.24556692 -2.375 8.875 C-3.18710938 9.22304688 -3.99921875 9.57109375 -4.8359375 9.9296875 C-7.13802299 10.92446067 -7.13802299 10.92446067 -9 13 C-10.18082522 9.30992118 -10.28527337 5.85119054 -10 2 C-6.24543433 -0.50304378 -4.45254066 -0.45280074 0 0 Z " fill="#0F1706" transform="translate(86,25)"/>
<path d="M0 0 C9.33803121 9.08428036 12.39896101 20.66900512 13.34765625 33.3515625 C13.07018119 37.11938175 11.96934264 40.41684679 10.6875 43.9375 C8.84623474 48.97438625 8.84623474 48.97438625 7.77734375 54.21484375 C7.45443359 55.28412109 7.45443359 55.28412109 7.125 56.375 C5.475 57.035 3.825 57.695 2.125 58.375 C1.795 45.175 1.465 31.975 1.125 18.375 C-5.51544884 18.20497966 -5.51544884 18.20497966 -12.15673828 18.07714844 C-18.09531108 17.86012039 -21.204701 17.01941151 -25.875 13.375 C-29.41750051 12.70823122 -29.41750051 12.70823122 -32.875 13.375 C-33.64803467 14.03725586 -34.42106934 14.69951172 -35.2175293 15.38183594 C-38.39990043 17.76868738 -39.90746156 17.84612899 -43.83203125 17.765625 C-44.94384766 17.75273437 -46.05566406 17.73984375 -47.20117188 17.7265625 C-48.35166016 17.69304688 -49.50214844 17.65953125 -50.6875 17.625 C-52.44223633 17.59792969 -52.44223633 17.59792969 -54.23242188 17.5703125 C-57.1141178 17.5232644 -59.99413797 17.45753709 -62.875 17.375 C-60.875 14.375 -60.875 14.375 -59.875 13.375 C-61.855 13.045 -63.835 12.715 -65.875 12.375 C-65.90185938 10.22923363 -65.92133088 8.08337355 -65.9375 5.9375 C-65.94910156 4.74253906 -65.96070313 3.54757813 -65.97265625 2.31640625 C-65.875 -0.625 -65.875 -0.625 -64.875 -1.625 C-63.54170404 -1.72116728 -62.20391907 -1.75696554 -60.8671875 -1.765625 C-60.04476562 -1.78496094 -59.22234375 -1.80429688 -58.375 -1.82421875 C-56.64866427 -1.85761513 -54.92196921 -1.8762661 -53.1953125 -1.87890625 C-47.67217098 -2.04185608 -44.67660501 -2.99788117 -40.38696289 -6.47314453 C-29.59334749 -14.69602156 -8.95883241 -7.23254577 0 0 Z " fill="#F0E1D7" transform="translate(111.875,12.625)"/>
<path d="M0 0 C21.78 0 43.56 0 66 0 C71 12 71 12 71 14 C45.92 14 20.84 14 -5 14 C-3.43297876 9.29893629 -1.84037311 4.60093277 0 0 Z " fill="#2D3226" transform="translate(46,81)"/>
<path d="M0 0 C24.42 0 48.84 0 74 0 C78.95 9.9 78.95 9.9 84 20 C83.505 21.485 83.505 21.485 83 23 C52.64 23 22.28 23 -9 23 C-9.33 22.01 -9.66 21.02 -10 20 C-6.7 13.4 -3.4 6.8 0 0 Z M5 2 C1.54704688 8.80940938 1.54704688 8.80940938 0 16 C25.08 16 50.16 16 76 16 C74.43297876 11.29893629 72.84037311 6.60093277 71 2 C49.22 2 27.44 2 5 2 Z " fill="#CDCFCC" transform="translate(41,79)"/>
<path d="M0 0 C5.61 0 11.22 0 17 0 C17 13.53 17 27.06 17 41 C7.76 41 -1.48 41 -11 41 C-11 31.1 -11 21.2 -11 11 C-10.67 11.66 -10.34 12.32 -10 13 C-8.35 13 -6.7 13 -5 13 C-4.94465088 13.64549805 -4.88930176 14.29099609 -4.83227539 14.95605469 C-4.57901389 17.88766855 -4.32080964 20.81882681 -4.0625 23.75 C-3.97548828 24.76578125 -3.88847656 25.7815625 -3.79882812 26.828125 C-3.71181641 27.8078125 -3.62480469 28.7875 -3.53515625 29.796875 C-3.456604 30.69760742 -3.37805176 31.59833984 -3.29711914 32.52636719 C-3.02860561 34.76184712 -2.60337582 36.83403551 -2 39 C0.67782244 32.49671693 2.74469099 27.07456444 2 20 C1.06716704 17.79932579 1.06716704 17.79932579 0 16 C0 14.68 0 13.36 0 12 C5.28 12 10.56 12 16 12 C16 11.34 16 10.68 16 10 C13.06225537 9.94609643 10.12549768 9.9063745 7.1875 9.875 C6.35412109 9.85824219 5.52074219 9.84148438 4.66210938 9.82421875 C3.45844727 9.81455078 3.45844727 9.81455078 2.23046875 9.8046875 C1.49207764 9.79421387 0.75368652 9.78374023 -0.00708008 9.77294922 C-2.31890676 9.88258521 -2.31890676 9.88258521 -5 12 C-7.1875 11.625 -7.1875 11.625 -9 11 C-8.34 11 -7.68 11 -7 11 C-7 10.34 -7 9.68 -7 9 C-8.98 9 -10.96 9 -13 9 C-13 7.02 -13 5.04 -13 3 C-12.01 3 -11.02 3 -10 3 C-10 3.66 -10 4.32 -10 5 C-9.34 5 -8.68 5 -8 5 C-7.67 4.34 -7.34 3.68 -7 3 C-7 4.32 -7 5.64 -7 7 C-4.48916886 5.74458443 -4.12874554 4.49936512 -3 2 C-2.01 2.33 -1.02 2.66 0 3 C0 2.01 0 1.02 0 0 Z " fill="#B48A6F" transform="translate(92,34)"/>
<path d="M0 0 C1.26457031 0.98033203 1.26457031 0.98033203 2.5546875 1.98046875 C7.30882836 4.76719304 11.3972647 4.63220488 16.8125 4.6875 C18.7149286 4.72938135 20.61728462 4.77475766 22.51953125 4.82421875 C23.35589111 4.83541748 24.19225098 4.84661621 25.05395508 4.8581543 C27 5 27 5 28 6 C28.12232644 7.47250645 28.1777456 8.95065711 28.20532227 10.42797852 C28.2352401 11.83932823 28.2352401 11.83932823 28.26576233 13.27919006 C28.28247482 14.30209641 28.29918732 15.32500275 28.31640625 16.37890625 C28.33718735 17.42070541 28.35796844 18.46250458 28.37937927 19.53587341 C28.44499057 22.87801247 28.50381331 26.22023285 28.5625 29.5625 C28.60567422 31.82227418 28.64928814 34.08204001 28.69335938 36.34179688 C28.80068367 41.89444421 28.90242812 47.44717321 29 53 C28.30598587 52.83923477 27.61197174 52.67846954 26.89692688 52.51283264 C23.76671375 51.95870217 20.82768445 51.83926611 17.64916992 51.79467773 C16.3882402 51.77473251 15.12731049 51.75478729 13.82817078 51.73423767 C12.46227133 51.71725732 11.09637062 51.70037837 9.73046875 51.68359375 C8.32513341 51.66300526 6.919804 51.6420083 5.51448059 51.62062073 C1.82712627 51.56559565 -1.86028212 51.51610067 -5.54772949 51.46777344 C-9.31507136 51.41741496 -13.08233534 51.361804 -16.84960938 51.30664062 C-24.23300683 51.19929859 -31.61646934 51.09780112 -39 51 C-39 50.67 -39 50.34 -39 50 C-18.54 50 1.92 50 23 50 C23 36.47 23 22.94 23 9 C17.39 9 11.78 9 6 9 C6 9.99 6 10.98 6 12 C5.34 12 4.68 12 4 12 C3.34 10.35 2.68 8.7 2 7 C0.53919067 7.61919078 -0.91857455 8.24556692 -2.375 8.875 C-3.18710938 9.22304688 -3.99921875 9.57109375 -4.8359375 9.9296875 C-7.13802299 10.92446067 -7.13802299 10.92446067 -9 13 C-10.18082522 9.30992118 -10.28527337 5.85119054 -10 2 C-6.24543433 -0.50304378 -4.45254066 -0.45280074 0 0 Z " fill="#303527" transform="translate(86,25)"/>
<path d="M0 0 C8.91 0 17.82 0 27 0 C27 0.66 27 1.32 27 2 C18.42 2 9.84 2 1 2 C1 2.66 1 3.32 1 4 C9.25 4 17.5 4 26 4 C25.67 5.98 25.34 7.96 25 10 C17.08 10 9.16 10 1 10 C1 10.66 1 11.32 1 12 C9.25 12 17.5 12 26 12 C26 11.01 26 10.02 26 9 C27.32 8.67 28.64 8.34 30 8 C29.34 10.31 28.68 12.62 28 15 C27.21625 15.103125 26.4325 15.20625 25.625 15.3125 C22.66954819 15.77595022 22.66954819 15.77595022 21 19 C18.93701172 19.34057617 18.93701172 19.34057617 16.4296875 19.29296875 C15.62257324 19.28547607 14.81545898 19.2779834 13.98388672 19.27026367 C12.9579541 19.24295166 11.93202148 19.21563965 10.875 19.1875 C5.986875 19.0946875 5.986875 19.0946875 1 19 C1.33 25.6 1.66 32.2 2 39 C9.26 39 16.52 39 24 39 C24 39.66 24 40.32 24 41 C16.08 41 8.16 41 0 41 C0 27.47 0 13.94 0 0 Z " fill="#FBF9F7" transform="translate(47,34)"/>
<path d="M0 0 C8.58 0 17.16 0 26 0 C31 12 31 12 31 14 C23.74 14 16.48 14 9 14 C9 13.34 9 12.68 9 12 C7.37989014 12.01571045 7.37989014 12.01571045 5.72705078 12.03173828 C1.72773541 12.06788194 -2.27156546 12.09087984 -6.27099609 12.10986328 C-8.00344265 12.11993376 -9.73587216 12.13359089 -11.46826172 12.15087891 C-13.95544639 12.17508162 -16.44240675 12.18647239 -18.9296875 12.1953125 C-19.70682098 12.20563507 -20.48395447 12.21595764 -21.28463745 12.22659302 C-23.19125493 12.22699271 -25.09731036 12.1223214 -27 12 C-27.66 11.34 -28.32 10.68 -29 10 C-28.67 9.01 -28.34 8.02 -28 7 C-26.02 7 -24.04 7 -22 7 C-22.33 7.99 -22.66 8.98 -23 10 C-22.01 10 -21.02 10 -20 10 C-20 9.01 -20 8.02 -20 7 C-18.02 7 -16.04 7 -14 7 C-14 7.66 -14 8.32 -14 9 C-8.06 9 -2.12 9 4 9 C4 8.34 4 7.68 4 7 C4.66 7 5.32 7 6 7 C6 7.99 6 8.98 6 10 C6.66 9.67 7.32 9.34 8 9 C8 8.34 8 7.68 8 7 C8.66 7 9.32 7 10 7 C10 7.99 10 8.98 10 10 C10.99 10 11.98 10 13 10 C12.505 8.02 12.505 8.02 12 6 C10.68 6 9.36 6 8 6 C8 5.01 8 4.02 8 3 C7.34 3.33 6.68 3.66 6 4 C6 4.66 6 5.32 6 6 C5.34 6 4.68 6 4 6 C4 5.01 4 4.02 4 3 C3.34 3.33 2.68 3.66 2 4 C2 4.66 2 5.32 2 6 C1.34 6 0.68 6 0 6 C0 5.01 0 4.02 0 3 C-0.66 2.67 -1.32 2.34 -2 2 C-1.34 2 -0.68 2 0 2 C0 1.34 0 0.68 0 0 Z " fill="#575C4E" transform="translate(86,81)"/>
<path d="M0 0 C1.12019531 -0.00128906 2.24039063 -0.00257812 3.39453125 -0.00390625 C4.57402344 -0.00003906 5.75351562 0.00382813 6.96875 0.0078125 C8.73798828 0.00201172 8.73798828 0.00201172 10.54296875 -0.00390625 C12.22326172 -0.00197266 12.22326172 -0.00197266 13.9375 0 C14.97326172 0.00112793 16.00902344 0.00225586 17.07617188 0.00341797 C19.46875 0.1328125 19.46875 0.1328125 20.46875 1.1328125 C20.54194621 3.82936104 20.56117537 6.49972708 20.53125 9.1953125 C20.52673828 9.95392578 20.52222656 10.71253906 20.51757812 11.49414062 C20.5057568 13.37373121 20.48782078 15.25328149 20.46875 17.1328125 C19.91010254 16.80611572 19.35145508 16.47941895 18.77587891 16.14282227 C16.15126829 14.99382606 14.40650663 14.91590228 11.5546875 14.97265625 C10.62914063 14.98361328 9.70359375 14.99457031 8.75 15.00585938 C7.7909375 15.02712891 6.831875 15.04839844 5.84375 15.0703125 C3.93497012 15.10467054 2.02610856 15.13482839 0.1171875 15.16015625 C-1.14859131 15.18710571 -1.14859131 15.18710571 -2.43994141 15.21459961 C-4.53125 15.1328125 -4.53125 15.1328125 -6.53125 14.1328125 C-6.55810938 11.98704613 -6.57758088 9.84118605 -6.59375 7.6953125 C-6.60535156 6.50035156 -6.61695313 5.30539063 -6.62890625 4.07421875 C-6.46247941 -0.93855761 -4.49691431 0.00489708 0 0 Z " fill="#242A17" transform="translate(52.53125,10.8671875)"/>
<path d="M0 0 C0 14.19 0 28.38 0 43 C-6.62864483 37.31830443 -10.54096122 33.62322504 -11.25 24.9375 C-11.1675 24.298125 -11.085 23.65875 -11 23 C-11.66 22.67 -12.32 22.34 -13 22 C-13.125 19.625 -13.125 19.625 -13 17 C-12.34 16.34 -11.68 15.68 -11 15 C-10.38064842 13.40939254 -9.8021146 11.80267737 -9.25 10.1875 C-7.82156828 6.46279691 -4.89856447 0 0 0 Z " fill="#F5E5DB" transform="translate(42,34)"/>
<path d="M0 0 C5.61 0 11.22 0 17 0 C17 13.53 17 27.06 17 41 C15.35 41 13.7 41 12 41 C13.98 40.505 13.98 40.505 16 40 C16 33.07 16 26.14 16 19 C13.69 19 11.38 19 9 19 C9 17.68 9 16.36 9 15 C6.03 14.67 3.06 14.34 0 14 C0 13.34 0 12.68 0 12 C5.28 12 10.56 12 16 12 C16 11.34 16 10.68 16 10 C13.06225537 9.94609643 10.12549768 9.9063745 7.1875 9.875 C6.35412109 9.85824219 5.52074219 9.84148438 4.66210938 9.82421875 C3.45844727 9.81455078 3.45844727 9.81455078 2.23046875 9.8046875 C1.49207764 9.79421387 0.75368652 9.78374023 -0.00708008 9.77294922 C-2.31890676 9.88258521 -2.31890676 9.88258521 -5 12 C-7.1875 11.625 -7.1875 11.625 -9 11 C-8.34 11 -7.68 11 -7 11 C-7 10.34 -7 9.68 -7 9 C-8.98 9 -10.96 9 -13 9 C-13 7.02 -13 5.04 -13 3 C-12.01 3 -11.02 3 -10 3 C-10 3.66 -10 4.32 -10 5 C-9.34 5 -8.68 5 -8 5 C-7.67 4.34 -7.34 3.68 -7 3 C-7 4.32 -7 5.64 -7 7 C-4.48916886 5.74458443 -4.12874554 4.49936512 -3 2 C-2.01 2.33 -1.02 2.66 0 3 C0 2.01 0 1.02 0 0 Z " fill="#FAF8F6" transform="translate(92,34)"/>
<path d="M0 0 C6.6 0 13.2 0 20 0 C19.195625 2.000625 18.39125 4.00125 17.5625 6.0625 C15.73830354 10.78273717 14.35159419 14.96048331 14 20 C14.66 20.33 15.32 20.66 16 21 C13.52076199 21.02685095 11.0418116 21.04676547 8.5625 21.0625 C7.85544922 21.07087891 7.14839844 21.07925781 6.41992188 21.08789062 C4.61306441 21.09653588 2.80612397 21.05220011 1 21 C0 20 0 20 -0.11352539 18.05053711 C-0.10567017 16.8015564 -0.10567017 16.8015564 -0.09765625 15.52734375 C-0.09515869 14.71773193 -0.09266113 13.90812012 -0.09008789 13.07397461 C-0.08098389 12.03893799 -0.07187988 11.00390137 -0.0625 9.9375 C-0.0315625 5.0184375 -0.0315625 5.0184375 0 0 Z " fill="#E5AD90" transform="translate(48,53)"/>
<path d="M0 0 C1.26263672 0.97839844 1.26263672 0.97839844 2.55078125 1.9765625 C7.31930691 4.77395354 11.44711801 4.6677212 16.875 4.75 C20.21625 4.8325 23.5575 4.915 27 5 C27 18.53 27 32.06 27 46 C26.67 46 26.34 46 26 46 C26 33.13 26 20.26 26 7 C25.01 7.66 24.02 8.32 23 9 C21.09887695 9.22705078 21.09887695 9.22705078 18.98828125 9.1953125 C18.23095703 9.18886719 17.47363281 9.18242188 16.69335938 9.17578125 C15.51483398 9.15064453 15.51483398 9.15064453 14.3125 9.125 C13.51521484 9.11597656 12.71792969 9.10695313 11.89648438 9.09765625 C9.930861 9.07411585 7.96539225 9.03824547 6 9 C6 9.99 6 10.98 6 12 C5.34 12 4.68 12 4 12 C3.34 10.35 2.68 8.7 2 7 C0.53919067 7.61919078 -0.91857455 8.24556692 -2.375 8.875 C-3.59316406 9.39707031 -3.59316406 9.39707031 -4.8359375 9.9296875 C-7.13802299 10.92446067 -7.13802299 10.92446067 -9 13 C-10.18082522 9.30992118 -10.28527337 5.85119054 -10 2 C-6.24543433 -0.50304378 -4.45254066 -0.45280074 0 0 Z " fill="#151D09" transform="translate(86,25)"/>
<path d="M0 0 C0.66305145 0.02361099 1.32610291 0.04722198 2.00924683 0.07154846 C4.12877879 0.14817441 6.24794435 0.23220268 8.3671875 0.31640625 C9.80336744 0.36962806 11.2395653 0.42236845 12.67578125 0.47460938 C16.19814186 0.60378769 19.72021102 0.73960655 23.2421875 0.87890625 C23.2421875 2.19890625 23.2421875 3.51890625 23.2421875 4.87890625 C14.3321875 4.87890625 5.4221875 4.87890625 -3.7578125 4.87890625 C-3.7578125 18.40890625 -3.7578125 31.93890625 -3.7578125 45.87890625 C-4.0878125 45.87890625 -4.4178125 45.87890625 -4.7578125 45.87890625 C-5.0878125 32.67890625 -5.4178125 19.47890625 -5.7578125 5.87890625 C-6.0878125 5.87890625 -6.4178125 5.87890625 -6.7578125 5.87890625 C-7.0878125 19.73890625 -7.4178125 33.59890625 -7.7578125 47.87890625 C-8.0878125 47.87890625 -8.4178125 47.87890625 -8.7578125 47.87890625 C-8.7578125 32.36890625 -8.7578125 16.85890625 -8.7578125 0.87890625 C-5.81164712 -0.59417644 -3.28018656 -0.12404067 0 0 Z " fill="#3C4231" transform="translate(50.7578125,29.12109375)"/>
<path d="M0 0 C0.33 0 0.66 0 1 0 C1.66 2.64 2.32 5.28 3 8 C3.55429688 7.71125 4.10859375 7.4225 4.6796875 7.125 C5.40414062 6.75375 6.12859375 6.3825 6.875 6 C7.59429687 5.62875 8.31359375 5.2575 9.0546875 4.875 C11 4 11 4 13 4 C14.1875 5.6875 14.1875 5.6875 15 8 C13.75 10.75 13.75 10.75 12 13 C11.34 13 10.68 13 10 13 C9.505 12.01 9.505 12.01 9 11 C8.34 11 7.68 11 7 11 C6.34 10.34 5.68 9.68 5 9 C4.896875 9.61875 4.79375 10.2375 4.6875 10.875 C4 13 4 13 1 15 C0.01 15 -0.98 15 -2 15 C-2 15.99 -2 16.98 -2 18 C-10.25 18 -18.5 18 -27 18 C-27 17.34 -27 16.68 -27 16 C-19.08 16 -11.16 16 -3 16 C-2.67 14.02 -2.34 12.04 -2 10 C-10.25 10 -18.5 10 -27 10 C-27 9.34 -27 8.68 -27 8 C-18.42 8 -9.84 8 -1 8 C-1 5.69 -1 3.38 -1 1 C-0.67 0.67 -0.34 0.34 0 0 Z " fill="#DCBEAC" transform="translate(75,28)"/>
<path d="M0 0 C0.33 0.66 0.66 1.32 1 2 C2.65 2 4.3 2 6 2 C6.33786094 5.5412499 6.66947831 9.08305816 7 12.625 C7.09539062 13.62402344 7.19078125 14.62304688 7.2890625 15.65234375 C7.73400626 20.45138006 8.13177309 25.17381074 8 30 C5.36 30 2.72 30 0 30 C0 20.1 0 10.2 0 0 Z " fill="#FDFEFE" transform="translate(81,45)"/>
<path d="M0 0 C1.67542976 0.28604898 3.34385343 0.61781233 5 1 C5.0825 1.928125 5.165 2.85625 5.25 3.8125 C5.63007516 7.09845932 5.63007516 7.09845932 8.03125 8.28125 C10 10 10 10 10.390625 13.13671875 C10.32101563 14.89435547 10.32101563 14.89435547 10.25 16.6875 C10.21390625 17.86699219 10.1778125 19.04648438 10.140625 20.26171875 C10.07101563 21.61716797 10.07101563 21.61716797 10 23 C9.01 23 8.02 23 7 23 C2.58555501 18.20279967 1.55120057 13.28368655 1 7 C0.34 6.67 -0.32 6.34 -1 6 C-1.042721 4.33388095 -1.04063832 2.66617115 -1 1 C-0.67 0.67 -0.34 0.34 0 0 Z " fill="#F4E2D8" transform="translate(30,50)"/>
<path d="M0 0 C0.66 0.33 1.32 0.66 2 1 C2 1.66 2 2.32 2 3 C2.66 3 3.32 3 4 3 C4.33 2.34 4.66 1.68 5 1 C5 2.32 5 3.64 5 5 C7.5 4 7.5 4 9 0 C15.27 0 21.54 0 28 0 C28 0.66 28 1.32 28 2 C23.05 2.33 18.1 2.66 13 3 C12.67 4.32 12.34 5.64 12 7 C16.95 7 21.9 7 27 7 C27 7.33 27 7.66 27 8 C25.80761719 7.97679687 24.61523438 7.95359375 23.38671875 7.9296875 C21.82031876 7.91092822 20.253912 7.89272819 18.6875 7.875 C17.50897461 7.84986328 17.50897461 7.84986328 16.30664062 7.82421875 C15.1706543 7.81455078 15.1706543 7.81455078 14.01171875 7.8046875 C13.31522217 7.79421387 12.61872559 7.78374023 11.90112305 7.77294922 C9.668827 7.89425405 9.668827 7.89425405 7 10 C4.8125 9.625 4.8125 9.625 3 9 C3.66 9 4.32 9 5 9 C5 8.34 5 7.68 5 7 C3.02 7 1.04 7 -1 7 C-1.04254356 5.00045254 -1.04080783 2.99958364 -1 1 C-0.67 0.67 -0.34 0.34 0 0 Z " fill="#F6F4F3" transform="translate(80,36)"/>
<path d="M0 0 C0.99 0 1.98 0 3 0 C3.83764268 1.95649397 4.66999059 3.91525556 5.5 5.875 C5.9640625 6.96554688 6.428125 8.05609375 6.90625 9.1796875 C8 12 8 12 8 14 C2.72 14 -2.56 14 -8 14 C-8.33 12.35 -8.66 10.7 -9 9 C-7.68 9 -6.36 9 -5 9 C-5 8.34 -5 7.68 -5 7 C-6.32 6.67 -7.64 6.34 -9 6 C-7.02 6 -5.04 6 -3 6 C-2.67 6.66 -2.34 7.32 -2 8 C-1.67 7.34 -1.34 6.68 -1 6 C-0.01 6 0.98 6 2 6 C1.34 4.02 0.68 2.04 0 0 Z " fill="#2E3327" transform="translate(109,81)"/>
<path d="M0 0 C2.31 0 4.62 0 7 0 C6.52550099 9.14034937 5.7270386 17.99592496 4 27 C1.69 27 -0.62 27 -3 27 C-2.6390625 26.154375 -2.278125 25.30875 -1.90625 24.4375 C1.77808161 15.43135607 3.74428186 9.36070464 0 0 Z " fill="#E3AB8D" transform="translate(92,48)"/>
<path d="M0 0 C4.95 0 9.9 0 15 0 C15 0.66 15 1.32 15 2 C16.918125 1.690625 16.918125 1.690625 18.875 1.375 C21.0546875 1.0234375 21.0546875 1.0234375 23 1 C23.66 1.66 24.32 2.32 25 3 C24.01 3 23.02 3 22 3 C22 3.99 22 4.98 22 6 C21.34 6 20.68 6 20 6 C20 5.34 20 4.68 20 4 C19.34 3.67 18.68 3.34 18 3 C18 3.99 18 4.98 18 6 C12.39 6 6.78 6 1 6 C1 5.34 1 4.68 1 4 C0.34 3.34 -0.32 2.68 -1 2 C-0.67 1.34 -0.34 0.68 0 0 Z " fill="#44493D" transform="translate(46,81)"/>
<path d="M0 0 C1.98 0 3.96 0 6 0 C6 6.93 6 13.86 6 21 C4.68 21 3.36 21 2 21 C0.79556805 13.94546999 -0.28100502 7.16562789 0 0 Z " fill="#E3A889" transform="translate(102,53)"/>
<path d="M0 0 C0.99 0 1.98 0 3 0 C2.34 2.64 1.68 5.28 1 8 C1.66 8.33 2.32 8.66 3 9 C2.34 9 1.68 9 1 9 C1.34933594 9.90363281 1.69867188 10.80726562 2.05859375 11.73828125 C2.51363281 12.91777344 2.96867187 14.09726563 3.4375 15.3125 C3.88996094 16.48425781 4.34242187 17.65601563 4.80859375 18.86328125 C5.57984755 20.89382815 6.31312642 22.93937926 7 25 C3.7 25 0.4 25 -3 25 C-2.90912109 24.27820557 -2.81824219 23.55641113 -2.72460938 22.81274414 C-2.31577114 19.56274228 -1.907873 16.31262313 -1.5 13.0625 C-1.35691406 11.92619141 -1.21382813 10.78988281 -1.06640625 9.61914062 C-0.93105469 8.53955078 -0.79570313 7.45996094 -0.65625 6.34765625 C-0.53056641 5.34742432 -0.40488281 4.34719238 -0.27539062 3.31665039 C-0.07221933 1.66220325 -0.07221933 1.66220325 0 0 Z " fill="#E2A88A" transform="translate(74,50)"/>
<path d="M0 0 C2.4375 1.5 2.4375 1.5 4 3 C3.01 3 2.02 3 1 3 C1.33 4.32 1.66 5.64 2 7 C1.37351562 7.26554687 0.74703125 7.53109375 0.1015625 7.8046875 C-0.71570313 8.15789063 -1.53296875 8.51109375 -2.375 8.875 C-3.59316406 9.39707031 -3.59316406 9.39707031 -4.8359375 9.9296875 C-7.13802299 10.92446067 -7.13802299 10.92446067 -9 13 C-10.18082522 9.30992118 -10.28527337 5.85119054 -10 2 C-6.28986601 -0.47342266 -4.38939738 -0.38503486 0 0 Z " fill="#3F4435" transform="translate(86,25)"/>
<path d="M0 0 C0.33 0.66 0.66 1.32 1 2 C3.52733235 2.65555119 3.52733235 2.65555119 6 3 C4.07289294 13.55808656 4.07289294 13.55808656 2 18 C0.68 18 -0.64 18 -2 18 C-2 12.39 -2 6.78 -2 1 C-1.34 0.67 -0.68 0.34 0 0 Z " fill="#F2E1D7" transform="translate(118,46)"/>
<path d="M0 0 C0.33 0 0.66 0 1 0 C1 14.19 1 28.38 1 43 C0.01 42.34 -0.98 41.68 -2 41 C-2.20756351 37.95452246 -2.23000757 35.1267278 -2.109375 32.08984375 C-2.08530579 31.20720352 -2.06123657 30.32456329 -2.03643799 29.41517639 C-1.98273451 27.54796928 -1.92172239 25.68096035 -1.85400391 23.81420898 C-1.7503095 20.94606077 -1.6680944 18.07792868 -1.58984375 15.20898438 C-1.53510706 13.39839919 -1.47915871 11.58785014 -1.421875 9.77734375 C-1.39575134 8.91382797 -1.36962769 8.05031219 -1.3427124 7.16062927 C-1.11728867 1.11728867 -1.11728867 1.11728867 0 0 Z " fill="#FDEBE2" transform="translate(41,34)"/>
<path d="M0 0 C1.98 0 3.96 0 6 0 C6 0.66 6 1.32 6 2 C6.99 2 7.98 2 9 2 C9 3.65 9 5.3 9 7 C7 6 5 5 3 4 C2.67 11.26 2.34 18.52 2 26 C0 25 0 25 -0.703125 23.2578125 C-0.88359375 22.55398437 -1.0640625 21.85015625 -1.25 21.125 C-1.44078125 20.42632812 -1.6315625 19.72765625 -1.828125 19.0078125 C-2 17 -2 17 0 14 C-0.66 14 -1.32 14 -2 14 C-1.7834375 13.11248047 -1.7834375 13.11248047 -1.5625 12.20703125 C-0.59177306 8.07470059 0.27593702 4.2770238 0 0 Z " fill="#D7A588" transform="translate(79,43)"/>
<path d="M0 0 C0 1.98 0 3.96 0 6 C-0.94875 5.814375 -1.8975 5.62875 -2.875 5.4375 C-5.89868793 4.71313368 -5.89868793 4.71313368 -8 6 C-8.31241371 8.54941373 -8.51303421 11.00361513 -8.625 13.5625 C-8.66367188 14.27341797 -8.70234375 14.98433594 -8.7421875 15.71679688 C-8.83671783 17.47742425 -8.91945817 19.23867728 -9 21 C-8.01 21 -7.02 21 -6 21 C-6 22.65 -6 24.3 -6 26 C-7.32 26 -8.64 26 -10 26 C-10 18.08 -10 10.16 -10 2 C-9.34 2 -8.68 2 -8 2 C-7.67 1.34 -7.34 0.68 -7 0 C-3.86650268 -1.04449911 -3.01031744 -0.93423645 0 0 Z " fill="#D5CCC3" transform="translate(125,43)"/>
<path d="M0 0 C0.33 1.32 0.66 2.64 1 4 C-7.91 4 -16.82 4 -26 4 C-26 3.34 -26 2.68 -26 2 C-23.42788678 0.71394339 -21.43093034 0.78956059 -18.5546875 0.68359375 C-17.47832031 0.64169922 -16.40195312 0.59980469 -15.29296875 0.55664062 C-14.16503906 0.51732422 -13.03710938 0.47800781 -11.875 0.4375 C-10.73933594 0.39431641 -9.60367188 0.35113281 -8.43359375 0.30664062 C-5.62252232 0.2003396 -2.81136055 0.09830595 0 0 Z " fill="#141C09" transform="translate(73,30)"/>
<path d="M0 0 C0.33 0.66 0.66 1.32 1 2 C2.65 2 4.3 2 6 2 C7.25 9.625 7.25 9.625 5 13 C4.01 12.67 3.02 12.34 2 12 C1.67 17.94 1.34 23.88 1 30 C0.67 30 0.34 30 0 30 C0 20.1 0 10.2 0 0 Z " fill="#F2F3F2" transform="translate(81,45)"/>
<path d="M0 0 C1.3096875 0.0103125 2.619375 0.020625 3.96875 0.03125 C5.93328125 0.01578125 5.93328125 0.01578125 7.9375 0 C11.46875 0.53125 11.46875 0.53125 15.46875 4.53125 C7.87875 4.53125 0.28875 4.53125 -7.53125 4.53125 C-3.53125 0.53125 -3.53125 0.53125 0 0 Z " fill="#F8EBE3" transform="translate(57.53125,24.46875)"/>
<path d="M0 0 C0.33 0 0.66 0 1 0 C1.19491452 1.45736087 1.38069358 2.91594593 1.5625 4.375 C1.66691406 5.18710937 1.77132812 5.99921875 1.87890625 6.8359375 C2 9 2 9 1 11 C-12.86 10.505 -12.86 10.505 -27 10 C-27 9.34 -27 8.68 -27 8 C-18.42 8 -9.84 8 -1 8 C-1 5.69 -1 3.38 -1 1 C-0.67 0.67 -0.34 0.34 0 0 Z " fill="#DCA07F" transform="translate(75,28)"/>
<path d="M0 0 C3.96 0 7.92 0 12 0 C12 1.98 12 3.96 12 6 C8.04 6 4.08 6 0 6 C0 4.02 0 2.04 0 0 Z " fill="#BE9073" transform="translate(50,54)"/>
<path d="M0 0 C0.66 0 1.32 0 2 0 C3.43680971 6.13909603 2.32637691 10.20377279 0 16 C0.66 16 1.32 16 2 16 C1.8040625 16.5775 1.608125 17.155 1.40625 17.75 C0.92156221 20.43442466 1.38759465 21.54503648 2.5 24 C3.91537798 27.12359279 4.11048815 28.72698229 3 32 C-0.65346533 24.5287266 -2.76001116 19.20757679 -1 11 C-0.84649861 8.13655228 -0.84649861 8.13655228 -1.625 6.0625 C-2.10649135 3.41429756 -1.36846295 2.25393897 0 0 Z " fill="#AD8569" transform="translate(77,41)"/>
<path d="M0 0 C5.94 0.33 11.88 0.66 18 1 C18 1.66 18 2.32 18 3 C12.72 3 7.44 3 2 3 C2.495 4.546875 2.99 6.09375 3.5 7.6875 C4.64568516 11.26776614 5.16271068 14.23731556 5 18 C4.67 17.01 4.34 16.02 4 15 C3.34 15 2.68 15 2 15 C1.855625 13.9275 1.71125 12.855 1.5625 11.75 C1.16250558 9.08337051 0.72408076 6.58600271 0 4 C-0.66 4 -1.32 4 -2 4 C-1.34 2.68 -0.68 1.36 0 0 Z " fill="#A97F64" transform="translate(90,43)"/>
<path d="M0 0 C8.25 0 16.5 0 25 0 C25 0.66 25 1.32 25 2 C22.23547967 3.38226016 19.9538637 3.09525387 16.875 3.0625 C15.77929688 3.05347656 14.68359375 3.04445313 13.5546875 3.03515625 C12.71164063 3.02355469 11.86859375 3.01195313 11 3 C11 3.99 11 4.98 11 6 C10.34 6 9.68 6 9 6 C9.33 4.68 9.66 3.36 10 2 C6.7 2 3.4 2 0 2 C0 1.34 0 0.68 0 0 Z " fill="#3F4437" transform="translate(61,81)"/>
<path d="M0 0 C0.99 0.33 1.98 0.66 3 1 C2.67 1.66 2.34 2.32 2 3 C3.32 3.33 4.64 3.66 6 4 C5.67 4.66 5.34 5.32 5 6 C5.99 6 6.98 6 8 6 C8 4.68 8 3.36 8 2 C7.01 2 6.02 2 5 2 C5 1.34 5 0.68 5 0 C6.98 0 8.96 0 11 0 C10.34 2.31 9.68 4.62 9 7 C4.71 7 0.42 7 -4 7 C-3.67 5.35 -3.34 3.7 -3 2 C-2.01 2.33 -1.02 2.66 0 3 C0 2.01 0 1.02 0 0 Z " fill="#454A3C" transform="translate(45,88)"/>
<path d="M0 0 C0.33 0 0.66 0 1 0 C1.33 1.98 1.66 3.96 2 6 C2.33 5.34 2.66 4.68 3 4 C3.66 4 4.32 4 5 4 C5.65104167 5.7578125 6.30208333 7.515625 6.953125 9.2734375 C8.08545005 11.48685081 8.08545005 11.48685081 12 13 C8.04 13 4.08 13 0 13 C0 8.71 0 4.42 0 0 Z " fill="#DFA384" transform="translate(49,60)"/>
<path d="M0 0 C0.99 0.66 1.98 1.32 3 2 C2.01 2.33 1.02 2.66 0 3 C-0.99 10.59 -1.98 18.18 -3 26 C-5.64 26 -8.28 26 -11 26 C-10.38125 25.7525 -9.7625 25.505 -9.125 25.25 C-6.47338335 23.6902255 -6.10314896 22.86634102 -5 20 C-4.57382455 17.30088883 -4.21834382 14.65069549 -3.9375 11.9375 C-3.11505305 4.34515915 -3.11505305 4.34515915 -2 1 C-1.34 0.67 -0.68 0.34 0 0 Z " fill="#B38C71" transform="translate(75,48)"/>
<path d="M0 0 C2.77490376 2.55858062 3.60914295 4.18914378 4 8 C3.67 8.66 3.34 9.32 3 10 C3.66 10 4.32 10 5 10 C3.515 15.445 3.515 15.445 2 21 C1.67 21 1.34 21 1 21 C0.25194283 13.97360585 -0.13794954 7.06608191 0 0 Z " fill="#E7AB8B" transform="translate(89,48)"/>
<path d="M0 0 C0 2.62113708 -0.31292445 4.50935112 -1 7 C-2.32 7.33 -3.64 7.66 -5 8 C-5 7.01 -5 6.02 -5 5 C-12.26 5 -19.52 5 -27 5 C-27 4.67 -27 4.34 -27 4 C-19.08 4 -11.16 4 -3 4 C-3 3.01 -3 2.02 -3 1 C-2.01 0.67 -1.02 0.34 0 0 Z " fill="#E7DFD8" transform="translate(76,42)"/>
<path d="M0 0 C0.33 0 0.66 0 1 0 C1.8320582 5.72040011 2.12036664 11.22240116 2 17 C0.68 17 -0.64 17 -2 17 C-1.85848172 14.9163691 -1.71162064 12.83310062 -1.5625 10.75 C-1.48128906 9.58984375 -1.40007812 8.4296875 -1.31640625 7.234375 C-1.06752213 4.69022624 -0.71885058 2.44046752 0 0 Z " fill="#E6AB8C" transform="translate(100,58)"/>
<path d="M0 0 C0.99 0 1.98 0 3 0 C3 0.99 3 1.98 3 3 C3.99 2.67 4.98 2.34 6 2 C6.33 3.65 6.66 5.3 7 7 C4.03 7 1.06 7 -2 7 C-2.33 5.68 -2.66 4.36 -3 3 C-1.68 3 -0.36 3 1 3 C0.67 2.01 0.34 1.02 0 0 Z " fill="#4C5244" transform="translate(110,88)"/>
<path d="M0 0 C1.32 0.66 2.64 1.32 4 2 C4 2.66 4 3.32 4 4 C5.32 4.33 6.64 4.66 8 5 C8 6.32 8 7.64 8 9 C6.68 9 5.36 9 4 9 C2.5393715 6.35261084 2 5.10551666 2 2 C1.34 2 0.68 2 0 2 C-0.33 2.99 -0.66 3.98 -1 5 C-1 1 -1 1 0 0 Z " fill="#ECC9B6" transform="translate(52,62)"/>
<path d="M0 0 C3.63 0 7.26 0 11 0 C11 0.66 11 1.32 11 2 C9.68 1.67 8.36 1.34 7 1 C6.67 2.65 6.34 4.3 6 6 C5.34 6 4.68 6 4 6 C4 5.01 4 4.02 4 3 C3.01 3.495 3.01 3.495 2 4 C2 4.66 2 5.32 2 6 C1.34 6 0.68 6 0 6 C0 5.01 0 4.02 0 3 C-0.66 2.67 -1.32 2.34 -2 2 C-1.34 2 -0.68 2 0 2 C0 1.34 0 0.68 0 0 Z " fill="#4A4F42" transform="translate(86,81)"/>
<path d="M0 0 C1.67542976 0.28604898 3.34385343 0.61781233 5 1 C5.33 1.99 5.66 2.98 6 4 C4.75 5.5625 4.75 5.5625 3 7 C0.8125 6.6875 0.8125 6.6875 -1 6 C-1.042721 4.33388095 -1.04063832 2.66617115 -1 1 C-0.67 0.67 -0.34 0.34 0 0 Z " fill="#3D4134" transform="translate(30,50)"/>
<path d="M0 0 C5.28 0 10.56 0 16 0 C16 0.66 16 1.32 16 2 C14.41058594 2.09087891 14.41058594 2.09087891 12.7890625 2.18359375 C11.40102779 2.26800127 10.01300768 2.35264917 8.625 2.4375 C7.92632812 2.47681641 7.22765625 2.51613281 6.5078125 2.55664062 C2.62639508 2.74280134 2.62639508 2.74280134 -1 4 C-0.67 2.68 -0.34 1.36 0 0 Z " fill="#D8A081" transform="translate(92,36)"/>
<path d="M0 0 C2.1875 0.3125 2.1875 0.3125 4 1 C4 2.98 4 4.96 4 7 C1.03 6.505 1.03 6.505 -2 6 C-2.33 5.01 -2.66 4.02 -3 3 C-1.75 1.4375 -1.75 1.4375 0 0 Z " fill="#414538" transform="translate(121,42)"/>
<path d="M0 0 C0.66 0.33 1.32 0.66 2 1 C2.625 3.5625 2.625 3.5625 3 6 C2.01 6 1.02 6 0 6 C-0.33 6.99 -0.66 7.98 -1 9 C-1.33 8.01 -1.66 7.02 -2 6 C-3.65 5.67 -5.3 5.34 -7 5 C-6.360625 4.71125 -5.72125 4.4225 -5.0625 4.125 C-2.84793921 3.17176549 -2.84793921 3.17176549 -2 1 C-1.34 1.33 -0.68 1.66 0 2 C0 1.34 0 0.68 0 0 Z " fill="#686D60" transform="translate(108,81)"/>
<path d="M0 0 C0.33 0.66 0.66 1.32 1 2 C2.27875 1.79375 3.5575 1.5875 4.875 1.375 C7.0546875 1.0234375 7.0546875 1.0234375 9 1 C9.66 1.66 10.32 2.32 11 3 C10.01 3 9.02 3 8 3 C8 3.99 8 4.98 8 6 C7.34 6 6.68 6 6 6 C6 5.34 6 4.68 6 4 C5.34 3.67 4.68 3.34 4 3 C4 3.99 4 4.98 4 6 C2.02 6 0.04 6 -2 6 C-1.34 4.02 -0.68 2.04 0 0 Z " fill="#686D60" transform="translate(60,81)"/>
<path d="M0 0 C3.3 0 6.6 0 10 0 C10 0.66 10 1.32 10 2 C9.01 2.33 8.02 2.66 7 3 C8.32 3.33 9.64 3.66 11 4 C6.38 4 1.76 4 -3 4 C-3 3.67 -3 3.34 -3 3 C-1.68 2.67 -0.36 2.34 1 2 C0.67 1.34 0.34 0.68 0 0 Z " fill="#22261C" transform="translate(98,81)"/>
<path d="M0 0 C1.9451 2.91765 2.45276317 4.62537285 3 8 C2.67 8 2.34 8 2 8 C1.67 13.94 1.34 19.88 1 26 C0.67 26 0.34 26 0 26 C0 17.42 0 8.84 0 0 Z " fill="#D7DEDE" transform="translate(81,49)"/>
<path d="M0 0 C0.33 0 0.66 0 1 0 C1 4.95 1 9.9 1 15 C-1 14 -1 14 -2.3125 10.3125 C-3.13504973 6.82765189 -3.014477 6.03685054 -1.625 2.5 C-1.08875 1.675 -0.5525 0.85 0 0 Z " fill="#D09D80" transform="translate(80,54)"/>
<path d="M0 0 C0.33 0 0.66 0 1 0 C1.1875 2.375 1.1875 2.375 1 5 C-2 7 -2 7 -5 7 C-5.33 7.99 -5.66 8.98 -6 10 C-6.125 7.125 -6.125 7.125 -6 4 C-5.34 3.34 -4.68 2.68 -4 2 C-3.34 2.33 -2.68 2.66 -2 3 C-1.67 2.34 -1.34 1.68 -1 1 C-0.67 0.67 -0.34 0.34 0 0 Z " fill="#BCBDB8" transform="translate(78,36)"/>
<path d="M0 0 C2.31 0 4.62 0 7 0 C7.33 0.99 7.66 1.98 8 3 C5.04335481 4.4783226 2.25770263 4.06032783 -1 4 C-0.67 2.68 -0.34 1.36 0 0 Z " fill="#18200F" transform="translate(77,26)"/>
<path d="M0 0 C1.32 0 2.64 0 4 0 C4.33 2.97 4.66 5.94 5 9 C4.34 9 3.68 9 3 9 C0 3.375 0 3.375 0 0 Z " fill="#292F21" transform="translate(87,28)"/>
<path d="M0 0 C2.47359354 0.95752008 3.73064878 1.49496645 5 3.875 C5 6 5 6 3.0625 8.25 C2.381875 8.8275 1.70125 9.405 1 10 C0.67 9.34 0.34 8.68 0 8 C-0.66 8 -1.32 8 -2 8 C-2 7.34 -2 6.68 -2 6 C-0.68 6.33 0.64 6.66 2 7 C2 5.68 2 4.36 2 3 C0.68 3.33 -0.64 3.66 -2 4 C-2 3.34 -2 2.68 -2 2 C-1.34 2 -0.68 2 0 2 C0 1.34 0 0.68 0 0 Z " fill="#191C13" transform="translate(105,14)"/>
<path d="M0 0 C0.66 0.33 1.32 0.66 2 1 C2 1.66 2 2.32 2 3 C2.66 3 3.32 3 4 3 C4.33 2.34 4.66 1.68 5 1 C5 2.32 5 3.64 5 5 C4.34 5 3.68 5 3 5 C3 5.66 3 6.32 3 7 C1.68 7 0.36 7 -1 7 C-1.04254356 5.00045254 -1.04080783 2.99958364 -1 1 C-0.67 0.67 -0.34 0.34 0 0 Z " fill="#FCFCFC" transform="translate(80,36)"/>
<path d="M0 0 C0.99 0 1.98 0 3 0 C2.34 2.64 1.68 5.28 1 8 C1.66 8.33 2.32 8.66 3 9 C2.34 9 1.68 9 1 9 C1.33 10.32 1.66 11.64 2 13 C1.34 13 0.68 13 0 13 C-0.33 13.66 -0.66 14.32 -1 15 C-0.67 10.05 -0.34 5.1 0 0 Z " fill="#ECAF8F" transform="translate(74,50)"/>
<path d="M0 0 C0.66 0 1.32 0 2 0 C2.33 2.31 2.66 4.62 3 7 C1.68 7.33 0.36 7.66 -1 8 C-1.93065133 5.39417629 -2.14917407 4.35801776 -1.0625 1.75 C-0.711875 1.1725 -0.36125 0.595 0 0 Z " fill="#2C2E1C" transform="translate(77,41)"/>
<path d="M0 0 C0.99 0.33 1.98 0.66 3 1 C2.01 2.98 1.02 4.96 0 7 C-1.32 7 -2.64 7 -4 7 C-3.67 5.35 -3.34 3.7 -3 2 C-2.01 2.33 -1.02 2.66 0 3 C0 2.01 0 1.02 0 0 Z " fill="#4A5042" transform="translate(45,88)"/>
<path d="M0 0 C1.98 0 3.96 0 6 0 C6 0.66 6 1.32 6 2 C6.99 2 7.98 2 9 2 C9 3.65 9 5.3 9 7 C7 6 5 5 3 4 C3 3.34 3 2.68 3 2 C2.01 1.67 1.02 1.34 0 1 C0 0.67 0 0.34 0 0 Z " fill="#C8C8C3" transform="translate(79,43)"/>
<path d="M0 0 C0.99 0.33 1.98 0.66 3 1 C2.67 1.33 2.34 1.66 2 2 C2.99 2 3.98 2 5 2 C5 3.32 5 4.64 5 6 C3.68 5.67 2.36 5.34 1 5 C0.67 5.66 0.34 6.32 0 7 C-0.93423645 3.98968256 -1.04449911 3.13349732 0 0 Z " fill="#8B8B80" transform="translate(102,15)"/>
<path d="M0 0 C0 0.66 0 1.32 0 2 C0.99 2.33 1.98 2.66 3 3 C-0.47325181 4.1577506 -3.36067448 4.06866652 -7 4 C-3.375 0 -3.375 0 0 0 Z " fill="#F9ECE3" transform="translate(73,7)"/>
<path d="M0 0 C0.33 0 0.66 0 1 0 C1 2.97 1 5.94 1 9 C-1.64 9 -4.28 9 -7 9 C-6.401875 8.814375 -5.80375 8.62875 -5.1875 8.4375 C-1.90018201 6.27726247 -1.35145313 3.64892345 0 0 Z " fill="#A88267" transform="translate(71,65)"/>
<path d="M0 0 C0.33 0 0.66 0 1 0 C1.33 2.97 1.66 5.94 2 9 C1.01 9 0.02 9 -1 9 C-1.09765625 2.84765625 -1.09765625 2.84765625 -1 1 C-0.67 0.67 -0.34 0.34 0 0 Z " fill="#818377" transform="translate(75,28)"/>
<path d="M0 0 C1.98 0 3.96 0 6 0 C5.34 2.31 4.68 4.62 4 7 C3.34 6.67 2.68 6.34 2 6 C2.33 4.68 2.66 3.36 3 2 C2.01 2 1.02 2 0 2 C0 1.34 0 0.68 0 0 Z " fill="#64695C" transform="translate(50,88)"/>
<path d="M0 0 C1.98 0.66 3.96 1.32 6 2 C6 2.33 6 2.66 6 3 C3.36 3 0.72 3 -2 3 C-2.33 3.99 -2.66 4.98 -3 6 C-3.33 4.35 -3.66 2.7 -4 1 C-2.68 1.33 -1.36 1.66 0 2 C0 1.34 0 0.68 0 0 Z " fill="#6A6F62" transform="translate(97,81)"/>
<path d="M0 0 C0.33 0.99 0.66 1.98 1 3 C1.66 3.33 2.32 3.66 3 4 C3 4.99 3 5.98 3 7 C2.01 7 1.02 7 0 7 C0 6.34 0 5.68 0 5 C-0.99 4.67 -1.98 4.34 -3 4 C-2.67 3.34 -2.34 2.68 -2 2 C-1.34 2 -0.68 2 0 2 C0 1.34 0 0.68 0 0 Z " fill="#C2B8AD" transform="translate(35,54)"/>
<path d="M0 0 C0.99 0.33 1.98 0.66 3 1 C3 1.99 3 2.98 3 4 C2.01 4 1.02 4 0 4 C0 4.99 0 5.98 0 7 C-0.66 7 -1.32 7 -2 7 C-1.34 4.69 -0.68 2.38 0 0 Z " fill="#262A1F" transform="translate(45,84)"/>
<path d="M0 0 C1.32 0 2.64 0 4 0 C4 0.99 4 1.98 4 3 C2.68 3 1.36 3 0 3 C0 2.01 0 1.02 0 0 Z " fill="#1F2513" transform="translate(36,27)"/>
</svg>
