<?xml version="1.0" encoding="UTF-8"?>
<svg version="1.1" xmlns="http://www.w3.org/2000/svg" width="140" height="40">
<path d="M0 0 C46.2 0 92.4 0 140 0 C140 13.2 140 26.4 140 40 C93.8 40 47.6 40 0 40 C0 26.8 0 13.6 0 0 Z " fill="#DDE5EF" transform="translate(0,0)"/>
<path d="M0 0 C1.98 0 3.96 0 6 0 C6.66 1.98 7.32 3.96 8 6 C8.66 4.02 9.32 2.04 10 0 C11.98 0 13.96 0 16 0 C16.33 5.94 16.66 11.88 17 18 C15.35 18 13.7 18 12 18 C11.67 16.02 11.34 14.04 11 12 C10.67 13.98 10.34 15.96 10 18 C8.68 18 7.36 18 6 18 C5.67 16.35 5.34 14.7 5 13 C4.67 14.65 4.34 16.3 4 18 C2.35 18 0.7 18 -1 18 C-0.505 9.09 -0.505 9.09 0 0 Z " fill="#14BB6D" transform="translate(116,3)"/>
<path d="M0 0 C1.5675 -0.061875 3.135 -0.12375 4.75 -0.1875 C6.07257813 -0.23970703 6.07257813 -0.23970703 7.421875 -0.29296875 C10.44671583 0.05076316 11.75583602 1.00227459 14 3 C13.53078003 5.41313129 13.0498364 7.80619179 12.4375 10.1875 C11.92178649 12.01326836 11.92178649 12.01326836 12 14 C12.99 14 13.98 14 15 14 C14.67 15.32 14.34 16.64 14 18 C12.68 18.33 11.36 18.66 10 19 C9.54625 17.865625 9.0925 16.73125 8.625 15.5625 C7.42904194 11.95278308 7.42904194 11.95278308 5 11 C5.33 13.31 5.66 15.62 6 18 C4.02 18 2.04 18 0 18 C0 12.06 0 6.12 0 0 Z " fill="#23B774" transform="translate(76,3)"/>
<path d="M0 0 C1.47906892 -0.02689216 2.95827483 -0.04634621 4.4375 -0.0625 C5.26121094 -0.07410156 6.08492187 -0.08570313 6.93359375 -0.09765625 C9 0 9 0 10 1 C10.400383 3.85528607 10.7518227 6.69736487 11.0625 9.5625 C11.15337891 10.36880859 11.24425781 11.17511719 11.33789062 12.00585938 C11.56247449 14.00347377 11.78173236 16.0016856 12 18 C10.35 18 8.7 18 7 18 C7 16.68 7 15.36 7 14 C5.68 14 4.36 14 3 14 C3 15.32 3 16.64 3 18 C1.02 18 -0.96 18 -3 18 C-2.19500136 11.96251023 -1.11517502 5.98729887 0 0 Z " fill="#31B97C" transform="translate(58,3)"/>
<path d="M0 0 C3.3 0 6.6 0 10 0 C11.11517502 5.98729887 12.19500136 11.96251023 13 18 C11.02 18 9.04 18 7 18 C7 16.68 7 15.36 7 14 C5.68 14 4.36 14 3 14 C3 15.32 3 16.64 3 18 C1.02 18 -0.96 18 -3 18 C-2.690625 17.071875 -2.38125 16.14375 -2.0625 15.1875 C-0.6216844 10.22128454 -0.35305964 5.13794694 0 0 Z " fill="#19B970" transform="translate(97,3)"/>
<path d="M0 0 C0 1.98 0 3.96 0 6 C-1.32 6 -2.64 6 -4 6 C-4.33 5.01 -4.66 4.02 -5 3 C-5 3.99 -5 4.98 -5 6 C-3.7934375 6.680625 -3.7934375 6.680625 -2.5625 7.375 C0 9 0 9 0.9375 11.5 C1 14 1 14 -1 17 C-4.84551868 17.83902226 -7.23918426 18.25360525 -11 17 C-11.125 14.125 -11.125 14.125 -11 11 C-10.34 10.34 -9.68 9.68 -9 9 C-9.350625 8.4225 -9.70125 7.845 -10.0625 7.25 C-11 5 -11 5 -10.8125 2.875 C-8.58426091 -2.26709021 -4.552644 -0.85898943 0 0 Z " fill="#1BBD71" transform="translate(22,4)"/>
<path d="M0 0 C2.31 0 4.62 0 7 0 C7 1.98 7 3.96 7 6 C7.66 6 8.32 6 9 6 C9.33 4.02 9.66 2.04 10 0 C11.98 0 13.96 0 16 0 C14.87114558 2.86555352 13.69345961 5.68665048 12.4375 8.5 C11.24344131 11.40727333 10.4677675 13.9127345 10 17 C8.68 17 7.36 17 6 17 C5.81824219 16.27554687 5.63648438 15.55109375 5.44921875 14.8046875 C4.07832245 9.53200943 2.69320059 4.74516295 0 0 Z " fill="#28B877" transform="translate(37,3)"/>
<path d="M0 0 C1.32 0 2.64 0 4 0 C4.66 0.99 5.32 1.98 6 3 C6.66 3.66 7.32 4.32 8 5 C7.625 7 7.625 7 7 9 C7 9.66 7 10.32 7 11 C7.99 11 8.98 11 10 11 C9.67 12.32 9.34 13.64 9 15 C7.68 15.33 6.36 15.66 5 16 C4.54625 14.865625 4.0925 13.73125 3.625 12.5625 C2.42904194 8.95278308 2.42904194 8.95278308 0 8 C-0.33 8.99 -0.66 9.98 -1 11 C-2.50662097 7.98675805 -2.17770373 5.31713623 -2 2 C-1.34 1.34 -0.68 0.68 0 0 Z " fill="#11BA6C" transform="translate(81,6)"/>
<path d="M0 0 C1.98 0 3.96 0 6 0 C5.67 5.94 5.34 11.88 5 18 C3.35 18 1.7 18 0 18 C0 12.06 0 6.12 0 0 Z " fill="#36B87E" transform="translate(27,3)"/>
<path d="M0 0 C0.33 1.32 0.66 2.64 1 4 C1.66 4 2.32 4 3 4 C3 3.34 3 2.68 3 2 C4.9375 1.4375 4.9375 1.4375 7 1 C7.33 1.33 7.66 1.66 8 2 C7.82364548 4.69082872 7.38164079 7.32851446 7 10 C6.01 10 5.02 10 4 10 C4 11.32 4 12.64 4 14 C2.02 14 0.04 14 -2 14 C-1.33333333 9.33333333 -0.66666667 4.66666667 0 0 Z " fill="#2FBE7C" transform="translate(57,7)"/>
<path d="M0 0 C1.98 0 3.96 0 6 0 C6.33 1.98 6.66 3.96 7 6 C6.34 5.67 5.68 5.34 5 5 C5 4.01 5 3.02 5 2 C3.68 2 2.36 2 1 2 C1 4.97 1 7.94 1 11 C1.99 11 2.98 11 4 11 C4 13.31 4 15.62 4 18 C2.35 18 0.7 18 -1 18 C-0.505 9.09 -0.505 9.09 0 0 Z " fill="#25B776" transform="translate(116,3)"/>
<path d="M0 0 C1.32 0 2.64 0 4 0 C9.17908654 9.02163462 9.17908654 9.02163462 8 14 C7.34 14 6.68 14 6 14 C5.67 12.35 5.34 10.7 5 9 C3.35 9 1.7 9 0 9 C0 6.03 0 3.06 0 0 Z " fill="#03BD66" transform="translate(117,5)"/>
<path d="M0 0 C0.66 0.66 1.32 1.32 2 2 C1.875 4.5 1.875 4.5 1 7 C-0.625 8.375 -0.625 8.375 -3 9 C-6.75 8.625 -6.75 8.625 -10 8 C-10 6.02 -10 4.04 -10 2 C-8.35 1.67 -6.7 1.34 -5 1 C-5 2.98 -5 4.96 -5 7 C-3.35 6.67 -1.7 6.34 0 6 C0 4.02 0 2.04 0 0 Z " fill="#33C285" transform="translate(21,13)"/>
<path d="M0 0 C1.134375 0.020625 2.26875 0.04125 3.4375 0.0625 C4.39011487 4.82557437 4.52083357 9.2291528 4.4375 14.0625 C3.4475 13.4025 2.4575 12.7425 1.4375 12.0625 C1.02906077 9.35046348 1.30413133 6.8187858 1.4375 4.0625 C0.1175 4.0625 -1.2025 4.0625 -2.5625 4.0625 C-2.5625 4.7225 -2.5625 5.3825 -2.5625 6.0625 C-3.2225 6.0625 -3.8825 6.0625 -4.5625 6.0625 C-4.605221 4.39638095 -4.60313832 2.72867115 -4.5625 1.0625 C-3.5625 0.0625 -3.5625 0.0625 0 0 Z " fill="#04BE65" transform="translate(62.5625,4.9375)"/>
<path d="M0 0 C1.2065625 0.0309375 1.2065625 0.0309375 2.4375 0.0625 C2.7675 1.0525 3.0975 2.0425 3.4375 3.0625 C2.7775 3.0625 2.1175 3.0625 1.4375 3.0625 C1.4375 2.4025 1.4375 1.7425 1.4375 1.0625 C-0.60133888 1.72673207 -0.60133888 1.72673207 -2.5625 3.0625 C-3.2618514 5.24791552 -3.2618514 5.24791552 -3.3125 7.6875 C-3.36921875 8.50476562 -3.4259375 9.32203125 -3.484375 10.1640625 C-3.51015625 10.79054688 -3.5359375 11.41703125 -3.5625 12.0625 C-4.5525 12.0625 -5.5425 12.0625 -6.5625 12.0625 C-6.8925 11.4025 -7.2225 10.7425 -7.5625 10.0625 C-8.2225 10.7225 -8.8825 11.3825 -9.5625 12.0625 C-9.5625 9.7525 -9.5625 7.4425 -9.5625 5.0625 C-8.2425 5.3925 -6.9225 5.7225 -5.5625 6.0625 C-5.253125 5.258125 -4.94375 4.45375 -4.625 3.625 C-3.15384615 0.07692308 -3.15384615 0.07692308 0 0 Z " fill="#4CB88A" transform="translate(19.5625,25.9375)"/>
<path d="M0 0 C0 1.98 0 3.96 0 6 C-1.32 6 -2.64 6 -4 6 C-4.33 5.01 -4.66 4.02 -5 3 C-5.66 3.66 -6.32 4.32 -7 5 C-7.66 4.34 -8.32 3.68 -9 3 C-9.66 3.66 -10.32 4.32 -11 5 C-10.6875 3.125 -10.6875 3.125 -10 1 C-6.1496895 -1.56687367 -4.41430237 -0.83288724 0 0 Z " fill="#24BB77" transform="translate(22,4)"/>
<path d="M0 0 C2.31 0 4.62 0 7 0 C6.67 3.96 6.34 7.92 6 12 C4 8 2 4 0 0 Z " fill="#38BD84" transform="translate(37,3)"/>
<path d="M0 0 C1.65 0 3.3 0 5 0 C5.97608217 2.92824652 6.08226668 4.95613276 6 8 C4 8 2 8 0 8 C0 5.36 0 2.72 0 0 Z " fill="#5EC198" transform="translate(117,30)"/>
<path d="M0 0 C1.65 0 3.3 0 5 0 C5.97608217 2.92824652 6.08226668 4.95613276 6 8 C5.34 8 4.68 8 4 8 C3.67 7.34 3.34 6.68 3 6 C2.67 6.66 2.34 7.32 2 8 C1.34 8 0.68 8 0 8 C0 5.36 0 2.72 0 0 Z " fill="#5FC49B" transform="translate(52,30)"/>
<path d="M0 0 C0.598125 0.185625 1.19625 0.37125 1.8125 0.5625 C4.16408762 1.22093687 4.16408762 1.22093687 7 0 C7 2.64 7 5.28 7 8 C6.67 7.01 6.34 6.02 6 5 C5.34 5 4.68 5 4 5 C3.67 5.99 3.34 6.98 3 8 C3 7.01 3 6.02 3 5 C2.34 5 1.68 5 1 5 C0.67 5.99 0.34 6.98 0 8 C0 5.36 0 2.72 0 0 Z " fill="#4DBE8F" transform="translate(126,30)"/>
<path d="M0 0 C1.98 0.99 1.98 0.99 4 2 C4 4.97 4 7.94 4 11 C2.68 11 1.36 11 0 11 C0 7.37 0 3.74 0 0 Z " fill="#0AB96A" transform="translate(43,9)"/>
<path d="M0 0 C1.32 0 2.64 0 4 0 C4.66 0.99 5.32 1.98 6 3 C6.66 3.66 7.32 4.32 8 5 C7.625 7.625 7.625 7.625 7 10 C6.34 10 5.68 10 5 10 C5 8.68 5 7.36 5 6 C3.35 5.67 1.7 5.34 0 5 C-0.5625 3.0625 -0.5625 3.0625 -1 1 C-0.67 0.67 -0.34 0.34 0 0 Z " fill="#5AC89A" transform="translate(81,6)"/>
<path d="M0 0 C1.98 0 3.96 0 6 0 C5.67 2.64 5.34 5.28 5 8 C3.35 8 1.7 8 0 8 C0 5.36 0 2.72 0 0 Z " fill="#7DCBB0" transform="translate(44,30)"/>
<path d="M0 0 C1.98 0 3.96 0 6 0 C6.33 5.94 6.66 11.88 7 18 C5.35 18 3.7 18 2 18 C2 16.35 2 14.7 2 13 C2.33 13.99 2.66 14.98 3 16 C3.66 16 4.32 16 5 16 C5 11.05 5 6.1 5 1 C3.35 1 1.7 1 0 1 C0 0.67 0 0.34 0 0 Z " fill="#2CB376" transform="translate(126,3)"/>
<path d="M0 0 C0.99 0 1.98 0 3 0 C2.98839844 0.67546875 2.97679688 1.3509375 2.96484375 2.046875 C2.95582031 2.93890625 2.94679688 3.8309375 2.9375 4.75 C2.92589844 5.63171875 2.91429688 6.5134375 2.90234375 7.421875 C2.99173802 9.7818838 3.33087179 11.74498524 4 14 C2.68 14 1.36 14 0 14 C0 9.38 0 4.76 0 0 Z " fill="#04BC65" transform="translate(77,5)"/>
<path d="M0 0 C1.32 0 2.64 0 4 0 C4.33 2.64 4.66 5.28 5 8 C4.34 8 3.68 8 3 8 C3 7.34 3 6.68 3 6 C2.34 6 1.68 6 1 6 C1 6.66 1 7.32 1 8 C0.34 8 -0.32 8 -1 8 C-1.125 2.25 -1.125 2.25 0 0 Z " fill="#67C49E" transform="translate(109,30)"/>
<path d="M0 0 C0.66 0 1.32 0 2 0 C2 2.64 2 5.28 2 8 C1.01 8 0.02 8 -1 8 C-1 7.01 -1 6.02 -1 5 C-1.66 5 -2.32 5 -3 5 C-3.33 5.99 -3.66 6.98 -4 8 C-4 5.69 -4 3.38 -4 1 C-2.68 1.33 -1.36 1.66 0 2 C0 1.34 0 0.68 0 0 Z " fill="#4FBD90" transform="translate(85,30)"/>
<path d="M0 0 C2.475 0.495 2.475 0.495 5 1 C5 2.98 5 4.96 5 7 C3.35 7.33 1.7 7.66 0 8 C0 5.36 0 2.72 0 0 Z " fill="#76C8AB" transform="translate(37,30)"/>
<path d="M0 0 C0.99 0 1.98 0 3 0 C3.66 2.64 4.32 5.28 5 8 C4.01 8 3.02 8 2 8 C2 7.34 2 6.68 2 6 C1.34 6 0.68 6 0 6 C0 6.66 0 7.32 0 8 C-0.66 8 -1.32 8 -2 8 C-1.125 1.125 -1.125 1.125 0 0 Z " fill="#63C29E" transform="translate(73,30)"/>
<path d="M0 0 C2.29633824 3.44450737 2.54016485 5.93812283 3 10 C1.02 10 -0.96 10 -3 10 C-3 8.35 -3 6.7 -3 5 C-2.34 5 -1.68 5 -1 5 C-0.67 3.35 -0.34 1.7 0 0 Z " fill="#2FBC7E" transform="translate(107,11)"/>
<path d="M0 0 C0.66 0 1.32 0 2 0 C2 1.65 2 3.3 2 5 C2.66 5 3.32 5 4 5 C4 3.35 4 1.7 4 0 C4.66 0 5.32 0 6 0 C6.125 2.875 6.125 2.875 6 6 C5.34 6.66 4.68 7.32 4 8 C1.875 7.625 1.875 7.625 0 7 C0 4.69 0 2.38 0 0 Z " fill="#50B68C" transform="translate(19,30)"/>
<path d="M0 0 C2.475 0.495 2.475 0.495 5 1 C5 3.31 5 5.62 5 8 C3.33333333 8 1.66666667 8 0 8 C0 5.36 0 2.72 0 0 Z " fill="#4BBD8E" transform="translate(28,30)"/>
<path d="M0 0 C2.475 0.495 2.475 0.495 5 1 C5 2.65 5 4.3 5 6 C3.35 6.33 1.7 6.66 0 7 C0 4.69 0 2.38 0 0 Z " fill="#69C2A1" transform="translate(90,31)"/>
<path d="M0 0 C0.66 0 1.32 0 2 0 C2.33 4.95 2.66 9.9 3 15 C2.01 15 1.02 15 0 15 C0 10.05 0 5.1 0 0 Z " fill="#06BC66" transform="translate(29,5)"/>
<path d="M0 0 C2.97 0.495 2.97 0.495 6 1 C5.67 2.32 5.34 3.64 5 5 C3.0625 5.5625 3.0625 5.5625 1 6 C0 5 0 5 -0.0625 2.4375 C-0.041875 1.633125 -0.02125 0.82875 0 0 Z " fill="#22B974" transform="translate(85,16)"/>
<path d="M0 0 C0.66 0.33 1.32 0.66 2 1 C1.67 2.98 1.34 4.96 1 7 C-0.65 7 -2.3 7 -4 7 C-3.43628586 3.73045798 -2.50037734 2.17424117 0 0 Z " fill="#11B969" transform="translate(59,13)"/>
<path d="M0 0 C0.66 0 1.32 0 2 0 C2.98248524 4.0527516 3.08159574 7.83861737 3 12 C1.68 11.34 0.36 10.68 -1 10 C-0.34 8.02 0.32 6.04 1 4 C0.34 3.67 -0.32 3.34 -1 3 C-0.67 2.01 -0.34 1.02 0 0 Z " fill="#06BB62" transform="translate(104,5)"/>
<path d="M0 0 C0.66 0 1.32 0 2 0 C2.33 2.64 2.66 5.28 3 8 C1.35 8 -0.3 8 -2 8 C-1.67 7.01 -1.34 6.02 -1 5 C-0.65179959 3.33637583 -0.31595508 1.67004829 0 0 Z " fill="#27B576" transform="translate(67,13)"/>
<path d="M0 0 C0.66 0 1.32 0 2 0 C2 0.66 2 1.32 2 2 C2.66 2 3.32 2 4 2 C4 1.34 4 0.68 4 0 C4.66 0 5.32 0 6 0 C5.34 2.64 4.68 5.28 4 8 C3.34 8 2.68 8 2 8 C1.34 5.36 0.68 2.72 0 0 Z " fill="#66C19E" transform="translate(60,30)"/>
<path d="M0 0 C1.65 0 3.3 0 5 0 C5 0.66 5 1.32 5 2 C4.01 2 3.02 2 2 2 C2 3.98 2 5.96 2 8 C1.34 8 0.68 8 0 8 C0 5.36 0 2.72 0 0 Z " fill="#6DC1A1" transform="translate(101,30)"/>
<path d="M0 0 C0.33 0 0.66 0 1 0 C1 1.65 1 3.3 1 5 C1.99 4.67 2.98 4.34 4 4 C4 4.99 4 5.98 4 7 C2.02 7 0.04 7 -2 7 C-1.34 4.69 -0.68 2.38 0 0 Z " fill="#38B77E" transform="translate(96,14)"/>
<path d="M0 0 C1.32 0 2.64 0 4 0 C4 1.65 4 3.3 4 5 C3.01 5.33 2.02 5.66 1 6 C0 1.125 0 1.125 0 0 Z " fill="#05BC64" transform="translate(17,14)"/>
<path d="M0 0 C0.99 0 1.98 0 3 0 C3 1.65 3 3.3 3 5 C2.01 5.495 2.01 5.495 1 6 C0.34 5.67 -0.32 5.34 -1 5 C-0.67 3.35 -0.34 1.7 0 0 Z " fill="#6DD1A5" transform="translate(102,9)"/>
<path d="M0 0 C0.99 0 1.98 0 3 0 C3 0.99 3 1.98 3 3 C2.01 3 1.02 3 0 3 C0 4.32 0 5.64 0 7 C-1.98 7 -3.96 7 -6 7 C-6 6.67 -6 6.34 -6 6 C-4.35 6 -2.7 6 -1 6 C-0.67 4.02 -0.34 2.04 0 0 Z " fill="#3EBC84" transform="translate(61,14)"/>
<path d="M0 0 C0.99 0.33 1.98 0.66 3 1 C3 1.99 3 2.98 3 4 C2.34 4 1.68 4 1 4 C1 4.66 1 5.32 1 6 C0.34 6 -0.32 6 -1 6 C-1.042721 4.33388095 -1.04063832 2.66617115 -1 1 C-0.67 0.67 -0.34 0.34 0 0 Z " fill="#0AB86B" transform="translate(59,5)"/>
<path d="M0 0 C1.5 1.3125 1.5 1.3125 3 3 C3 3.99 3 4.98 3 6 C1.68 6 0.36 6 -1 6 C-1.042721 4.33388095 -1.04063832 2.66617115 -1 1 C-0.67 0.67 -0.34 0.34 0 0 Z " fill="#08BC67" transform="translate(13,6)"/>
<path d="M0 0 C1.32 0.33 2.64 0.66 4 1 C2.84826645 3.46800047 1.95216435 5.04783565 0 7 C0 4.69 0 2.38 0 0 Z " fill="#8CD1BB" transform="translate(10,31)"/>
<path d="M0 0 C0.99 0.33 1.98 0.66 3 1 C3 2.65 3 4.3 3 6 C1.68 5.67 0.36 5.34 -1 5 C-0.67 3.35 -0.34 1.7 0 0 Z " fill="#6CD6A5" transform="translate(62,8)"/>
</svg>
